<svg version="1.1" xmlns="http://www.w3.org/2000/svg" viewBox="0 0 3230.7646882502377 1419.5899297045212" width="9692.294064750713" height="4258.769789113563">
  <!-- svg-source:excalidraw -->
  
  <defs>
    <style class="style-fonts">
      @font-face {
        font-family: "Virgil";
        src: url("https://excalidraw.com/Virgil.woff2");
      }
      @font-face {
        font-family: "Cascadia";
        src: url("https://excalidraw.com/Cascadia.woff2");
      }
    </style>
  </defs>
  <rect x="0" y="0" width="3230.7646882502377" height="1419.5899297045212" fill="#ffffff"></rect><g stroke-linecap="round" transform="translate(479.9459677177956 1302.4036126495248) rotate(0 7.408277404921705 18.620805369127424)"><path d="M9.13 0.31 C10.88 0.49, 12.45 2.93, 13.44 5.72 C14.43 8.52, 15.18 12.92, 15.06 17.07 C14.95 21.22, 13.91 27.31, 12.76 30.64 C11.61 33.98, 9.67 36.49, 8.16 37.09 C6.64 37.7, 4.89 36.13, 3.67 34.27 C2.46 32.41, 1.55 29.37, 0.88 25.93 C0.22 22.49, -0.65 17.31, -0.32 13.61 C0 9.91, 1.26 5.75, 2.83 3.74 C4.4 1.72, 7.91 1.93, 9.09 1.53 C10.27 1.13, 9.77 1.35, 9.94 1.33 M8.7 0.78 C10.33 0.92, 10.8 3.38, 11.92 6.03 C13.05 8.67, 15.08 12.94, 15.46 16.64 C15.83 20.34, 15.16 24.96, 14.18 28.22 C13.21 31.48, 11.07 34.91, 9.61 36.19 C8.15 37.47, 6.88 37.55, 5.43 35.89 C3.99 34.23, 1.72 30.07, 0.96 26.22 C0.19 22.38, 0.57 16.34, 0.84 12.82 C1.11 9.31, 1.51 7.43, 2.59 5.12 C3.67 2.81, 6.58 -0.44, 7.3 -1.05 C8.02 -1.67, 7.06 1.16, 6.92 1.44" stroke="none" stroke-width="0" fill="#ffffff"></path><path d="M4.43 2.52 C5.48 0.5, 7.18 0, 8.51 0.9 C9.85 1.8, 11.31 4.87, 12.45 7.93 C13.59 10.98, 15.26 15.49, 15.34 19.22 C15.42 22.95, 14.11 27.26, 12.92 30.29 C11.73 33.32, 9.63 36.89, 8.2 37.41 C6.77 37.93, 5.71 35.78, 4.32 33.42 C2.93 31.06, 0.4 26.74, -0.16 23.24 C-0.73 19.75, -0.08 16.27, 0.92 12.45 C1.92 8.64, 4.87 2.17, 5.84 0.36 C6.81 -1.44, 6.84 1.27, 6.73 1.62 M5.97 1.02 C7.64 0.73, 10.81 2.16, 12.38 4.27 C13.95 6.38, 15 9.9, 15.39 13.66 C15.79 17.43, 15.56 23.27, 14.78 26.84 C13.99 30.41, 12.26 33.64, 10.7 35.08 C9.14 36.52, 7.25 36.53, 5.42 35.47 C3.6 34.4, 0.69 31.84, -0.24 28.68 C-1.18 25.51, -0.46 20.44, -0.18 16.49 C0.11 12.53, 0.29 7.84, 1.47 4.94 C2.65 2.03, 6.2 -0.4, 6.92 -0.95 C7.64 -1.5, 5.85 0.99, 5.79 1.64" stroke="#000000" stroke-width="1" fill="none"></path></g><g stroke-linecap="round" transform="translate(604.6294129079533 1302.4036126495248) rotate(0 7.408277404921705 18.620805369127424)"><path d="M4.23 2.5 C5.44 0.52, 7.36 0.01, 8.74 0.76 C10.12 1.52, 11.41 4.01, 12.52 7.03 C13.63 10.06, 15.32 14.91, 15.41 18.93 C15.5 22.95, 14.39 28.06, 13.06 31.15 C11.73 34.24, 9 37.06, 7.43 37.45 C5.85 37.84, 4.67 35.84, 3.6 33.48 C2.53 31.12, 1.34 27.04, 0.99 23.29 C0.64 19.55, 0.65 14.75, 1.49 11 C2.32 7.25, 5.26 2.35, 5.98 0.79 C6.69 -0.77, 6.05 1.29, 5.77 1.63 M4.97 1.22 C6.43 -0.65, 8.73 0.08, 10.16 1.28 C11.59 2.49, 12.88 5.27, 13.54 8.42 C14.19 11.58, 14.28 16.17, 14.09 20.21 C13.9 24.25, 13.35 29.82, 12.39 32.67 C11.43 35.53, 9.97 37.02, 8.32 37.34 C6.68 37.66, 4.11 36.95, 2.53 34.59 C0.95 32.23, -1.09 27.21, -1.15 23.16 C-1.21 19.12, 1.44 14.03, 2.15 10.32 C2.87 6.6, 2.61 2.45, 3.13 0.86 C3.66 -0.73, 5.29 0.34, 5.32 0.77" stroke="none" stroke-width="0" fill="#868e96"></path><path d="M11.35 1.71 C12.65 3.08, 14.12 7.01, 14.74 10.89 C15.36 14.76, 15.68 21.05, 15.07 24.99 C14.45 28.92, 12.68 32.53, 11.07 34.51 C9.46 36.49, 6.89 37.31, 5.41 36.88 C3.93 36.45, 3.25 34.95, 2.2 31.92 C1.15 28.88, -0.62 22.76, -0.89 18.68 C-1.15 14.6, -0.66 10.33, 0.64 7.44 C1.93 4.55, 5.26 2.02, 6.88 1.36 C8.51 0.7, 9.53 3.16, 10.41 3.49 C11.28 3.82, 12.15 3.24, 12.14 3.34 M6.92 0.76 C8.43 0.08, 10.14 0.98, 11.16 2.96 C12.19 4.93, 12.64 8.91, 13.08 12.59 C13.52 16.27, 14.24 21.33, 13.81 25.04 C13.37 28.74, 11.83 33.04, 10.45 34.82 C9.06 36.6, 6.89 36.38, 5.51 35.71 C4.14 35.03, 3 33.67, 2.18 30.75 C1.36 27.82, 0.65 22.14, 0.59 18.15 C0.53 14.16, 1.11 9.99, 1.84 6.79 C2.57 3.6, 4.06 0.09, 4.95 -1.03 C5.85 -2.15, 6.84 -0.66, 7.19 0.07" stroke="#000000" stroke-width="1" fill="none"></path></g><g stroke-linecap="round"><g transform="translate(487.6298110927173 1303.2061336779043) rotate(0 62.174405326502495 -0.06547959801991965)"><path d="M-1.15 1.18 C19.79 1.28, 104.48 0.82, 125.5 0.52 M0.45 0.76 C21.33 0.5, 104.43 -1.27, 125.1 -1.33" stroke="#000000" stroke-width="1" fill="none"></path></g></g><mask></mask><g stroke-linecap="round"><g transform="translate(487.4570123374824 1339.6272768740764) rotate(0 64.08220387380948 -0.11028021354400153)"><path d="M1.18 1.05 C22.5 1.33, 106.9 0.6, 127.82 0.52 M0.35 0.56 C21.55 0.57, 106.27 -0.99, 127.14 -1.33" stroke="#000000" stroke-width="1" fill="none"></path></g></g><mask></mask><g stroke-linecap="round" transform="translate(486.16533868766146 1303.8804188082286) rotate(0 4.723911040926453 17.043887353599075)"><path d="M2.36 0 L8.86 0.59 L9.45 2.36 L9.45 31.73 L8.86 33.5 L7.09 34.09 L2.36 34.09 L0.59 33.5 L0 31.73 L0 2.36 L0.59 0.59 L2.36 0" stroke="none" stroke-width="0" fill="#ffffff"></path><path d="M2.36 0 M2.36 0 C4.16 0, 5.96 0, 7.09 0 M2.36 0 C4.1 0, 5.83 0, 7.09 0 M7.09 0 C8.66 0, 9.45 0.79, 9.45 2.36 M7.09 0 C8.66 0, 9.45 0.79, 9.45 2.36 M9.45 2.36 C9.45 9.17, 9.45 15.99, 9.45 31.73 M9.45 2.36 C9.45 13.22, 9.45 24.07, 9.45 31.73 M9.45 31.73 C9.45 33.3, 8.66 34.09, 7.09 34.09 M9.45 31.73 C9.45 33.3, 8.66 34.09, 7.09 34.09 M7.09 34.09 C5.54 34.09, 3.99 34.09, 2.36 34.09 M7.09 34.09 C5.97 34.09, 4.85 34.09, 2.36 34.09 M2.36 34.09 C0.79 34.09, 0 33.3, 0 31.73 M2.36 34.09 C0.79 34.09, 0 33.3, 0 31.73 M0 31.73 C0 21.57, 0 11.42, 0 2.36 M0 31.73 C0 22.51, 0 13.29, 0 2.36 M0 2.36 C0 0.79, 0.79 0, 2.36 0 M0 2.36 C0 0.79, 0.79 0, 2.36 0" stroke="transparent" stroke-width="1" fill="none"></path></g><g transform="translate(504.1959677177956 1305.7484880024494) rotate(0 23.5 16)"><text x="23.5" y="22" font-family="Virgil, Segoe UI Emoji" font-size="24.11764705882353px" fill="#000000" text-anchor="middle" style="white-space: pre;" direction="ltr">x_n</text></g><g stroke-linecap="round" transform="translate(478.12901621857327 1368.481413803942) rotate(0 7.408277404921705 18.620805369127424)"><path d="M5.48 0.96 C6.76 0.18, 8.74 0.9, 10.17 2.59 C11.6 4.27, 13.28 7.36, 14.04 11.08 C14.8 14.8, 15.33 20.89, 14.75 24.92 C14.17 28.94, 12.08 33.08, 10.56 35.24 C9.04 37.41, 7.13 38.47, 5.64 37.89 C4.15 37.32, 2.59 34.99, 1.62 31.78 C0.65 28.57, -0.33 22.95, -0.16 18.65 C0 14.34, 1.3 9.21, 2.6 5.95 C3.9 2.69, 6.56 -0.12, 7.63 -0.89 C8.7 -1.65, 8.98 0.97, 9.04 1.36 M10.18 0.11 C11.55 0.93, 12.81 4.69, 13.73 8.19 C14.66 11.68, 15.93 17.21, 15.75 21.1 C15.57 25, 13.87 29.11, 12.65 31.56 C11.42 34.01, 10.11 35.23, 8.43 35.8 C6.74 36.37, 4 37.32, 2.53 34.97 C1.06 32.63, 0.06 25.68, -0.38 21.72 C-0.83 17.75, -0.73 14.78, -0.14 11.19 C0.45 7.61, 1.53 2.18, 3.14 0.21 C4.75 -1.76, 8.58 -0.63, 9.52 -0.62 C10.47 -0.6, 8.9 -0.07, 8.82 0.3" stroke="none" stroke-width="0" fill="#ffffff"></path><path d="M9.6 0.24 C11.24 0.6, 12.54 3.2, 13.38 6.48 C14.22 9.76, 14.58 15.93, 14.64 19.92 C14.7 23.91, 14.87 27.73, 13.73 30.43 C12.59 33.14, 9.47 35.35, 7.81 36.15 C6.14 36.95, 4.81 37.36, 3.73 35.22 C2.64 33.08, 1.67 27.15, 1.29 23.3 C0.92 19.46, 1.03 15.76, 1.5 12.15 C1.97 8.53, 2.74 3.55, 4.11 1.61 C5.48 -0.32, 8.68 0.64, 9.71 0.56 C10.75 0.48, 10.25 0.74, 10.33 1.15 M8.85 -0.58 C10.33 -0.45, 12.13 1.73, 13.17 4.5 C14.22 7.27, 15.3 11.87, 15.14 16.03 C14.97 20.2, 13.17 25.97, 12.17 29.49 C11.17 33.01, 10.6 36.11, 9.12 37.16 C7.64 38.21, 4.76 37.71, 3.31 35.8 C1.86 33.88, 1.18 29.1, 0.44 25.66 C-0.31 22.23, -1.51 18.72, -1.18 15.19 C-0.85 11.66, 0.72 7.11, 2.43 4.49 C4.14 1.87, 8.11 0.38, 9.1 -0.53 C10.1 -1.44, 8.54 -1.55, 8.4 -0.96" stroke="#000000" stroke-width="1" fill="none"></path></g><g stroke-linecap="round" transform="translate(602.812461408731 1368.481413803942) rotate(0 7.408277404921705 18.620805369127424)"><path d="M8.95 -0.67 C10.64 -0.39, 12.28 2.58, 13.12 5.7 C13.96 8.82, 13.9 14.13, 13.98 18.05 C14.06 21.97, 14.29 26.19, 13.58 29.21 C12.87 32.22, 11.18 35.19, 9.73 36.15 C8.28 37.11, 6.27 36.72, 4.89 34.97 C3.52 33.22, 2.3 29.15, 1.49 25.67 C0.67 22.18, -0.16 17.83, -0.01 14.07 C0.14 10.31, 1.03 5.34, 2.41 3.09 C3.8 0.84, 6.95 0.76, 8.3 0.59 C9.65 0.41, 10.45 1.64, 10.5 2.03 M8.39 0.6 C9.81 1.29, 11.93 5.23, 13.04 8.44 C14.14 11.64, 15.16 15.9, 15.01 19.82 C14.86 23.74, 13.49 29.17, 12.14 31.98 C10.78 34.79, 8.09 36.41, 6.88 36.69 C5.66 36.96, 6.12 35.91, 4.85 33.65 C3.57 31.38, -0.23 27.03, -0.77 23.08 C-1.31 19.13, 1.03 13.45, 1.62 9.93 C2.22 6.41, 1.79 3.65, 2.79 1.96 C3.8 0.27, 6.76 0.01, 7.66 -0.22 C8.56 -0.46, 8.14 -0.01, 8.19 0.55" stroke="none" stroke-width="0" fill="#868e96"></path><path d="M4.15 1.67 C5.23 -0.21, 6.89 -0.69, 8.51 0.55 C10.13 1.78, 12.97 5.84, 13.87 9.09 C14.76 12.34, 14.26 16.16, 13.89 20.04 C13.51 23.91, 12.44 29.33, 11.61 32.35 C10.78 35.37, 10.47 37.79, 8.92 38.17 C7.37 38.54, 3.61 37.1, 2.3 34.61 C0.98 32.12, 1.36 27.25, 1.03 23.22 C0.7 19.19, -0.33 14.19, 0.33 10.43 C0.99 6.66, 4.12 2.18, 5.01 0.64 C5.9 -0.9, 5.55 0.85, 5.69 1.19 M8.56 1.11 C10.1 1.71, 11.64 5.1, 12.54 8.01 C13.45 10.92, 13.89 14.68, 13.98 18.56 C14.06 22.44, 13.91 28.35, 13.04 31.28 C12.18 34.21, 10.37 35.7, 8.78 36.12 C7.19 36.54, 5.09 36.08, 3.52 33.79 C1.94 31.5, -0.39 26.26, -0.66 22.36 C-0.93 18.46, 0.92 13.61, 1.89 10.38 C2.87 7.16, 4.08 4.57, 5.2 3 C6.32 1.43, 8.17 1.26, 8.6 0.96 C9.03 0.65, 7.52 0.92, 7.77 1.19" stroke="#000000" stroke-width="1" fill="none"></path></g><g stroke-linecap="round"><g transform="translate(485.812859593495 1369.2839348323214) rotate(0 62.282377664702096 -0.040083389174697004)"><path d="M0.54 -1.01 C21.32 -0.8, 104.59 0.46, 125.19 0.63 M-0.63 1.08 C20.01 0.99, 103.99 -1.21, 124.64 -1.16" stroke="#000000" stroke-width="1" fill="none"></path></g></g><mask></mask><g stroke-linecap="round"><g transform="translate(485.64006083826007 1405.7050780284935) rotate(0 63.461296784686 0.41093878650178794)"><path d="M-1.01 0.75 C20.42 0.61, 106.54 0.03, 127.93 -0.29 M0.66 0.09 C22.04 0.09, 106.32 1.18, 127.32 1.1" stroke="#000000" stroke-width="1" fill="none"></path></g></g><mask></mask><g stroke-linecap="round" transform="translate(484.3483871884391 1369.9582199626457) rotate(0 4.723911040926453 17.043887353599075)"><path d="M2.36 0 L8.86 0.59 L9.45 2.36 L9.45 31.73 L8.86 33.5 L7.09 34.09 L2.36 34.09 L0.59 33.5 L0 31.73 L0 2.36 L0.59 0.59 L2.36 0" stroke="none" stroke-width="0" fill="#ffffff"></path><path d="M2.36 0 M2.36 0 C3.39 0, 4.42 0, 7.09 0 M2.36 0 C3.58 0, 4.8 0, 7.09 0 M7.09 0 C8.66 0, 9.45 0.79, 9.45 2.36 M7.09 0 C8.66 0, 9.45 0.79, 9.45 2.36 M9.45 2.36 C9.45 9.83, 9.45 17.3, 9.45 31.73 M9.45 2.36 C9.45 13.26, 9.45 24.16, 9.45 31.73 M9.45 31.73 C9.45 33.3, 8.66 34.09, 7.09 34.09 M9.45 31.73 C9.45 33.3, 8.66 34.09, 7.09 34.09 M7.09 34.09 C5.35 34.09, 3.61 34.09, 2.36 34.09 M7.09 34.09 C5.21 34.09, 3.34 34.09, 2.36 34.09 M2.36 34.09 C0.79 34.09, 0 33.3, 0 31.73 M2.36 34.09 C0.79 34.09, 0 33.3, 0 31.73 M0 31.73 C0 20.98, 0 10.23, 0 2.36 M0 31.73 C0 20.01, 0 8.29, 0 2.36 M0 2.36 C0 0.79, 0.79 0, 2.36 0 M0 2.36 C0 0.79, 0.79 0, 2.36 0" stroke="transparent" stroke-width="1" fill="none"></path></g><g transform="translate(499.87901621857327 1371.8262891568666) rotate(0 26 16)"><text x="26" y="22" font-family="Virgil, Segoe UI Emoji" font-size="24.11764705882353px" fill="#000000" text-anchor="middle" style="white-space: pre;" direction="ltr">G_n</text></g><g stroke-linecap="round"><g transform="translate(622.141623829054 1327.2099845498778) rotate(0 134.7998025129 0.21020897092148516)"><path d="M-0.67 0.15 C43.26 -0.22, 220.37 -1.07, 265.28 -0.71 M4.17 -2.24 C48.77 -2.3, 226.38 2.6, 270.26 2.66" stroke="#862e9c" stroke-width="2" fill="none"></path></g></g><mask></mask><g stroke-linecap="round"><g transform="translate(622.0895908583543 1387.1917083151093) rotate(0 294.1113891802582 0.03908404445724045)"><path d="M0.15 -2.61 C98.47 -2.05, 492.39 2.37, 591.44 2.69 M-3.22 2.15 C94.56 1.89, 489.41 -1.65, 588.95 -1.83" stroke="#c92a2a" stroke-width="2" fill="none"></path></g></g><mask></mask><g transform="translate(751.4783862160975 1293.7814973311051) rotate(0 54 16)"><text x="54" y="22" font-family="Virgil, Segoe UI Emoji" font-size="24.425455787995094px" fill="#000000" text-anchor="middle" style="white-space: pre;" direction="ltr">253 bits</text></g><g transform="translate(816.2059026539 1349.5363382978467) rotate(0 67 16)"><text x="67" y="22" font-family="Virgil, Segoe UI Emoji" font-size="24.425455787995094px" fill="#000000" text-anchor="middle" style="white-space: pre;" direction="ltr">2X377 bits</text></g><g stroke-linecap="round" transform="translate(744.5667563260495 468.2418855803753) rotate(0 340.3147801442922 373.8062273873501)"><path d="M0.72 -0.71 C140.4 -1.64, 281.89 -0.09, 681.41 -0.61 M-0.17 -0.02 C266.06 -0.2, 532.13 0.09, 680.73 0.06 M680.29 0.3 C677.75 260.82, 677.77 520.56, 680.79 747.47 M680.55 -0.25 C678.22 253.86, 678.41 507.34, 680.92 747.46 M681.2 747.72 C458.34 747.81, 235.38 747.45, -0.4 748.1 M680.3 747.75 C531.96 746.59, 383.35 746.6, 0.35 747.53 M0.77 746.82 C0.59 454.61, 0.53 163.46, 0.4 -0.32 M0.16 747.43 C-1.34 478.86, -1.11 210.32, 0.05 -0.18" stroke="#000000" stroke-width="2" fill="none"></path></g><g stroke-linecap="round" transform="translate(456.4786450622096 902.7274971013949) rotate(359.4587704537732 58 55)"><path d="M0 0 C0 0, 0 0, 0 0 M0 0 C0 0, 0 0, 0 0 M-1.65 13.49 C1.32 6.89, 4.45 4.97, 10.27 2.19 M0.81 12.1 C2.92 6.45, 7.55 1.81, 12.1 0.43 M3.32 24.52 C8.55 14.76, 9.6 9.14, 19.31 -4 M-1.08 25.9 C5.72 19.15, 11.34 10.3, 20.8 -0.96 M-2.01 37.9 C11.78 26.73, 19.63 16.52, 35.21 -2.49 M-2.11 38.08 C6.41 26.89, 13.79 19.19, 33.63 0.51 M-2.48 45.19 C12.05 33.97, 27.75 15.71, 44.9 2.85 M1.39 47.78 C13.4 33.81, 24.81 16.67, 40.88 -0.41 M1.63 62.89 C10.11 44.9, 27.61 25.77, 54.05 -0.01 M0.28 60.09 C12.47 46.21, 30.13 29.41, 52.5 -1.12 M-3.69 76.14 C21.78 47.76, 44.39 25.65, 66.61 -0.3 M-1.43 74.75 C21.28 44.01, 47.97 18.68, 63.64 -1.28 M-3.13 85.84 C29.12 58.08, 50.82 24.32, 76.44 -2.11 M1.99 84.8 C20.38 58.55, 43.68 34.55, 73.82 1.05 M-1.14 95.83 C17.39 72.37, 32.54 56.82, 86.95 -2 M0.51 97.09 C34.76 61.86, 67.93 22.07, 84.17 -0.8 M0.34 108.19 C36.18 66.98, 73.82 30.58, 94.69 -2.64 M0.11 111.12 C22.55 81.94, 45.7 54.27, 96.55 -2.29 M3.45 115.37 C31.53 83.4, 51.2 57.43, 109.01 1.61 M4.01 116.56 C39.54 73.67, 77.99 34.08, 106.8 -1.88 M15.58 118.66 C39.69 81.28, 66.05 56.99, 119 3.75 M15.3 115.13 C38.39 88.9, 60.93 62.2, 115.22 -0.43 M28.22 118.77 C55.74 85.02, 81.55 60.97, 113.27 15.67 M27.43 116.68 C55.83 84.19, 81.84 55.91, 115.93 13.65 M36.52 113.16 C70.8 79.64, 97.17 48.31, 115.11 22.73 M37.26 115.89 C60.37 90.77, 82.22 64.08, 115.56 24.53 M50.26 111.68 C69.66 93.96, 84.57 73.51, 116.61 40.17 M47.69 113.43 C76.51 84.91, 100.11 55.26, 116.97 36.69 M57.52 110.97 C67.6 98.9, 80.92 88.84, 114.71 53.12 M60.8 113.7 C78.65 96.28, 94.2 78.55, 114.86 48.46 M72.29 112.82 C83.89 102.95, 96.71 85.27, 118.94 59.47 M69.05 116.71 C82.37 98.86, 94.12 85.19, 117.06 62.31 M82.11 114.53 C90.99 106.03, 92.97 94.72, 113.64 77.3 M80.5 115.85 C87.34 107.64, 97.14 96.44, 118.29 73.67 M87.64 111.32 C98.66 106.34, 105.66 105.52, 116.94 87.94 M89.97 113.71 C101.91 103.3, 110.52 92.66, 116.74 85.47 M98.36 118.69 C103.59 110.35, 105.25 109.77, 115.72 95.13 M100.21 115.91 C103.28 111, 107.81 106.08, 116.59 96.75" stroke="#ced4da" stroke-width="1" fill="none"></path><path d="M-3.55 -2.01 C29.05 -0.68, 69.67 1.79, 112.95 3.65 M-0.11 -0.82 C44.04 -0.68, 89.63 1.46, 116.32 0.97 M117.51 -2.28 C118.19 21.89, 113.68 48.98, 115.31 111.56 M114.73 -1.89 C118.03 24.61, 117.75 52.52, 115.21 110.54 M116.54 112.16 C90.39 112.66, 64.55 109.66, 2.44 106.74 M116.67 110.55 C76.69 109.45, 38.82 109.83, -0.42 111.82 M-3.94 110.5 C-2.8 78.99, 2.95 49.61, -1.58 2.38 M-0.94 110.15 C-0.54 73.28, 0.14 34.17, -0.91 0.84" stroke="#000000" stroke-width="2" fill="none"></path></g><g transform="translate(470.9786450622096 921.7274971013949) rotate(359.4587704537732 43.5 36)"><text x="43.5" y="25" font-family="Virgil, Segoe UI Emoji" font-size="27.22849946729339px" fill="#000000" text-anchor="middle" style="white-space: pre;" direction="ltr">Window</text><text x="43.5" y="61" font-family="Virgil, Segoe UI Emoji" font-size="27.22849946729339px" fill="#000000" text-anchor="middle" style="white-space: pre;" direction="ltr">01</text></g><g stroke-linecap="round" transform="translate(451.0971235467723 723.6690555272726) rotate(359.6927864776797 57.46211937430064 51.49714838744717)"><path d="M0 0 C0 0, 0 0, 0 0 M0 0 C0 0, 0 0, 0 0 M-1.09 9.47 C3.16 6.33, 6.32 6.8, 13.47 1.66 M-1.03 10.97 C1.66 8.43, 5.99 7.33, 10.4 0.42 M2.69 21.5 C2.84 16.44, 8.9 7.51, 19.72 -3.16 M-0.14 25.72 C7.86 14.13, 15.21 5.47, 21.4 -0.64 M1.69 38.03 C9.31 28.29, 22.03 12.89, 29.29 0.11 M-1.11 35.97 C10.97 23.26, 25.32 10.48, 32.25 0.68 M-1.14 49.2 C12.44 34.83, 24.59 27.67, 43.4 3.17 M0.48 50.29 C13.71 30.7, 30.06 11.67, 42.12 1.75 M-3.62 62.2 C15.31 40.34, 34.04 21.92, 52.05 0.82 M-1.71 62.86 C17.23 44.87, 31.05 23.83, 53.81 1.2 M1.59 72.01 C22.94 51.97, 41.4 29.31, 66.44 1.8 M-1.31 71.99 C27.99 43.86, 50.72 13.78, 64.87 -1.12 M2.05 88.5 C22.04 58.08, 50.02 29.66, 74.54 3.08 M-0.68 84.68 C22.31 59.54, 45.48 32.15, 72.83 1.65 M0.4 95.57 C30.27 64.44, 68.39 20.71, 88.72 0.32 M1.62 99.25 C20.84 75.3, 38.57 51.43, 86.34 -0.79 M3.95 102.74 C30.9 79.14, 50.95 48.19, 93.4 2.2 M3.91 106.26 C37.44 65.2, 71.68 24.88, 94.37 -2.1 M13.75 103.07 C46.23 63.77, 87.98 27.19, 108.66 0.78 M12.03 105.95 C43.65 75.21, 70.71 40.65, 105.42 0.51 M23 102.09 C53.89 71.54, 86.78 39.78, 112.54 3.42 M25.33 106.59 C59.58 67.89, 89.98 30.09, 115.38 1.59 M38.41 103.81 C54.59 88.78, 64.51 69.7, 115.44 9.2 M35.59 105.9 C63 74.44, 89.77 42.17, 117.44 13.36 M48.58 105.39 C66.26 85.33, 86.87 56.48, 115.35 28.08 M46.97 107.21 C65.63 84.08, 83.03 61.84, 114.96 24.28 M59.66 103.53 C69.86 88.77, 82.39 79.81, 119.24 33.48 M57.2 105.21 C72.49 86.64, 91.56 67.45, 114.36 37.07 M62.97 104.8 C82.2 89.43, 101.64 69.63, 115.85 46.13 M68.78 105.8 C78.69 94.05, 88.74 78.01, 115.5 48 M78.6 108.09 C89.21 92.71, 101.3 79.51, 114.7 65.14 M78.17 103.93 C85.83 94.6, 95.67 86.57, 114.26 63.41 M91.06 106.91 C93.91 94.32, 104.17 87.92, 112.28 71.4 M86.96 107.33 C96.96 95.59, 105.88 87.62, 114.27 74.51 M100.87 103.8 C107.15 104.49, 109 97.76, 119.8 82.45 M99.06 106.42 C104.37 100, 112.58 90.68, 114.24 85.74 M108.86 105.24 C109.82 104.82, 112.58 100.48, 114.72 99.04 M108.69 105.9 C111.79 102.52, 114.7 99.38, 115.87 97.88" stroke="#ced4da" stroke-width="1" fill="none"></path><path d="M-3.81 1.41 C48.77 5.04, 86.62 4.8, 118.14 0.26 M-0.1 -1.65 C31.06 1.43, 59.74 1.91, 113.3 1.13 M115.86 -2.2 C112.13 27.34, 115.01 54.63, 112.2 103.64 M116.6 -0.91 C115.01 30.43, 112.83 58.46, 113.07 103.37 M113.37 104 C68.91 102.24, 32.04 100.98, 1.09 101.88 M113.57 104.36 C88.67 105.38, 64.52 105.45, -0.33 102.31 M-3.55 103.17 C4.23 64.16, 0.45 23.73, 1.83 0.26 M-0.39 104.32 C1.24 68.19, 0.06 33.73, -1.89 -0.56" stroke="#000000" stroke-width="2" fill="none"></path></g><g stroke-linecap="round" transform="translate(443.6568427535285 496.8050916952434) rotate(359.27389701322335 58 51)"><path d="M0 0 C0 0, 0 0, 0 0 M0 0 C0 0, 0 0, 0 0 M-2.44 11.72 C0.66 8.81, 7.38 9.06, 12.32 -2.78 M-0.94 11.42 C2.7 9.53, 7.78 3.7, 11.09 -0.66 M-2.32 21.55 C6.82 12.78, 12.09 4.1, 18.17 2.29 M1.9 23.81 C3.81 18.09, 8.71 13.07, 20.69 -0.27 M0.89 36.8 C10.09 30.41, 13.64 15.03, 32.1 2.3 M-1.16 35.85 C6.06 31.22, 13.25 22.17, 32.68 -1 M0.15 50.03 C8.71 39.69, 24.34 26.35, 45.82 3.14 M1.25 47.21 C16.49 28.58, 32.22 11.38, 44.4 0.19 M1.25 59.94 C16.74 42.02, 35.76 19.21, 54.15 -0.19 M1.91 62.42 C18.96 42.06, 32.9 24.21, 54.52 -0.35 M-0.85 75.88 C13.25 60.42, 24.88 45.31, 65.78 3.37 M-0.87 74.91 C13.43 57.58, 25.95 42.61, 62.86 0.03 M3.73 82.22 C15.81 68.09, 29.92 47.86, 77.73 0.51 M-0.08 84.91 C30.59 52.25, 58.98 18.36, 76.3 1.53 M-2.52 94.78 C28.3 72.22, 46.39 46.74, 85.64 -2.79 M1.16 99.44 C29.37 62.24, 57.56 31.28, 84.53 -0.98 M0.46 108.83 C33.75 71.11, 59.58 36.93, 98.18 2.36 M3.98 105.93 C30.4 72.65, 57.71 37.58, 93.88 1.27 M11.45 101.35 C34.38 82.87, 60.04 57.35, 107.42 -0.59 M14.33 105.95 C33.46 85.83, 48.96 62.85, 107.15 0.14 M21.14 104.67 C49.48 79.74, 76.86 45.03, 118.57 2.69 M25.64 106.48 C46.13 78.5, 67.53 54.41, 116.74 -1.53 M33.52 108.72 C63.6 70.5, 89.84 43.07, 112.44 14.15 M35.62 105.7 C61.03 75.35, 85.84 48.54, 116.6 12.41 M45.77 104.21 C68.79 81.16, 82.93 60.46, 119.4 23.25 M47.59 105.77 C65.29 81.32, 83.97 59.38, 115.61 22.83 M54.57 106.29 C75.35 81.32, 101.79 60.51, 112.25 36.57 M56.25 103.94 C72.72 87.79, 88.45 67.35, 115.84 38.51 M66.51 102.1 C84.48 90.08, 97.89 76.64, 112.99 47.07 M67.51 105.83 C88.42 81.4, 104.96 60.48, 114.86 48.98 M80.46 106.49 C91.46 91.6, 104.59 72.05, 119.34 58.28 M76.3 104.56 C86.83 93.96, 98.77 80.11, 117.61 62.24 M89.94 101.55 C97.79 90.99, 111.82 79.37, 113.69 72.88 M90.37 105.95 C96.2 97.51, 105.85 84.37, 116.8 72.91 M97.5 108.3 C107.37 101, 109.76 100.26, 112.83 89.08 M100.12 103.69 C105.68 100.28, 108.31 93.52, 116.12 84.21 M109.66 103.79 C112.19 103.41, 111.2 100.88, 116.78 99.47 M110.25 104.82 C111.08 103.78, 112.12 101.82, 115.73 98.95" stroke="#ced4da" stroke-width="1" fill="none"></path><path d="M1.41 3.93 C28.38 -0.84, 52.63 5.43, 116.26 -1.66 M-1.65 1.35 C34.65 0.43, 69.28 -1.51, 117.13 -0.85 M113.8 -3.57 C115.64 33.76, 116.4 66.18, 116.65 101.25 M115.09 1.39 C115.55 23.33, 114.62 46.38, 116.37 103.42 M117.01 98.65 C77.64 103.54, 40 102.19, -1.11 98.7 M117.37 100.74 C79.09 100.01, 40.51 100.1, -0.68 103.93 M0.18 104.2 C1.73 79.88, 2.12 62.75, 0.26 1.61 M1.32 102.28 C0.09 75.26, 0.69 48.45, -0.56 1.98" stroke="#000000" stroke-width="2" fill="none"></path></g><g transform="translate(458.1568427535285 511.8050916952434) rotate(359.27389701322335 43.5 36)"><text x="43.5" y="25" font-family="Virgil, Segoe UI Emoji" font-size="27.22849946729339px" fill="#000000" text-anchor="middle" style="white-space: pre;" direction="ltr">Window</text><text x="43.5" y="61" font-family="Virgil, Segoe UI Emoji" font-size="27.22849946729339px" fill="#000000" text-anchor="middle" style="white-space: pre;" direction="ltr">29</text></g><g stroke-linecap="round" transform="translate(217.07864259795997 640.3629886875656) rotate(269.24944320363574 289.7195883426996 116.58179988439849)"><path d="M1.55 -1.22 C120.04 -3.27, 237.27 -5.22, 579.35 -0.65 M0.2 0.13 C171.47 -3.78, 342.61 -3.47, 579.74 -0.46 M580.12 -0.58 C578.6 73.14, 577.82 150.23, 577.29 229.97 M580.68 -0.66 C578.1 87.91, 577.96 180.16, 579.67 234.08 M578.64 234.14 C426.83 229.72, 276.38 227.96, 0.53 233.61 M580.14 233 C445.5 230.11, 309.84 231.01, -0.79 233.26 M1.68 231.83 C1.83 185.48, 0.04 136.07, -1.58 0.25 M0.21 232.4 C-1.89 166.22, -3.08 104.14, -0.64 -1.23" stroke="#000000" stroke-width="1" fill="none"></path></g><g transform="translate(504.3506307020589 632.0520910298328) rotate(0 5 40)"><text x="0" y="14" font-family="Virgil, Segoe UI Emoji" font-size="15.453994876785174px" fill="#000000" text-anchor="start" style="white-space: pre;" direction="ltr">.</text><text x="0" y="34" font-family="Virgil, Segoe UI Emoji" font-size="15.453994876785174px" fill="#000000" text-anchor="start" style="white-space: pre;" direction="ltr">.</text><text x="0" y="54" font-family="Virgil, Segoe UI Emoji" font-size="15.453994876785174px" fill="#000000" text-anchor="start" style="white-space: pre;" direction="ltr">.</text><text x="0" y="74" font-family="Virgil, Segoe UI Emoji" font-size="15.453994876785174px" fill="#000000" text-anchor="start" style="white-space: pre;" direction="ltr"></text></g><g stroke-linecap="round"><g transform="translate(255.00568372908992 1092.0184973326877) rotate(0 -2.0176423197449935 -249.97789098607075)"><path d="M-2.14 2.55 C-3.42 -81.65, -3.88 -418.27, -4.92 -502.51 M1.9 1.47 C0.2 -81.04, -3.82 -415.23, -5.93 -498.78" stroke="#862e9c" stroke-width="2" fill="none"></path></g></g><mask></mask><g stroke-linecap="round"><g transform="translate(1817.2685272461995 1109.238942533933) rotate(0 -746.1675130264284 4.383302149856263)"><path d="M2.55 2.25 C-246.69 3.4, -1243.48 4.34, -1492.75 4.76 M0.49 1.01 C-249.35 2.73, -1245.64 6.71, -1494.89 7.76" stroke="#c92a2a" stroke-width="2" fill="none"></path></g></g><mask></mask><g stroke-linecap="round"><g transform="translate(325.42209347268636 1116.1177147687995) rotate(0 -1.589443602376491 -272.7206291037584)"><path d="M2.25 0.19 C2.18 -91.18, -1.76 -454.66, -2.56 -545.63 M0.03 -2.18 C-0.32 -91.87, -4.6 -452.02, -5.43 -542.08" stroke="#c92a2a" stroke-width="2" fill="none"></path></g></g><mask></mask><g stroke-linecap="round"><g transform="translate(1177.5555698941253 1267.6368250697533) rotate(0 -8.380897446410245 -553.9966973528257)"><path d="M0.19 -1.16 C-2.68 -186.01, -12.16 -922.36, -14.62 -1106.83 M-3.16 -4.26 C-6.64 -188.93, -14.73 -920.18, -16.95 -1103.82" stroke="#c92a2a" stroke-width="2" fill="none"></path></g></g><mask></mask><g stroke-linecap="round" transform="translate(1539.0030747393148 880.4313886581635) rotate(359.4587704537732 57.566130916024804 44.43023527075741)"><path d="M0 0 C0 0, 0 0, 0 0 M0 0 C0 0, 0 0, 0 0 M-1.9 14.97 C3.62 8.93, 5.98 5.38, 13.08 0.31 M-0.39 11.26 C2.5 7.2, 6.62 4.41, 9.55 1.42 M-1.54 23.17 C3.97 17.67, 10.48 10.22, 19.5 0.95 M1.42 25.74 C6.26 14.37, 14.88 8.45, 19.41 1.13 M-0.08 40.36 C9.58 28.42, 18.19 16.39, 29.54 -3.83 M-1.44 38.07 C10.02 26.98, 19.01 18.02, 33.41 -1.24 M-0.07 45.65 C12.75 32.65, 31.14 17.9, 44.14 1.8 M-0.51 49.37 C8.57 38.32, 17.91 28.61, 42.79 -1.01 M3.55 59.66 C8.32 48.41, 24.33 33.65, 49.32 2.97 M0.64 62.37 C18.14 40.97, 37.06 20.87, 51.58 1.58 M1.11 72.71 C13.19 57.33, 27.98 38.99, 60.38 0.6 M0.12 74.02 C19.85 48.75, 44.36 23.86, 65.5 -0.45 M3.28 83.86 C21.85 60.48, 41.75 45.68, 73.52 -2.25 M2.21 86 C23.81 61.06, 48.41 31.01, 75.16 -0.98 M4.52 90.8 C33.72 57.35, 65.47 16.85, 85.49 -1.97 M4.56 92.06 C30.53 60.35, 58.74 33.15, 85.27 0.97 M13.57 94.28 C38.06 58.17, 65.65 32.65, 93.2 -0.07 M14.06 93.87 C41.46 67.55, 65.17 38.51, 93.76 1.12 M29.09 93.48 C39.71 70.58, 61.56 53.67, 105.32 3.22 M26.17 93.85 C50.46 66.65, 71.26 44.8, 105.05 -0.3 M35.12 90.34 C61.75 59.22, 91.91 24.12, 117.31 4.09 M37.89 90.88 C69.58 55.57, 96.69 21.26, 116.52 2 M50.11 91.45 C71.92 69.59, 92.33 40.32, 114.45 11.31 M48.33 91.7 C71.87 62.99, 99.81 33.16, 115.2 14.04 M58.54 90.41 C78.06 65.76, 97.3 39.9, 117.7 21.91 M55.93 92.67 C82.16 67.9, 101.22 40.18, 115.13 23.65 M66.53 94.25 C83.88 70.66, 101.11 57.54, 114.46 33.27 M69.67 91.62 C79.95 81.87, 86.06 69.85, 117.74 36 M81.51 89.74 C91.78 73.91, 105.52 57.72, 118.74 47.19 M78.2 93.64 C89.52 77.58, 104.16 62.51, 115.5 51.09 M87.81 93.83 C100.81 79.48, 110.37 73.82, 118.06 60.98 M89.08 90.89 C101.17 79.52, 107.82 69.53, 116.45 62.3 M98.31 95.99 C104.07 84.82, 107.99 82.57, 112.44 70.6 M101.93 92.44 C106.98 87.58, 109.39 81.11, 114.77 72.99 M111.51 93.14 C111.84 89.44, 113.24 87.73, 114.44 87.91 M110.44 92.89 C110.92 90.62, 113.58 90.01, 115.27 86.66" stroke="#ced4da" stroke-width="1" fill="none"></path><path d="M0.99 0.64 C35.94 -4.8, 70.25 -3.25, 116.64 -2.28 M0.4 -0.34 C38.03 0.7, 74.82 1.68, 113.86 -1.89 M118.08 -1.57 C115.41 30.39, 115.07 71.05, 115.67 91.02 M114.14 1.22 C113.95 23.75, 115.02 44.76, 115.8 89.41 M118.63 88.02 C92.01 86.75, 60.25 91.26, -3.94 89.36 M116.13 88.07 C92.01 91.04, 66.64 90.93, -0.94 89.01 M0.5 87.05 C0.51 60.17, -2.29 43.01, -1.52 -2.91 M-1.69 88.79 C-3.13 66.87, -2.38 46.37, -1.32 1.12" stroke="#000000" stroke-width="2" fill="none"></path></g><g transform="translate(1563.069205655339 888.8616239289199) rotate(359.4587704537732 33.5 36)"><text x="33.5" y="25" font-family="Virgil, Segoe UI Emoji" font-size="27.22849946729339px" fill="#000000" text-anchor="middle" style="white-space: pre;" direction="ltr">FIFO</text><text x="33.5" y="61" font-family="Virgil, Segoe UI Emoji" font-size="27.22849946729339px" fill="#000000" text-anchor="middle" style="white-space: pre;" direction="ltr">01</text></g><g stroke-linecap="round" transform="translate(1539.0030747393148 522.6851451428752) rotate(359.27389701322335 57.566130916024804 43.271185654998476)"><path d="M0 0 C0 0, 0 0, 0 0 M0 0 C0 0, 0 0, 0 0 M1.07 11.59 C3.95 7.44, 8.22 5.88, 12.57 -2.1 M-1.44 11.42 C1.46 10.23, 4.1 7.88, 10.31 1.27 M-1.51 24.37 C5.36 16.86, 10.75 11.37, 23.21 1.08 M-0.93 22.78 C6.35 17.74, 10.65 10.53, 20.4 -0.98 M0.97 37.61 C9.28 25.33, 13.34 14.21, 30.88 0.17 M1.24 37.31 C12.37 26.01, 22.78 11.11, 32.5 1.27 M-0.66 48.12 C12.78 39.75, 19.77 30.51, 38.89 1.1 M-0.04 48.37 C12.27 35.25, 23.75 20.92, 40.8 1.76 M-1.89 62.27 C21.49 38.13, 34.75 18.83, 54.6 -1.16 M-0.04 62.29 C20.39 39.26, 37.58 16.49, 51.7 -1.19 M-2.01 75.18 C23.11 44.63, 46.7 16.01, 65.55 3.25 M-0.79 73.06 C16.43 55.92, 31.1 38.5, 62.82 -0.56 M2.85 81.88 C24.53 64, 41.61 33.43, 75.05 -2.51 M-0.59 86.88 C15.49 64.02, 32.51 45.47, 76.27 1.17 M4.61 93.64 C34.74 55.61, 66.41 20.59, 85.82 -3.64 M4.49 89.91 C37.43 57.43, 67.12 22.01, 85.78 -0.12 M12.32 88.41 C39.47 63.45, 66.68 30.48, 95.63 -3.31 M17.26 92.19 C33.63 71.47, 47.11 54.67, 93.9 -0.43 M23.84 89.22 C53.36 61.25, 77.02 33.56, 104.88 -4.29 M28.61 89.44 C50.15 65.05, 70.36 37.93, 107.2 0.21 M35.94 90.46 C67.32 55.37, 95.76 30.29, 119.62 -1.82 M39.17 90.79 C64.52 58.01, 97.2 23.73, 116.81 0.28 M50.66 94.28 C69.12 66.12, 89.26 39.16, 118.64 12.6 M47.31 90.64 C67.06 69.4, 83.67 49.49, 117.03 14.41 M58.29 89.78 C74.86 67.17, 97.46 45.35, 119.23 22.81 M59.61 93.24 C76.23 69.34, 96.29 46.36, 116.77 24.49 M67.66 88.27 C80.11 80.71, 90.17 61.27, 112.04 36.16 M70.69 91.44 C76.94 78.65, 90.83 66.33, 117.85 37.16 M77.75 90.26 C88.54 77.26, 106.01 61.64, 117.18 51.52 M78.48 91.09 C93.46 75.41, 103.57 64.59, 116.75 47.36 M92 88.79 C100.08 84.89, 106.37 74.49, 119.13 62.41 M92 89.78 C94.33 85.25, 101.42 80.06, 115.04 62.84 M101.26 88.51 C106.77 84.31, 107.87 75.74, 117.8 72.14 M101.93 93.44 C104.24 86.67, 110.86 77.07, 115.99 74.75" stroke="#ced4da" stroke-width="1" fill="none"></path><path d="M1.94 -3.24 C44.59 -2.06, 86.15 -2.64, 116.07 -2.2 M0.78 -1.36 C24.58 0.02, 47.24 -1.49, 116.81 -0.91 M116.22 -3.71 C117.15 34.84, 116.95 66.14, 113.58 87.55 M113.5 0.54 C113.71 17.06, 114.94 37.98, 113.78 87.91 M118.77 85.88 C86.48 89.91, 56.62 86.56, -3.55 86.72 M116.32 87.46 C74.4 86.44, 32.48 85.78, -0.39 87.86 M1.68 82.76 C-1.33 63.34, -1.74 29.3, -2.53 2.74 M-1.91 85.6 C0.3 68.12, 0.14 51.61, 0.28 -0.91" stroke="#000000" stroke-width="2" fill="none"></path></g><g transform="translate(1563.069205655339 529.9563307978747) rotate(359.27389701322335 33.5 36)"><text x="33.5" y="25" font-family="Virgil, Segoe UI Emoji" font-size="27.22849946729339px" fill="#000000" text-anchor="middle" style="white-space: pre;" direction="ltr">FIFO</text><text x="33.5" y="61" font-family="Virgil, Segoe UI Emoji" font-size="27.22849946729339px" fill="#000000" text-anchor="middle" style="white-space: pre;" direction="ltr">29</text></g><g transform="translate(1592.3193570642243 634.7864044142857) rotate(0 5 40)"><text x="0" y="14" font-family="Virgil, Segoe UI Emoji" font-size="15.453994876785174px" fill="#000000" text-anchor="start" style="white-space: pre;" direction="ltr">.</text><text x="0" y="34" font-family="Virgil, Segoe UI Emoji" font-size="15.453994876785174px" fill="#000000" text-anchor="start" style="white-space: pre;" direction="ltr">.</text><text x="0" y="54" font-family="Virgil, Segoe UI Emoji" font-size="15.453994876785174px" fill="#000000" text-anchor="start" style="white-space: pre;" direction="ltr">.</text><text x="0" y="74" font-family="Virgil, Segoe UI Emoji" font-size="15.453994876785174px" fill="#000000" text-anchor="start" style="white-space: pre;" direction="ltr"></text></g><g stroke-linecap="round" transform="translate(1537.7943698158224 747.3969330300092) rotate(359.4587704537732 57.566130916024804 44.43023527075741)"><path d="M0 0 C0 0, 0 0, 0 0 M0 0 C0 0, 0 0, 0 0 M-1.12 14.49 C3.97 9.94, 5.01 2, 9.59 -1.6 M1.08 10.96 C3.8 9.44, 5.77 7.11, 9.91 -0.4 M-0.14 22.33 C6.62 19.98, 12.11 11.78, 23.56 3.25 M1.47 22.23 C6.82 17.4, 9.77 11.42, 21.35 1.67 M-2.05 34.52 C6.52 23.38, 21.15 13.28, 29.53 2.28 M1.38 38.4 C10.49 23.1, 25.04 6.93, 31.92 -1.74 M0.53 50.53 C14.23 30.42, 25.75 18.98, 41.75 0.76 M-0.13 49.19 C12.24 32.07, 27.98 20.34, 44.29 -0.79 M-0.35 57.13 C16.16 46.25, 25.45 32.25, 54.42 2.66 M1.8 59.39 C16.77 40.78, 29.82 25.94, 53.64 -0.32 M0.62 69.6 C15.81 57.34, 34.13 34.73, 63.73 1.83 M0.52 74.72 C15.97 52.44, 31.97 34.73, 65.28 -0.8 M3.82 84.15 C26.64 53.2, 53.39 18.42, 78.29 1.67 M-0.98 85.79 C17 64.78, 38.19 42.62, 74.5 -1.12 M2.94 93.01 C23.54 68.33, 43.96 45.61, 85.48 -1.26 M5.68 92.78 C26.16 69.83, 44.58 47.22, 84.34 0.6 M18.15 90.05 C32.63 75.27, 45.59 52.71, 93.84 2.39 M14.85 90.61 C43.46 57.92, 70.05 27.95, 97.41 0.19 M26.57 91.51 C48 69.66, 58.49 49.76, 107.44 2.38 M26.77 91.23 C58.1 56.77, 89.64 21.38, 105.75 -1.4 M32.43 93.49 C60.97 71.51, 75.85 47.71, 119.58 -2.76 M37.1 92.69 C68.52 59.46, 97.32 24.28, 117.9 -0.11 M46.86 91.12 C68.6 66.49, 94.82 33.92, 118.67 11.74 M46.26 91.87 C65.64 72.36, 83.71 51.28, 116.27 12.19 M54.24 94.19 C72.54 75.88, 91.16 53.26, 112.76 25.8 M57.15 91.63 C76.64 69.31, 99.25 42.14, 115.09 26.16 M70.64 90.79 C78.08 73.48, 93.99 59.43, 119.1 35.81 M67.01 94.07 C85.9 73.15, 106 50.21, 117.39 35.96 M78.13 94.9 C86.59 82.7, 100.59 71.94, 115.04 51.95 M77.23 91.66 C90.23 81.43, 95.97 69.39, 115.37 50.07 M91.19 94.05 C98.84 83.97, 109.66 66.8, 115.67 58.56 M89.14 92.45 C101.6 79.08, 112.85 68.88, 115.43 63.21 M99.09 88.92 C101.71 88.52, 108.21 84.05, 119.59 74.52 M101.85 91.25 C104.24 86.18, 111.72 78.04, 117.45 74.32 M108.9 91.51 C113.63 90.38, 113.22 87.66, 116.8 86.03 M110.62 92.34 C111.89 90.7, 112.84 89.7, 115.56 86.42" stroke="#ced4da" stroke-width="1" fill="none"></path><path d="M-1.7 1.51 C37.86 -0.37, 78.08 -4.88, 115.93 -0.69 M-0.38 -1.27 C37.15 1.3, 77.18 1.02, 116.61 -0.79 M117.98 0.54 C115.65 27.52, 114.49 54.81, 113.14 91.3 M113.48 0.67 C116.17 18.07, 116.98 37.59, 116.88 88.44 M118.99 84.92 C70.62 84.52, 25.28 90.27, 1.99 87.28 M115.94 87.92 C73.91 88.61, 33.7 89.29, 0.25 87.95 M3.96 87.34 C-1.22 55.94, 4.42 24.4, -3.37 -0.13 M-0.4 87.54 C1.96 70.97, -0.07 53.93, -0.64 -0.49" stroke="#000000" stroke-width="2" fill="none"></path></g><g transform="translate(1561.8605007318465 755.8271683007674) rotate(359.4587704537732 33.5 36)"><text x="33.5" y="25" font-family="Virgil, Segoe UI Emoji" font-size="27.22849946729339px" fill="#000000" text-anchor="middle" style="white-space: pre;" direction="ltr">FIFO</text><text x="33.5" y="61" font-family="Virgil, Segoe UI Emoji" font-size="27.22849946729339px" fill="#000000" text-anchor="middle" style="white-space: pre;" direction="ltr">02</text></g><g stroke-linecap="round" transform="translate(1326.3659867032611 628.1058764001659) rotate(269.24944320363574 275.03803864604674 116.58179988439849)"><path d="M-0.91 0.38 C195.34 -3.09, 392.76 -1.94, 550.7 -1.09 M-0.76 0.67 C173.59 3.35, 348.5 2.48, 550.29 -0.74 M551.9 -1.31 C553.73 71.47, 551.2 150.66, 547.33 234.08 M550.54 -1.14 C547.98 62.4, 548.3 126.58, 551.61 232.89 M550.28 231.74 C403.9 229.7, 258.38 228.19, 0.95 233.9 M550.14 233.01 C382.06 231.22, 213.1 230.74, 0.34 232.41 M-2.46 231.03 C-1.58 166.65, -6.75 106.22, -3.23 -1.6 M0.95 233.4 C0.02 177.93, 0.25 119.91, -1.23 -1.48" stroke="#000000" stroke-width="1" fill="none"></path></g><g stroke-linecap="round"><g transform="translate(1820.179616501423 1110.3748665035432) rotate(0 -3.026980230775962 -263.21016928160236)"><path d="M-1.59 0.66 C-2.86 -87.36, -7.94 -439.46, -8.79 -527.08 M2.74 -1.45 C2.5 -89.31, -1.4 -438.01, -3.22 -524.81" stroke="#c92a2a" stroke-width="2" fill="none"></path></g></g><mask></mask><g stroke-linecap="round"><g transform="translate(1742.5250466706484 1058.9893186093864) rotate(0 -8.074647578607255 -264.27275889190906)"><path d="M-2.5 0.56 C-5.11 -86.63, -12.67 -437.04, -14.99 -524.69 M1.34 -1.6 C-1.75 -89.51, -15.5 -442.38, -17.49 -529.11" stroke="#5c940d" stroke-width="2" fill="none"></path></g></g><mask></mask><g stroke-linecap="round"><g transform="translate(888.3004993566783 1245.1003327103845) rotate(0 -2.4498134235818725 -76.65129960158231)"><path d="M0.56 -0.48 C0.18 -25.54, -2.98 -127.66, -3.82 -152.82 M-2.58 -3.21 C-3.09 -27.73, -4.89 -125.99, -5.46 -150.22" stroke="#862e9c" stroke-width="2" fill="none"></path></g></g><mask></mask><g stroke-linecap="round"><g transform="translate(256.75799262448845 1094.6426928907185) rotate(0 757.6178092087426 -5.956482455053447)"><path d="M-0.48 1.1 C252.28 -0.37, 1261.4 -6.32, 1514.06 -8.24 M-4.19 -0.78 C249.69 -3.21, 1266.5 -11.75, 1519.42 -13.01" stroke="#862e9c" stroke-width="2" fill="none"></path></g></g><mask></mask><g stroke-linecap="round"><g transform="translate(1776.2448450587408 1080.9612782873478) rotate(0 -6.264046750238549 -258.517791243791)"><path d="M1.1 -1.9 C-0.94 -88.53, -9.14 -433.52, -11.63 -520.27 M-1.75 3.23 C-4.17 -82.92, -12.58 -429.6, -13.62 -516.93" stroke="#862e9c" stroke-width="2" fill="none"></path></g></g><mask></mask><g stroke-linecap="round"><g transform="translate(1742.370445673433 1057.3276077007686) rotate(0 -688.9414199944006 5.578385397655438)"><path d="M0.45 -0.53 C-229.45 1.83, -1149.23 9.89, -1378.34 12.25 M-2.74 -3.28 C-231.84 -0.51, -1144.23 11.22, -1372.9 14.44" stroke="#5c940d" stroke-width="2" fill="none"></path></g></g><mask></mask><g stroke-linecap="round"><g transform="translate(366.74601764877025 1074.0873904900636) rotate(0 -5.2006611146217665 -265.80698442735655)"><path d="M-0.53 -1.78 C-1.86 -90.41, -8.54 -442.98, -9.87 -531.3 M-4.26 3.43 C-4.59 -85.99, -3.78 -445.11, -4.91 -535.04" stroke="#5c940d" stroke-width="2" fill="none"></path></g></g><mask></mask><g stroke-linecap="round"><g transform="translate(319.3724795077824 975.730354949721) rotate(0 67.84072861805544 -2.2904399016531443)"><path d="M1.01 -3.35 C40.43 2.93, 81.6 1.01, 134.24 -5.1 M1.37 -1.26 C46.85 0.81, 92.02 0.3, 134.67 0.13" stroke="#c92a2a" stroke-width="2" fill="none"></path></g><g transform="translate(319.3724795077824 975.730354949721) rotate(0 67.84072861805544 -2.2904399016531443)"><path d="M107.54 7.16 C113.25 9.91, 120.81 5.31, 133.56 -3.18 M107.9 9.25 C117.6 7.01, 127.05 3.64, 133.99 2.05" stroke="#c92a2a" stroke-width="2" fill="none"></path></g><g transform="translate(319.3724795077824 975.730354949721) rotate(0 67.84072861805544 -2.2904399016531443)"><path d="M107.45 -13.36 C113.41 -4.17, 121 -2.35, 133.56 -3.18 M107.81 -11.27 C117.65 -6.67, 127.13 -3.2, 133.99 2.05" stroke="#c92a2a" stroke-width="2" fill="none"></path></g></g><mask></mask><g stroke-linecap="round"><g transform="translate(249.96693155490675 995.9592423860963) rotate(0 100.96832710676307 -0.509307673845683)"><path d="M-3 -1.78 C74.13 -3.77, 144.86 -1.8, 200.26 1.35 M-1.13 1.56 C66.19 -0.81, 132.84 -2.99, 204.93 -1.6" stroke="#862e9c" stroke-width="2" fill="none"></path></g><g transform="translate(249.96693155490675 995.9592423860963) rotate(0 100.96832710676307 -0.509307673845683)"><path d="M173.33 6.5 C189.21 1.52, 197.85 0.09, 201.63 -0.27 M175.42 10.24 C185.66 6.62, 195 0.81, 206.86 -3.58" stroke="#862e9c" stroke-width="2" fill="none"></path></g><g transform="translate(249.96693155490675 995.9592423860963) rotate(0 100.96832710676307 -0.509307673845683)"><path d="M173.45 -14.02 C189.13 -11.74, 197.73 -5.9, 201.63 -0.27 M175.54 -10.28 C185.46 -7.18, 194.76 -6.27, 206.86 -3.58" stroke="#862e9c" stroke-width="2" fill="none"></path></g></g><mask></mask><g stroke-linecap="round"><g transform="translate(1734.4345704023026 537.8088793547026) rotate(0 -39.18805419436433 1.8210835684453741)"><path d="M-1.99 2.44 C-23.65 0.55, -41.91 -3.06, -76.82 4.07 M1.75 -0.42 C-16.3 -0.62, -36.97 2.32, -80.12 3.22" stroke="#5c940d" stroke-width="2" fill="none"></path></g><g transform="translate(1734.4345704023026 537.8088793547026) rotate(0 -39.18805419436433 1.8210835684453741)"><path d="M-54.32 -5.63 C-62.79 -4.5, -67.9 -5.94, -78.79 4.32 M-50.58 -8.49 C-56.81 -6.12, -65.78 -1.25, -82.1 3.47" stroke="#5c940d" stroke-width="2" fill="none"></path></g><g transform="translate(1734.4345704023026 537.8088793547026) rotate(0 -39.18805419436433 1.8210835684453741)"><path d="M-53.57 14.88 C-62.33 10.64, -67.64 3.84, -78.79 4.32 M-49.83 12.02 C-56.52 9.61, -65.65 9.72, -82.1 3.47" stroke="#5c940d" stroke-width="2" fill="none"></path></g></g><mask></mask><g stroke-linecap="round"><g transform="translate(1762.9698481838395 559.3580186940358) rotate(0 -51.08478206629252 0.453233280636141)"><path d="M2.44 -3.26 C-33.11 -0.23, -71.6 4.15, -103.76 3.23 M-0.42 1.82 C-39.03 3.34, -75.41 4.23, -104.61 4.16" stroke="#862e9c" stroke-width="2" fill="none"></path></g><g transform="translate(1762.9698481838395 559.3580186940358) rotate(0 -51.08478206629252 0.453233280636141)"><path d="M-74.05 -9.54 C-84.72 -4.28, -98.26 1.56, -103.51 1.45 M-76.91 -4.47 C-87.31 -2.63, -95.41 -0.07, -104.36 2.38" stroke="#862e9c" stroke-width="2" fill="none"></path></g><g transform="translate(1762.9698481838395 559.3580186940358) rotate(0 -51.08478206629252 0.453233280636141)"><path d="M-73.91 10.98 C-84.29 9.56, -97.87 8.73, -103.51 1.45 M-76.77 16.05 C-86.97 10.33, -95.12 5.33, -104.36 2.38" stroke="#862e9c" stroke-width="2" fill="none"></path></g></g><mask></mask><g stroke-linecap="round"><g transform="translate(1810.8991731274718 580.7683762799857) rotate(0 -79.58386675657243 4.6654132366541035)"><path d="M-3.26 1.09 C-35.4 0.13, -67.18 6.03, -160.99 9.66 M1.82 -0.33 C-38.07 2.9, -76.87 2.87, -160.06 7.01" stroke="#c92a2a" stroke-width="2" fill="none"></path></g><g transform="translate(1810.8991731274718 580.7683762799857) rotate(0 -79.58386675657243 4.6654132366541035)"><path d="M-135.6 -3.38 C-139.56 -4.95, -143.11 1.94, -162.76 9.75 M-130.53 -4.8 C-139.39 0.06, -147.25 1.11, -161.84 7.1" stroke="#c92a2a" stroke-width="2" fill="none"></path></g><g transform="translate(1810.8991731274718 580.7683762799857) rotate(0 -79.58386675657243 4.6654132366541035)"><path d="M-134.7 17.12 C-138.66 11.13, -142.4 13.59, -162.76 9.75 M-129.63 15.7 C-139.07 15.7, -147.14 11.89, -161.84 7.1" stroke="#c92a2a" stroke-width="2" fill="none"></path></g></g><mask></mask><g stroke-linecap="round"><g transform="translate(1737.2248414807245 767.1752552766243) rotate(0 -38.48754918451198 1.477086839041931)"><path d="M1.09 -1.11 C-22.82 0.8, -37.97 -2.49, -75.42 0.45 M-0.33 -0.68 C-28.36 0.6, -60.32 1.94, -78.06 4.07" stroke="#5c940d" stroke-width="2" fill="none"></path></g><g transform="translate(1737.2248414807245 767.1752552766243) rotate(0 -38.48754918451198 1.477086839041931)"><path d="M-49.8 -9.76 C-60.84 -4.58, -63.23 -5.43, -75.33 1.55 M-51.22 -9.34 C-59.55 -5.2, -71.75 -0.08, -77.98 5.16" stroke="#5c940d" stroke-width="2" fill="none"></path></g><g transform="translate(1737.2248414807245 767.1752552766243) rotate(0 -38.48754918451198 1.477086839041931)"><path d="M-47.99 10.68 C-59.72 10.71, -62.57 4.75, -75.33 1.55 M-49.4 11.1 C-58.35 7.35, -71.25 4.55, -77.98 5.16" stroke="#5c940d" stroke-width="2" fill="none"></path></g></g><mask></mask><g stroke-linecap="round"><g transform="translate(1765.7601192622615 792.68147654421) rotate(0 -54.03302783193385 1.0868911220127302)"><path d="M-1.11 -3.3 C-36.56 2.39, -78.46 4.74, -107.38 5.48 M-0.68 1.93 C-31.2 0.46, -60.26 0.85, -103.76 2.97" stroke="#862e9c" stroke-width="2" fill="none"></path></g><g transform="translate(1765.7601192622615 792.68147654421) rotate(0 -54.03302783193385 1.0868911220127302)"><path d="M-77.12 -11.72 C-84.89 -3.05, -98.94 2.69, -106.29 6.47 M-76.69 -6.49 C-85.52 -5.08, -93.07 -2.06, -102.67 3.96" stroke="#862e9c" stroke-width="2" fill="none"></path></g><g transform="translate(1765.7601192622615 792.68147654421) rotate(0 -54.03302783193385 1.0868911220127302)"><path d="M-76.29 8.79 C-84.02 10.05, -98.38 8.4, -106.29 6.47 M-75.87 14.01 C-85.3 9.7, -93.08 6.99, -102.67 3.96" stroke="#862e9c" stroke-width="2" fill="none"></path></g></g><mask></mask><g stroke-linecap="round"><g transform="translate(1816.6572556520814 813.1025636480949) rotate(0 -79.16569014911943 0.5976853609822683)"><path d="M-3.3 1.33 C-34.12 -2.74, -67.74 -1.69, -157.75 3.12 M1.93 -1.97 C-62.81 -1.33, -126.01 3.09, -160.26 3.17" stroke="#c92a2a" stroke-width="2" fill="none"></path></g><g transform="translate(1816.6572556520814 813.1025636480949) rotate(0 -79.16569014911943 0.5976853609822683)"><path d="M-135.66 -6.52 C-137.29 -8.3, -141.76 -5.71, -156.76 2.33 M-130.43 -9.82 C-143.05 -5.51, -154.12 1.67, -159.27 2.38" stroke="#c92a2a" stroke-width="2" fill="none"></path></g><g transform="translate(1816.6572556520814 813.1025636480949) rotate(0 -79.16569014911943 0.5976853609822683)"><path d="M-135.1 13.99 C-136.97 7.73, -141.56 5.83, -156.76 2.33 M-129.87 10.69 C-142.64 6.98, -153.93 6.14, -159.27 2.38" stroke="#c92a2a" stroke-width="2" fill="none"></path></g></g><mask></mask><g stroke-linecap="round"><g transform="translate(1735.2463005165964 898.7482293910048) rotate(0 -38.830273013252395 3.4286920714744156)"><path d="M1.33 1.1 C-28.29 2.42, -53.68 4.15, -78.99 6.61 M-1.97 0.25 C-23.96 2.44, -43.24 4.18, -78.94 4.16" stroke="#5c940d" stroke-width="2" fill="none"></path></g><g transform="translate(1735.2463005165964 898.7482293910048) rotate(0 -38.830273013252395 3.4286920714744156)"><path d="M-49.58 -5.42 C-62.84 -0.76, -71.83 3.5, -79.78 7.79 M-52.88 -6.27 C-60.71 -2.87, -65.78 1.07, -79.73 5.34" stroke="#5c940d" stroke-width="2" fill="none"></path></g><g transform="translate(1735.2463005165964 898.7482293910048) rotate(0 -38.830273013252395 3.4286920714744156)"><path d="M-49.27 15.1 C-62.52 13.04, -71.61 10.59, -79.78 7.79 M-52.57 14.25 C-60.35 11.84, -65.51 9.96, -79.73 5.34" stroke="#5c940d" stroke-width="2" fill="none"></path></g></g><mask></mask><g stroke-linecap="round"><g transform="translate(1770.7064716725754 925.2437211406536) rotate(0 -54.74814394111036 -0.39920512501180383)"><path d="M1.1 -2.7 C-27.71 -1.51, -57.38 0.44, -108.15 0.33 M0.25 -1.78 C-29.61 -0.84, -58.43 -2.47, -110.6 1.91" stroke="#862e9c" stroke-width="2" fill="none"></path></g><g transform="translate(1770.7064716725754 925.2437211406536) rotate(0 -54.74814394111036 -0.39920512501180383)"><path d="M-81.99 -12.78 C-88.04 -9.15, -94.77 -4.21, -106.96 1.25 M-82.84 -11.85 C-90.09 -6.33, -96.5 -5.03, -109.41 2.82" stroke="#862e9c" stroke-width="2" fill="none"></path></g><g transform="translate(1770.7064716725754 925.2437211406536) rotate(0 -54.74814394111036 -0.39920512501180383)"><path d="M-80.73 7.71 C-86.79 5.77, -93.86 5.13, -106.96 1.25 M-81.58 8.63 C-89.56 8.68, -96.3 4.53, -109.41 2.82" stroke="#862e9c" stroke-width="2" fill="none"></path></g></g><mask></mask><g stroke-linecap="round"><g transform="translate(1818.6357966162077 947.6433492086667) rotate(0 -84.31689783514821 1.1871882474338236)"><path d="M-2.7 2.74 C-38.66 4.41, -73.12 4.56, -166.86 -1.37 M-1.78 0.09 C-64.77 1.41, -132.53 1.6, -165.28 0.13" stroke="#c92a2a" stroke-width="2" fill="none"></path></g><g transform="translate(1818.6357966162077 947.6433492086667) rotate(0 -84.31689783514821 1.1871882474338236)"><path d="M-139.56 -6.73 C-145.49 -3.73, -149.99 -1.5, -165.94 -1.24 M-138.63 -9.38 C-147.21 -4.6, -160.37 -0.6, -164.37 0.26" stroke="#c92a2a" stroke-width="2" fill="none"></path></g><g transform="translate(1818.6357966162077 947.6433492086667) rotate(0 -84.31689783514821 1.1871882474338236)"><path d="M-140.04 13.79 C-146.01 12.33, -150.4 10.09, -165.94 -1.24 M-139.12 11.14 C-147.1 7.78, -160.06 3.65, -164.37 0.26" stroke="#c92a2a" stroke-width="2" fill="none"></path></g></g><mask></mask><g stroke-linecap="round"><g transform="translate(1498.7695704174084 1320.906910880221) rotate(0 53.74694233877858 -1.17712235962847)"><path d="M-0.84 3.64 C39.09 -3.98, 83.33 -7.29, 108.33 -5.53 M-0.79 1.19 C33.72 -1.55, 66.44 -3.21, 107.98 -2.37" stroke="#c92a2a" stroke-width="4" fill="none"></path></g></g><mask></mask><g stroke-linecap="round"><g transform="translate(1504.761218518467 1354.502396049092) rotate(0 53.322381030230986 0.83032082205591)"><path d="M3.64 -0.66 C23.74 4.53, 46.24 1.41, 102.3 1.17 M1.19 0.92 C37.7 1.99, 74.21 1.69, 105.46 2.31" stroke="#5c940d" stroke-width="4" fill="none"></path></g></g><mask></mask><g stroke-linecap="round"><g transform="translate(1504.5421841980924 1387.8216331018916) rotate(0 54.246277638024594 1.0600523659695682)"><path d="M-0.66 -1.37 C45.62 -4.76, 84.04 -3.22, 108.01 5.16 M0.92 0.13 C38.49 -1.18, 75.53 0.4, 109.15 3.25" stroke="#862e9c" stroke-width="4" fill="none"></path></g></g><mask></mask><g transform="translate(1644.9516736624091 1380.1665741425672) rotate(0 61 13)"><text x="0" y="18" font-family="Virgil, Segoe UI Emoji" font-size="20px" fill="#862e9c" text-anchor="start" style="white-space: pre;" direction="ltr">Address bus</text></g><g transform="translate(1647.9194851085986 1346.5313777524257) rotate(0 57 13)"><text x="0" y="18" font-family="Virgil, Segoe UI Emoji" font-size="20px" fill="#862e9c" text-anchor="start" style="white-space: pre;" direction="ltr">Control bus</text></g><g transform="translate(1653.8551080009756 1310.9176403981578) rotate(0 49 13)"><text x="0" y="18" font-family="Virgil, Segoe UI Emoji" font-size="20px" fill="#862e9c" text-anchor="start" style="white-space: pre;" direction="ltr">Data bus</text></g><g stroke-linecap="round" transform="translate(616.4013573064994 299.8700168848136) rotate(0 155.66225771843438 46.001077415929785)"><path d="M0.36 -2.54 C82.9 5.96, 166.96 3.26, 313.02 1.31 M0.11 -0.28 C96.33 2.28, 190.95 1.43, 311.93 -1.35 M308.42 -2.53 C315.89 21.36, 309.77 49.91, 307.5 90.11 M312.44 0.28 C310.05 23.67, 310.31 44.03, 309.87 90.25 M312.62 90.91 C238.3 89.24, 168.16 89.21, 1.99 94.54 M311.38 90.96 C200.53 93.33, 90.74 95.19, 0.42 91.8 M0.43 94.42 C-1.86 59.23, -0.58 29.57, -3.93 -1.54 M1.82 91.6 C0.55 71.23, -1.99 50.55, -0.89 0.14" stroke="#000000" stroke-width="2" fill="none"></path></g><g stroke-linecap="round" transform="translate(610.9787692687432 126.74768252378635) rotate(0 158.86818697834406 46.001077415929785)"><path d="M-2.5 0.12 C127.48 0.84, 250.75 1.11, 319.03 0.18 M-0.28 0.93 C108.34 -0.16, 215.65 0.26, 316.4 -0.39 M315.21 2.74 C313.37 33.33, 316.9 69.6, 315.85 89.68 M318.02 -0.91 C317.93 25.12, 316.03 50.07, 315.99 90.55 M316.66 89.74 C220.45 92.33, 123.4 95.98, 2.5 93.49 M316.71 91.06 C249.15 91.27, 182.95 92.58, -0.2 92.41 M2.42 89.42 C-3.94 66.7, -3.36 40.08, -1.54 -3.09 M-0.41 93.64 C0.97 58.06, 0.78 25.04, 0.14 -0.57" stroke="#000000" stroke-width="2" fill="none"></path></g><g stroke-linecap="round"><g transform="translate(1001.2067371236999 950.5993536108876) rotate(0 -5.920863706792488 -373.03104058147187)"><path d="M0.07 0.88 C-2.4 -151.27, -4.69 -300.47, -12.04 -746.94 M0.53 0.11 C-3.42 -189.69, -6.26 -379.39, -12.37 -746.79" stroke="#c92a2a" stroke-width="2" fill="none"></path></g></g><mask></mask><g stroke-linecap="round"><g transform="translate(1160.9172710083121 156.17855291484057) rotate(0 -115.55238003943771 0.718756187008097)"><path d="M1.68 -1.34 C-46.8 3.8, -97.41 3.71, -232.79 0.69 M0.21 -0.77 C-64.08 -0.94, -130.06 2.47, -231.85 -0.8" stroke="#c92a2a" stroke-width="2" fill="none"></path></g><g transform="translate(1160.9172710083121 156.17855291484057) rotate(0 -115.55238003943771 0.718756187008097)"><path d="M-201.5 -12.15 C-207.09 -6.37, -215.2 -4.52, -233.72 -0.5 M-203.24 -11.48 C-210.46 -9.65, -219.81 -3.04, -232.61 -2.25" stroke="#c92a2a" stroke-width="2" fill="none"></path></g><g transform="translate(1160.9172710083121 156.17855291484057) rotate(0 -115.55238003943771 0.718756187008097)"><path d="M-201.85 8.36 C-207.38 9.82, -215.42 7.33, -233.72 -0.5 M-203.59 9.04 C-210.99 5.12, -220.24 5.98, -232.61 -2.25" stroke="#c92a2a" stroke-width="2" fill="none"></path></g></g><mask></mask><g stroke-linecap="round"><g transform="translate(991.0391835954006 197.48052199129233) rotate(0 -29.868935765093738 0.8773820610235816)"><path d="M-1.58 2.38 C-15.63 1.02, -33.31 -0.91, -57.08 -0.15 M-0.91 0.84 C-22.9 -0.18, -40.03 -0.15, -58.83 -0.62" stroke="#c92a2a" stroke-width="2" fill="none"></path></g><g transform="translate(991.0391835954006 197.48052199129233) rotate(0 -29.868935765093738 0.8773820610235816)"><path d="M-33.26 -7.52 C-38.01 -6.55, -46.5 -5.85, -58.53 -1.41 M-32.59 -9.05 C-43.49 -6.99, -49.55 -3.8, -60.29 -1.88" stroke="#c92a2a" stroke-width="2" fill="none"></path></g><g transform="translate(991.0391835954006 197.48052199129233) rotate(0 -29.868935765093738 0.8773820610235816)"><path d="M-33.65 12.1 C-38.5 7.1, -46.86 1.82, -58.53 -1.41 M-32.98 10.57 C-43.79 5.44, -49.71 1.46, -60.29 -1.88" stroke="#c92a2a" stroke-width="2" fill="none"></path></g></g><mask></mask><g stroke-linecap="round"><g transform="translate(1259.0933924117571 795.1068439174487) rotate(0 -1.4317173714142655 -215.0831884737712)"><path d="M1.22 0.94 C-3.13 -152.43, -5.28 -306.36, -3.39 -430.45 M0.43 -0.97 C-1.78 -134.55, -2.82 -271.86, -3.64 -431.11" stroke="#862e9c" stroke-width="2" fill="none"></path></g></g><mask></mask><g stroke-linecap="round"><g transform="translate(1339.1139037773219 573.549640353594) rotate(0 -1.123543006654245 -128.07051226447265)"><path d="M1.48 0.21 C1.24 -90.58, -1.51 -178.82, -2.7 -254.42 M-1.53 -0.45 C1.96 -80.2, -2.33 -160.22, -3.73 -256.35" stroke="#000000" stroke-width="2" fill="none"></path></g></g><mask></mask><g stroke-linecap="round"><g transform="translate(1330.9959513516742 321.04687839634744) rotate(0 -204.47222269512326 -0.12285393915283294)"><path d="M0.14 0.89 C-107.34 2.42, -213.06 3.91, -407.76 1 M-0.31 1.1 C-104.34 -4.89, -208.55 -3.15, -409.09 -0.21" stroke="#000000" stroke-width="2" fill="none"></path></g><g transform="translate(1330.9959513516742 321.04687839634744) rotate(0 -204.47222269512326 -0.12285393915283294)"><path d="M-380.78 -9.24 C-390.09 -7.52, -396.32 -2.41, -408.53 0.29 M-381.6 -8.87 C-388.85 -10.13, -396.5 -4.59, -410.92 -1.9" stroke="#000000" stroke-width="2" fill="none"></path></g><g transform="translate(1330.9959513516742 321.04687839634744) rotate(0 -204.47222269512326 -0.12285393915283294)"><path d="M-380.5 11.28 C-390.13 7.65, -396.42 7.42, -408.53 0.29 M-381.32 11.65 C-388.82 5.16, -396.53 5.47, -410.92 -1.9" stroke="#000000" stroke-width="2" fill="none"></path></g></g><mask></mask><g stroke-linecap="round"><g transform="translate(1421.4760367260324 366.1285469858658) rotate(0 -246.62377004249572 -1.8284668582760446)"><path d="M0.66 -0.77 C-177.19 -1, -353.54 -1.38, -493.16 -3.34 M0.81 -0.31 C-169.35 -2.54, -336.96 -3.67, -494.06 -2.63" stroke="#862e9c" stroke-width="2" fill="none"></path></g><g transform="translate(1421.4760367260324 366.1285469858658) rotate(0 -246.62377004249572 -1.8284668582760446)"><path d="M-464.28 -14.83 C-475.62 -10, -483.4 -4.94, -493.57 -4.44 M-463.92 -13.72 C-477.18 -10.85, -483.99 -7.88, -495.75 -2.69" stroke="#862e9c" stroke-width="2" fill="none"></path></g><g transform="translate(1421.4760367260324 366.1285469858658) rotate(0 -246.62377004249572 -1.8284668582760446)"><path d="M-464.23 5.69 C-475.78 3.14, -483.58 0.83, -493.57 -4.44 M-463.86 6.8 C-476.76 2.65, -483.59 -1.4, -495.75 -2.69" stroke="#862e9c" stroke-width="2" fill="none"></path></g></g><mask></mask><g stroke-linecap="round"><g transform="translate(670.9615730598716 535.2349793817607) rotate(0 1.0397670020884107 10.29030093808501)"><path d="M3.92 2.67 C-1.62 9.97, 0.16 12.55, -1.84 18.95 M-1.43 0.42 C-1.92 7.64, -1.94 15.37, -0.72 20.16" stroke="#000000" stroke-width="2" fill="none"></path></g></g><mask></mask><g stroke-linecap="round"><g transform="translate(669.88471495863 555.7002797165787) rotate(0 16.010934702371287 -5.2678719981342965)"><path d="M-2.98 1.47 C16.62 -2.52, 28.94 -8.51, 35 -10.45 M-1.44 -0.25 C11.63 -3.13, 25.51 -9.5, 34.63 -12.01" stroke="#000000" stroke-width="2" fill="none"></path></g></g><mask></mask><g stroke-linecap="round"><g transform="translate(670.4232754937575 535.2349793817607) rotate(0 19.44764256344388 3.9297747775481184)"><path d="M-0.9 1.61 C16.86 2.1, 26.18 10.77, 39.09 6.27 M-0.55 -1.47 C11.01 3.22, 25.74 8.41, 39.8 9.33" stroke="#000000" stroke-width="2" fill="none"></path></g></g><mask></mask><g stroke-linecap="round"><g transform="translate(669.7658045329017 765.830303975772) rotate(0 -0.8274702880858626 11.178734534204295)"><path d="M-1.35 -1.96 C-2.55 9.08, 1.17 10.12, -0.51 24.31 M-1.34 0.8 C0.63 3.28, 0.03 10.33, -1.24 21.3" stroke="#000000" stroke-width="2" fill="none"></path></g></g><mask></mask><g stroke-linecap="round"><g transform="translate(668.68894643166 786.2956043105896) rotate(0 18.718582025979686 -6.253236405435246)"><path d="M-1.96 -1.61 C10.86 0.38, 13.92 -3.35, 39.39 -13.68 M0.8 1.17 C8.91 -1.76, 21.53 -5.27, 36.38 -10.85" stroke="#000000" stroke-width="2" fill="none"></path></g></g><mask></mask><g stroke-linecap="round"><g transform="translate(669.2275069667876 765.830303975772) rotate(0 18.811957506995896 4.219467014688803)"><path d="M-1.61 2.71 C17.82 1.78, 31.84 11.68, 36.41 10.02 M1.17 -1.77 C11.76 2.77, 22.4 5.69, 39.24 9.92" stroke="#000000" stroke-width="2" fill="none"></path></g></g><mask></mask><g stroke-linecap="round"><g transform="translate(668.4834328289389 944.0799708267564) rotate(0 -0.6158085294412672 10.928286290511778)"><path d="M1.74 3.14 C1.81 6.03, -5.14 8.68, -2.28 19.74 M0.2 1.32 C0.24 5.22, -1.47 11.13, -1.11 20.54" stroke="#000000" stroke-width="2" fill="none"></path></g></g><mask></mask><g stroke-linecap="round"><g transform="translate(667.4065747276973 964.5452711615749) rotate(0 18.46813378228717 -4.255701294052642)"><path d="M3.14 2.7 C8.58 -6.46, 13.69 -5.37, 34.82 -11.15 M1.32 1.15 C7.27 -2.66, 15.39 -4.41, 35.62 -11.22" stroke="#000000" stroke-width="2" fill="none"></path></g></g><mask></mask><g stroke-linecap="round"><g transform="translate(667.9451352628248 944.0799708267564) rotate(0 20.043648750122884 4.217298170136019)"><path d="M2.7 0.66 C7.07 0.13, 21.31 3.76, 38.93 7.76 M1.15 -1.19 C13.98 1.49, 28.78 6.34, 38.87 9.62" stroke="#000000" stroke-width="2" fill="none"></path></g></g><mask></mask><g stroke-linecap="round" transform="translate(1280.042277208665 576.0827929698235) rotate(0 59 41)"><path d="M2.13 1.91 C43.82 3.93, 88.02 -1.23, 120.36 3.54 M-1.18 -0.51 C29.76 0.85, 59.97 -1.24, 119.12 0.96 M121.64 -2.07 C117.43 23.96, 116.34 49.03, 121.22 80.67 M119.25 -0.18 C118.83 18.96, 117.36 42.94, 119.61 82.11 M120.74 80.41 C91.23 82.11, 64.46 81.94, -2.2 83.85 M119.48 80.69 C79.52 81.92, 43.68 83.9, 0.66 80.4 M-0.16 78.02 C-2.8 49.4, 2.16 20.36, 1.83 0 M0.48 80.44 C-0.37 63.38, 0.97 48.73, 0.69 1.45" stroke="#000000" stroke-width="2" fill="none"></path></g><g transform="translate(1287.042277208665 581.0827929698235) rotate(0 52 36)"><text x="52" y="25" font-family="Virgil, Segoe UI Emoji" font-size="28px" fill="#000000" text-anchor="middle" style="white-space: pre;" direction="ltr">k</text><text x="52" y="61" font-family="Virgil, Segoe UI Emoji" font-size="28px" fill="#000000" text-anchor="middle" style="white-space: pre;" direction="ltr">counter</text></g><g stroke-linecap="round" transform="translate(1210.1290073394857 796.9758586235344) rotate(0 51 59)"><path d="M2.86 -2.43 C27.03 0.08, 53.7 1.53, 104.98 -3.39 M-1.36 -0.99 C27.95 0.16, 54.33 1.22, 103.38 1.04 M101.12 -2.14 C106.08 36.99, 104.51 79.75, 101.94 121.12 M102.87 -0.67 C101.01 27.9, 102.01 56.28, 103.43 116.62 M105.78 117.21 C75.58 114.02, 39.38 116.32, 3.32 114.65 M103.58 116.73 C62.13 117.53, 21.71 118.95, -0.85 117.33 M3.52 116.26 C-3.87 82.08, 0.57 48.29, -2.36 1.58 M0.99 117.19 C1.73 81.46, 1.22 46.24, 0.95 -0.32" stroke="#000000" stroke-width="2" fill="none"></path></g><g transform="translate(1217.6290073394857 819.9758586235344) rotate(0 43.5 36)"><text x="43.5" y="25" font-family="Virgil, Segoe UI Emoji" font-size="28px" fill="#000000" text-anchor="middle" style="white-space: pre;" direction="ltr">scalar</text><text x="43.5" y="61" font-family="Virgil, Segoe UI Emoji" font-size="28px" fill="#000000" text-anchor="middle" style="white-space: pre;" direction="ltr">split</text></g><g stroke-linecap="round"><g transform="translate(1265.2709906099362 911.1069402763233) rotate(0 1.2093197725406526 90.3160375585071)"><path d="M-2.75 1.24 C3.91 39, 4.28 85.32, 3.69 179.41 M-0.65 1.22 C3.26 54.46, 6.67 108.29, 4.48 175.83" stroke="#862e9c" stroke-width="2" fill="none"></path></g></g><mask></mask><g transform="translate(1224.9410760799465 1373.5899297045212) rotate(0 22.5 18)"><text x="0" y="25" font-family="Virgil, Segoe UI Emoji" font-size="28px" fill="#000000" text-anchor="start" style="white-space: pre;" direction="ltr">0x1</text></g><g stroke-linecap="round"><g transform="translate(317.9777232688566 789.5894245039021) rotate(0 68.22729481182978 -1.7938286378332577)"><path d="M2.43 1.28 C41.71 -5.91, 84.24 -5.34, 135.26 -4.14 M1.19 0.79 C28.41 -0.29, 55 -1.45, 133.89 -2.69" stroke="#c92a2a" stroke-width="2" fill="none"></path></g><g transform="translate(317.9777232688566 789.5894245039021) rotate(0 68.22729481182978 -1.7938286378332577)"><path d="M108.32 9.38 C114.61 1.55, 124.28 -0.64, 133.79 -5.02 M107.08 8.89 C111.97 7.14, 116.38 4.13, 132.41 -3.57" stroke="#c92a2a" stroke-width="2" fill="none"></path></g><g transform="translate(317.9777232688566 789.5894245039021) rotate(0 68.22729481182978 -1.7938286378332577)"><path d="M107.93 -11.14 C114.66 -12.7, 124.45 -8.6, 133.79 -5.02 M106.7 -11.63 C112.05 -9.14, 116.55 -7.92, 132.41 -3.57" stroke="#c92a2a" stroke-width="2" fill="none"></path></g></g><mask></mask><g stroke-linecap="round"><g transform="translate(248.5721753159828 809.8183119402779) rotate(0 101.56231268385125 -1.36995227261923)"><path d="M1.14 0.28 C74.17 -0.87, 151.76 -2.17, 201.12 -3.19 M0.7 0.45 C81.62 -2.88, 161.13 -3.36, 202.42 -0.93" stroke="#862e9c" stroke-width="2" fill="none"></path></g><g transform="translate(248.5721753159828 809.8183119402779) rotate(0 101.56231268385125 -1.36995227261923)"><path d="M175.21 8.79 C181.78 6.01, 193.63 0.95, 200.08 -4.67 M174.72 8.97 C186.65 3.56, 197.11 -0.76, 201.54 -2.15" stroke="#862e9c" stroke-width="2" fill="none"></path></g><g transform="translate(248.5721753159828 809.8183119402779) rotate(0 101.56231268385125 -1.36995227261923)"><path d="M175.83 -11.72 C182.57 -6.76, 194.19 -4.1, 200.08 -4.67 M175.34 -11.54 C187.25 -8.85, 197.47 -5.07, 201.54 -2.15" stroke="#862e9c" stroke-width="2" fill="none"></path></g></g><mask></mask><g stroke-linecap="round"><g transform="translate(320.5424666767858 565.1743763102177) rotate(0 62.78461982660838 1.2864657128229737)"><path d="M0.26 3.12 C42.97 2.28, 86.79 0.84, 122.41 -0.17 M1.22 -0.55 C34.02 0.8, 67.07 1.3, 125.31 1.64" stroke="#c92a2a" stroke-width="2" fill="none"></path></g><g transform="translate(320.5424666767858 565.1743763102177) rotate(0 62.78461982660838 1.2864657128229737)"><path d="M97.3 14.8 C107.65 11.02, 119.24 5.93, 123.91 0.71 M98.26 11.13 C105.45 9.41, 112.84 7.01, 126.81 2.52" stroke="#c92a2a" stroke-width="2" fill="none"></path></g><g transform="translate(320.5424666767858 565.1743763102177) rotate(0 62.78461982660838 1.2864657128229737)"><path d="M97.46 -5.72 C108.01 -2.58, 119.55 -0.74, 123.91 0.71 M98.42 -9.39 C105.48 -5.6, 112.82 -2.49, 126.81 2.52" stroke="#c92a2a" stroke-width="2" fill="none"></path></g></g><mask></mask><g stroke-linecap="round"><g transform="translate(248.5721753159828 587.9680071545208) rotate(0 97.28240315300582 0.2584912071708345)"><path d="M3.12 1.2 C73.28 3.06, 141.91 -1.54, 193.31 -1.1 M-0.55 0.78 C54.27 -1.75, 108.45 -0.78, 195.11 1.59" stroke="#862e9c" stroke-width="2" fill="none"></path></g><g transform="translate(248.5721753159828 587.9680071545208) rotate(0 97.28240315300582 0.2584912071708345)"><path d="M169.8 12.37 C179.84 10.92, 188.44 2.8, 194.18 0.34 M166.13 11.94 C174.97 8.74, 183.15 7, 195.99 3.03" stroke="#862e9c" stroke-width="2" fill="none"></path></g><g transform="translate(248.5721753159828 587.9680071545208) rotate(0 97.28240315300582 0.2584912071708345)"><path d="M170.3 -8.15 C180.31 -2.17, 188.73 -2.86, 194.18 0.34 M166.63 -8.57 C175.29 -6.08, 183.34 -2.12, 195.99 3.03" stroke="#862e9c" stroke-width="2" fill="none"></path></g></g><mask></mask><g stroke-linecap="round"><g transform="translate(558.5670901688636 545.3074374698417) rotate(0 55.526856773048166 1.013623642726202)"><path d="M0.8 2.86 C42.37 -4.22, 88.39 2.18, 111.44 -0.1 M-2 -0.7 C25.86 -0.95, 48.03 -1.07, 113.05 1.07" stroke="#c92a2a" stroke-width="2" fill="none"></path></g></g><mask></mask><g stroke-linecap="round"><g transform="translate(566.2613203926476 778.6990875912743) rotate(0 53.52014466506262 -1.9191116350330049)"><path d="M2.3 -1.44 C41.17 -3.9, 77.71 -2.6, 106.23 -3.96 M0.81 -0.68 C25.49 1.32, 48.83 -2.54, 102.97 0.12" stroke="#c92a2a" stroke-width="2" fill="none"></path></g></g><mask></mask><g stroke-linecap="round"><g transform="translate(573.9555506164315 954.3840110343308) rotate(0 46.71370570177942 -0.46792144058395024)"><path d="M-3.15 1.92 C34.77 4.4, 72.2 3.09, 95.35 -4.01 M-0.6 0.31 C31.14 1.19, 65.14 0.5, 96.58 -1.61" stroke="#c92a2a" stroke-width="2" fill="none"></path></g></g><mask></mask><g stroke-linecap="round"><g transform="translate(707.322207828679 954.3840110343313) rotate(0 162.5314532998998 -0.7003350050558765)"><path d="M0.4 -1.35 C91.5 -2.15, 176.52 1.89, 324.41 -3.41 M0.95 -0.32 C71.47 3.38, 144.91 2.38, 324.66 -1.27" stroke="#c92a2a" stroke-width="2" fill="none"></path></g></g><mask></mask><g stroke-linecap="round"><g transform="translate(707.322207828679 773.5696007754191) rotate(0 158.83401530368138 -0.8394238204193698)"><path d="M-0.83 -1.87 C63.98 -0.96, 129.13 -3.51, 317.48 -1.89 M-0.31 0.17 C123.71 1.41, 244.72 0.42, 318.5 -0.21" stroke="#c92a2a" stroke-width="2" fill="none"></path></g></g><mask></mask><g stroke-linecap="round"><g transform="translate(700.9103493088596 545.3074374698417) rotate(0 161.68022664565666 -0.8159148351076055)"><path d="M1.69 -1.68 C104.35 1.6, 205.46 -0.67, 323.69 -1.26 M-0.33 0.43 C89.93 1.6, 181.92 1.04, 323.32 -2.61" stroke="#c92a2a" stroke-width="2" fill="none"></path></g></g><mask></mask><g stroke-linecap="round"><g transform="translate(359.79947605445795 541.4603223579497) rotate(0 40.36214815405765 -2.1241076499784413)"><path d="M-1.11 -2.06 C30.05 -3.5, 53.94 -2.71, 80.12 -3.14 M1.7 -0.29 C29.03 -2.82, 56.27 -1.76, 81.84 -3.96" stroke="#5c940d" stroke-width="2" fill="none"></path></g><g transform="translate(359.79947605445795 541.4603223579497) rotate(0 40.36214815405765 -2.1241076499784413)"><path d="M53.14 5.77 C67.08 1.62, 73.79 -0.57, 81.17 -4.53 M55.95 7.54 C64.45 2.55, 72.91 0.36, 82.88 -5.35" stroke="#5c940d" stroke-width="2" fill="none"></path></g><g transform="translate(359.79947605445795 541.4603223579497) rotate(0 40.36214815405765 -2.1241076499784413)"><path d="M52.01 -14.72 C66.39 -12.26, 73.46 -7.83, 81.17 -4.53 M54.82 -12.95 C63.85 -10.72, 72.7 -5.68, 82.88 -5.35" stroke="#5c940d" stroke-width="2" fill="none"></path></g></g><mask></mask><g stroke-linecap="round"><g transform="translate(361.08184775842074 763.3106271437073) rotate(0 44.94127115875199 -0.516549201199382)"><path d="M1.17 1.53 C21.68 -3.9, 38.81 -2.86, 89.94 -1.35 M-0.05 -1.89 C33.38 2.09, 62.64 -0.34, 87.92 -0.13" stroke="#5c940d" stroke-width="2" fill="none"></path></g><g transform="translate(361.08184775842074 763.3106271437073) rotate(0 44.94127115875199 -0.516549201199382)"><path d="M61.02 11.99 C68.43 5.27, 72.35 4.29, 89.37 -0.19 M59.8 8.57 C71.72 8.13, 79.4 2.38, 87.36 1.02" stroke="#5c940d" stroke-width="2" fill="none"></path></g><g transform="translate(361.08184775842074 763.3106271437073) rotate(0 44.94127115875199 -0.516549201199382)"><path d="M60.78 -8.53 C68.01 -10.76, 71.98 -7.26, 89.37 -0.19 M59.56 -11.95 C71.41 -5.05, 79.16 -3.48, 87.36 1.02" stroke="#5c940d" stroke-width="2" fill="none"></path></g></g><mask></mask><g stroke-linecap="round"><g transform="translate(361.08184775842074 953.1016393303671) rotate(0 46.90190885569655 -1.9635885880843489)"><path d="M2.51 -2.03 C39.11 1.13, 70.51 -3.06, 95.27 -3.27 M-1.47 -1.53 C35.39 0.13, 70.72 -1.14, 95.03 -0.81" stroke="#5c940d" stroke-width="2" fill="none"></path></g><g transform="translate(361.08184775842074 953.1016393303671) rotate(0 46.90190885569655 -1.9635885880843489)"><path d="M69.36 7.43 C80 6.51, 85.58 -1.23, 96.69 -2.81 M65.38 7.93 C77.82 5.35, 88.57 0.69, 96.45 -0.35" stroke="#5c940d" stroke-width="2" fill="none"></path></g><g transform="translate(361.08184775842074 953.1016393303671) rotate(0 46.90190885569655 -1.9635885880843489)"><path d="M69.34 -13.09 C80.29 -5.92, 85.87 -5.55, 96.69 -2.81 M65.37 -12.59 C77.45 -7.47, 88.21 -4.41, 96.45 -0.35" stroke="#5c940d" stroke-width="2" fill="none"></path></g></g><mask></mask><g stroke-linecap="round"><g transform="translate(609.9211302639569 172.13977624857716) rotate(0 -193.00673843222614 0.39034225684000035)"><path d="M-1.13 -1.27 C-112.32 2.72, -223.49 1.51, -387.08 -1.6 M1.07 -0.29 C-128.95 3.18, -259.62 3.36, -385.13 -0.31" stroke="#000000" stroke-width="2" fill="none"></path></g></g><mask></mask><g stroke-linecap="round"><g transform="translate(223.92724737081835 172.13977624857716) rotate(0 0.7882643787922348 380.494169963571)"><path d="M1.59 0.95 C-0.5 302.26, -0.34 607.21, 0.89 760.45 M-0.17 0.54 C2.1 219.4, 1.82 438.91, 1.61 760.43" stroke="#000000" stroke-width="2" fill="none"></path></g></g><mask></mask><g stroke-linecap="round"><g transform="translate(610.4445984009262 338.848097763886) rotate(0 -193.92763414663477 1.7331600649077359)"><path d="M-1.14 1.29 C-142.46 -0.14, -288.6 4.47, -387.18 1.88 M-0.67 -0.66 C-140.15 -2.17, -280.31 0.42, -387.13 4.56" stroke="#000000" stroke-width="2" fill="none"></path></g></g><mask></mask><g stroke-linecap="round"><g transform="translate(224.45071550778766 931.303824995216) rotate(0 116.30878227011743 -1.498882137351302)"><path d="M-0.31 2.94 C93.74 -6.64, 182.34 -8.72, 233.02 -2.06 M-0.4 1.6 C52.47 -4.95, 107.76 -5.33, 231.8 -3.33" stroke="#000000" stroke-width="2" fill="none"></path></g><g transform="translate(224.45071550778766 931.303824995216) rotate(0 116.30878227011743 -1.498882137351302)"><path d="M203.12 10.09 C216.47 0.08, 223.28 -4.52, 232.87 -1.22 M203.02 8.51 C208.37 3, 216.45 1.3, 231.43 -2.71" stroke="#000000" stroke-width="2" fill="none"></path></g><g transform="translate(224.45071550778766 931.303824995216) rotate(0 116.30878227011743 -1.498882137351302)"><path d="M203.35 -10.43 C216.26 -12.27, 222.97 -8.7, 232.87 -1.22 M203.25 -12.01 C208.14 -12.74, 216.17 -9.67, 231.43 -2.71" stroke="#000000" stroke-width="2" fill="none"></path></g></g><mask></mask><g stroke-linecap="round"><g transform="translate(224.45071550778766 746.6422996244119) rotate(0 111.57983472656281 -2.368441500243648)"><path d="M-3 -1.74 C60.07 -0.71, 117.51 -2.55, 226.16 -1.51 M-0.65 0.54 C85.97 -6.29, 170.89 -4.64, 222.9 -5.28" stroke="#000000" stroke-width="2" fill="none"></path></g><g transform="translate(224.45071550778766 746.6422996244119) rotate(0 111.57983472656281 -2.368441500243648)"><path d="M191.28 3.09 C203.8 5.14, 209.87 1.45, 226.41 -2.56 M194 5.74 C205.45 -1.32, 214.94 -1.7, 222.64 -6.94" stroke="#000000" stroke-width="2" fill="none"></path></g><g transform="translate(224.45071550778766 746.6422996244119) rotate(0 111.57983472656281 -2.368441500243648)"><path d="M191.19 -17.43 C203.98 -9.99, 210.08 -8.3, 226.41 -2.56 M193.91 -14.78 C205.49 -13.93, 215.01 -6.38, 222.64 -6.94" stroke="#000000" stroke-width="2" fill="none"></path></g></g><mask></mask><g stroke-linecap="round"><g transform="translate(224.45071550778675 511.96827779901514) rotate(0 110.13673795889844 0.6672157766216174)"><path d="M1.15 -0.21 C60.81 5.26, 123.76 0.72, 220.23 0.79 M-0.35 -1.16 C56.4 2.23, 116.47 1.33, 220.63 -0.9" stroke="#000000" stroke-width="2" fill="none"></path></g><g transform="translate(224.45071550778675 511.96827779901514) rotate(0 110.13673795889844 0.6672157766216174)"><path d="M193.96 9.64 C198.46 10.22, 206.88 2.75, 220.24 2.97 M192.23 8.55 C198.28 8.05, 208.25 4.97, 220.7 1.01" stroke="#000000" stroke-width="2" fill="none"></path></g><g transform="translate(224.45071550778675 511.96827779901514) rotate(0 110.13673795889844 0.6672157766216174)"><path d="M193.58 -10.88 C198.49 -4.47, 207.01 -6.12, 220.24 2.97 M191.84 -11.97 C198.21 -7.09, 208.28 -4.8, 220.7 1.01" stroke="#000000" stroke-width="2" fill="none"></path></g></g><mask></mask><g transform="translate(680.705794153756 156.13156918589266) rotate(0 81.5 18)"><text x="0" y="25" font-family="Virgil, Segoe UI Emoji" font-size="28px" fill="#000000" text-anchor="start" style="white-space: pre;" direction="ltr">Point adder</text></g><g transform="translate(651.2112449625847 329.2517492210218) rotate(0 130.5 18)"><text x="0" y="25" font-family="Virgil, Segoe UI Emoji" font-size="28px" fill="#000000" text-anchor="start" style="white-space: pre;" direction="ltr">Scalar propagation</text></g><g stroke-linecap="round" transform="translate(803.8805921915873 723.2310257719378) rotate(89.03032730876501 259.68261762315296 30.776920895134026)"><path d="M-1.01 1.37 C118.34 -2.37, 237.71 -0.11, 519.93 -0.01 M-0.56 -0.51 C199.85 1.62, 399.86 1.96, 519.18 0.2 M520.51 0.24 C519.19 16.7, 517.97 27.94, 519.25 63.46 M520.64 -0.01 C520.41 22.84, 517.25 47.38, 520.23 62.06 M519.41 61.9 C336.07 63.46, 151.49 64.06, -1.12 61.05 M518.94 60.9 C324.61 64.69, 130.71 65.05, 0.43 61.93 M-3.78 58 C-2.05 40.17, -1.79 14.19, 0.48 -0.18 M-1.4 59.8 C1.32 50.11, 0.11 36.76, 0.92 -0.81" stroke="#000000" stroke-width="2" fill="none"></path></g><g transform="translate(961.2872202017033 722.0494655786479) rotate(89.36349400567072 100 18)"><text x="0" y="25" font-family="Virgil, Segoe UI Emoji" font-size="28px" fill="#000000" text-anchor="start" style="white-space: pre;" direction="ltr">k s_km values</text></g><g stroke-linecap="round"><g transform="translate(1133.9834989907768 530.6828770201009) rotate(0 -0.005464478994326782 9.75903448254644)"><path d="M-1.27 -2.66 C2.8 4.11, -0.63 17.4, 1.48 17.68 M-1.49 -0.8 C0.4 5.62, -2.15 12.47, -0.86 22.17" stroke="#000000" stroke-width="2" fill="none"></path></g></g><mask></mask><g stroke-linecap="round"><g transform="translate(1132.906640889535 551.1481773549185) rotate(0 17.29888197432183 -4.45939165621553)"><path d="M-2.66 3.72 C5.94 -1.7, 21.2 -2.15, 32.76 -12.64 M-0.8 0.67 C13.68 -4.99, 28.38 -6.61, 37.25 -11.69" stroke="#000000" stroke-width="2" fill="none"></path></g></g><mask></mask><g stroke-linecap="round"><g transform="translate(1133.4452014246644 530.6828770201009) rotate(0 19.53268192109863 4.805394507528945)"><path d="M3.72 -3.54 C14.63 6.23, 30.79 4.37, 37.45 13.15 M0.67 0.05 C7.32 3.93, 18.7 6.12, 38.39 8.75" stroke="#000000" stroke-width="2" fill="none"></path></g></g><mask></mask><g stroke-linecap="round"><g transform="translate(1132.7877304638068 761.2782016141118) rotate(0 -1.434236947712634 10.688985503062895)"><path d="M-3.54 1.08 C1.27 9.31, -4.76 9.98, 0.76 18.06 M0.05 -1.31 C0.64 6.04, 0.03 9.1, -3.63 22.69" stroke="#000000" stroke-width="2" fill="none"></path></g></g><mask></mask><g stroke-linecap="round"><g transform="translate(1131.7108723625652 781.7435019489294) rotate(0 18.228832994838285 -6.085350806708675)"><path d="M1.08 2.12 C11.85 -5.33, 15.32 -1.73, 33.14 -14.29 M-1.31 1.3 C10.59 -1.79, 18.29 -7.38, 37.77 -9.94" stroke="#000000" stroke-width="2" fill="none"></path></g></g><mask></mask><g stroke-linecap="round"><g transform="translate(1132.2494328976927 761.2782016141118) rotate(0 20.723371063892046 6.159670432613893)"><path d="M2.12 3.64 C11.73 2.48, 33.22 4.89, 35.79 8.63 M1.3 1.29 C14.11 3.54, 24.4 9.02, 40.15 11.03" stroke="#000000" stroke-width="2" fill="none"></path></g></g><mask></mask><g stroke-linecap="round"><g transform="translate(1131.5053587598459 939.5278684650966) rotate(0 -0.06220510103048582 9.577241418667427)"><path d="M3.64 -3.33 C-1.67 7.38, -3.74 5.92, -3.76 22.35 M1.29 1.17 C-1.31 4.91, 0.1 14.12, -1.36 22.48" stroke="#000000" stroke-width="2" fill="none"></path></g></g><mask></mask><g stroke-linecap="round"><g transform="translate(1130.4285006586042 959.9931687999151) rotate(0 17.117088910442817 -6.844405186246377)"><path d="M-3.33 -1.33 C14.6 -7.3, 20.5 -9.66, 37.43 -11.2 M1.17 -0.38 C6.84 -1.43, 18.15 -4.97, 37.56 -13.31" stroke="#000000" stroke-width="2" fill="none"></path></g></g><mask></mask><g stroke-linecap="round"><g transform="translate(1130.96706119373 939.5278684650966) rotate(0 18.776469338286915 3.8172863885329207)"><path d="M-1.33 2.92 C10.94 1.27, 25.96 9.22, 38.88 7.61 M-0.38 -1.48 C15.96 4.65, 29.22 8.49, 36.78 9.11" stroke="#000000" stroke-width="2" fill="none"></path></g></g><mask></mask><g stroke-linecap="round"><g transform="translate(1090.8370881138208 542.0377068121461) rotate(0 21.142466124197654 -0.629338645376265)"><path d="M2.92 -2.94 C14.58 -1.81, 36.45 -0.6, 42.27 1.31 M-1.48 1.68 C17.72 0.5, 34.18 -2.76, 43.76 -2.76" stroke="#c92a2a" stroke-width="2" fill="none"></path></g></g><mask></mask><g stroke-linecap="round"><g transform="translate(1093.40183152175 772.8646135256504) rotate(0 19.06171956556227 -0.20268138870596886)"><path d="M-2.94 -2.98 C6.74 0.78, 16.79 -3.18, 41.07 2.58 M1.68 1.37 C14.59 2.05, 25.59 -0.55, 36.99 0.49" stroke="#c92a2a" stroke-width="2" fill="none"></path></g></g><mask></mask><g stroke-linecap="round"><g transform="translate(1097.248946633642 949.831908672672) rotate(0 17.10933661480658 -0.8050474256122016)"><path d="M-2.98 -1.61 C10.56 0.27, 15.83 2.42, 37.2 1.06 M1.37 0.8 C11.22 -2.94, 18.35 -2.78, 35.11 -3.1" stroke="#c92a2a" stroke-width="2" fill="none"></path></g></g><mask></mask><g stroke-linecap="round" transform="translate(1293.7245701323018 936.6631789172511) rotate(0 51.77140209985919 50.72551518875116)"><path d="M13.59 15.62 C18.73 8.83, 29.36 2.41, 37.51 0.07 C45.66 -2.27, 53.83 -0.72, 62.49 1.59 C71.14 3.9, 82.92 8.14, 89.44 13.95 C95.96 19.75, 99.72 28.54, 101.61 36.4 C103.5 44.26, 102.91 52.65, 100.8 61.1 C98.69 69.55, 94.63 80.5, 88.94 87.11 C83.25 93.72, 74.66 98.32, 66.66 100.75 C58.66 103.17, 49.72 104.08, 40.95 101.66 C32.18 99.24, 20.52 92.49, 14.03 86.23 C7.54 79.96, 4.39 71.85, 2.02 64.06 C-0.35 56.26, -2.5 48.25, -0.19 39.46 C2.12 30.66, 12.03 16.35, 15.89 11.29 C19.76 6.23, 21.8 8.04, 22.99 9.12 M21.46 11.28 C27.65 6.63, 36.49 2.58, 44.76 1.03 C53.03 -0.52, 63.25 -1.19, 71.07 1.98 C78.89 5.15, 85.94 12.49, 91.69 20.04 C97.44 27.58, 104.12 38.95, 105.57 47.27 C107.02 55.6, 104 62.48, 100.4 69.98 C96.8 77.47, 91.12 86.8, 83.97 92.26 C76.81 97.73, 65.97 101.82, 57.48 102.77 C48.98 103.73, 40.69 102.16, 32.98 97.97 C25.27 93.78, 16.99 84.9, 11.23 77.64 C5.46 70.38, -0.11 62.45, -1.58 54.4 C-3.06 46.36, -1.31 36.4, 2.39 29.37 C6.09 22.34, 17.74 15.09, 20.6 12.21 C23.47 9.33, 19.19 12.25, 19.58 12.07" stroke="#000000" stroke-width="2" fill="none"></path></g><g transform="translate(1316.995972232161 969.3886941060023) rotate(0 28.5 18)"><text x="28.5" y="25" font-family="Virgil, Segoe UI Emoji" font-size="28px" fill="#000000" text-anchor="middle" style="white-space: pre;" direction="ltr">FSM</text></g><g stroke-linecap="round"><g transform="translate(889.2989865481586 1272.0819122605794) rotate(269.9617350133283 -1.3970137384185364 8.962945429392448)"><path d="M-0.09 3.31 C-1.76 3.73, 1.07 9.04, -4.79 19.85 M2 -1.93 C-1.16 2.9, 1.3 8.67, -1.59 19.03" stroke="#000000" stroke-width="2" fill="none"></path></g></g><mask></mask><g stroke-linecap="round"><g transform="translate(874.8902088418554 1272.2196638615023) rotate(269.9617350133283 16.50279292116784 -8.00008996564452)"><path d="M3.31 -1.39 C10.9 -1.74, 23.33 -9.97, 34.93 -15 M-1.93 -1 C11.89 -2.98, 26.59 -8.49, 34.11 -11.76" stroke="#000000" stroke-width="2" fill="none"></path></g></g><mask></mask><g stroke-linecap="round"><g transform="translate(866.2151632712967 1255.9627292908922) rotate(269.9617350133283 18.46825736628125 5.757300060758098)"><path d="M-1.39 -0.87 C12.72 2.04, 18.98 3.91, 35.09 12.97 M-1 -1.45 C12.87 3.54, 22.29 4.45, 38.33 12.01" stroke="#000000" stroke-width="2" fill="none"></path></g></g><mask></mask><g stroke-linecap="round"><g transform="translate(1174.7154226736757 1289.2150326060314) rotate(269.9617350133283 0.6163024654215405 10.658776494458607)"><path d="M3.49 1.96 C3.27 8.13, -1.78 14.59, -2.26 17.53 M1.49 -1.06 C-0.82 9.33, -1.89 17.85, -1.17 22.38" stroke="#000000" stroke-width="2" fill="none"></path></g></g><mask></mask><g stroke-linecap="round"><g transform="translate(1160.3066449673724 1289.3527842069548) rotate(269.9617350133283 18.198623986233997 -4.611291102948826)"><path d="M1.96 3.9 C12.5 -4.56, 23.62 -7.57, 32.61 -7.98 M-1.06 0.04 C11.69 -4.04, 22.69 -6.15, 37.45 -13.12" stroke="#000000" stroke-width="2" fill="none"></path></g></g><mask></mask><g stroke-linecap="round"><g transform="translate(1151.6315993968137 1273.0958496363442) rotate(269.9617350133283 21.077484755378464 6.187740580694481)"><path d="M3.9 1.82 C15.15 5.72, 31.04 4.32, 42.11 9.91 M0.04 1.26 C13.27 5.65, 27.77 8.81, 36.96 11.12" stroke="#000000" stroke-width="2" fill="none"></path></g></g><mask></mask><g stroke-linecap="round"><g transform="translate(1174.670279599367 1301.0823015318451) rotate(0 0.751989560289303 44.69374597018009)"><path d="M-0.89 0.81 C-1.36 33.06, -1.22 68.33, 2.04 90.32 M-0.93 -0.93 C3.2 32.95, 3 62.73, 1.96 90.02" stroke="#c92a2a" stroke-width="2" fill="none"></path></g></g><mask></mask><g stroke-linecap="round"><g transform="translate(888.0837700963175 1326.6703827374745) rotate(0 0.7646354800090194 -23.725662264234188)"><path d="M-0.5 -1.42 C-0.91 -17.91, -0.93 -35.09, 2.95 -43.24 M1.9 -1.97 C0.37 -9.83, -0.83 -21.92, -1.42 -46.03" stroke="#862e9c" stroke-width="2" fill="none"></path></g></g><mask></mask><g stroke-linecap="round"><g transform="translate(1345.6446433988558 1039.6634602951517) rotate(0 -1.3976245772263383 9.560799857754205)"><path d="M-3.51 -1.01 C2.23 7.27, -3.66 10.63, -2.43 15.85 M-1.2 0.92 C1.61 3.28, -0.44 9.79, 0.72 20.13" stroke="#5c940d" stroke-width="2" fill="none"></path></g></g><mask></mask><g stroke-linecap="round"><g transform="translate(1060.2119011289642 1060.6481215788845) rotate(0 0.6705955176114458 -21.238841136529118)"><path d="M0.27 3.27 C3.14 -16.17, 2.34 -35.71, 1.87 -43.9 M-1 0.53 C-0.69 -9.77, -1.38 -21.61, -0.09 -45.75" stroke="#5c940d" stroke-width="2" fill="none"></path></g></g><mask></mask><g transform="translate(10 10) rotate(0 313.5 23)"><text x="0" y="32" font-family="Virgil, Segoe UI Emoji" font-size="36px" fill="#000000" text-anchor="start" style="white-space: pre;" direction="ltr">Architecture : Detailed View - MSM</text></g><g transform="translate(1897.7646882502377 323.88830850944987) rotate(0 661.5 322)"><text x="0" y="32" font-family="Virgil, Segoe UI Emoji" font-size="36px" fill="#000000" text-anchor="start" style="white-space: pre;" direction="ltr">Some considerations:</text><text x="0" y="78" font-family="Virgil, Segoe UI Emoji" font-size="36px" fill="#000000" text-anchor="start" style="white-space: pre;" direction="ltr">    - The write_op signal is independent from the FSM. Once a point is</text><text x="0" y="124" font-family="Virgil, Segoe UI Emoji" font-size="36px" fill="#000000" text-anchor="start" style="white-space: pre;" direction="ltr">      processed, the broadcasted K in the scalar propagation works </text><text x="0" y="170" font-family="Virgil, Segoe UI Emoji" font-size="36px" fill="#000000" text-anchor="start" style="white-space: pre;" direction="ltr">      as the write signal.</text><text x="0" y="216" font-family="Virgil, Segoe UI Emoji" font-size="36px" fill="#000000" text-anchor="start" style="white-space: pre;" direction="ltr">    - The 0x1 value connected to the input corresponds to the 3rd</text><text x="0" y="262" font-family="Virgil, Segoe UI Emoji" font-size="36px" fill="#000000" text-anchor="start" style="white-space: pre;" direction="ltr">      coordinate of the point.</text><text x="0" y="308" font-family="Virgil, Segoe UI Emoji" font-size="36px" fill="#000000" text-anchor="start" style="white-space: pre;" direction="ltr">    - The k-counter works as a way to enumerate each window. For every</text><text x="0" y="354" font-family="Virgil, Segoe UI Emoji" font-size="36px" fill="#000000" text-anchor="start" style="white-space: pre;" direction="ltr">      iteration the counter goes up by 1 value and rounds at K.</text><text x="0" y="400" font-family="Virgil, Segoe UI Emoji" font-size="36px" fill="#000000" text-anchor="start" style="white-space: pre;" direction="ltr">      (Doubting if this is the correct thing to do)</text><text x="0" y="446" font-family="Virgil, Segoe UI Emoji" font-size="36px" fill="#000000" text-anchor="start" style="white-space: pre;" direction="ltr">    - For loop 1, the 0x0 bucket of each window is used as a "garbage </text><text x="0" y="492" font-family="Virgil, Segoe UI Emoji" font-size="36px" fill="#000000" text-anchor="start" style="white-space: pre;" direction="ltr">      bucket".</text><text x="0" y="538" font-family="Virgil, Segoe UI Emoji" font-size="36px" fill="#000000" text-anchor="start" style="white-space: pre;" direction="ltr">    - The s_km registers are used for loop 2.</text><text x="0" y="584" font-family="Virgil, Segoe UI Emoji" font-size="36px" fill="#000000" text-anchor="start" style="white-space: pre;" direction="ltr">    - In loop 2, we're only using one port to read from memory (Port B). </text><text x="0" y="630" font-family="Virgil, Segoe UI Emoji" font-size="36px" fill="#000000" text-anchor="start" style="white-space: pre;" direction="ltr">      Port A is still dedicated to write operations from PADD</text></g><g stroke-linecap="round"><g transform="translate(1452.2960611702692 1054.4268426928638) rotate(0 -4.5903295723258 -342.20076250498255)"><path d="M-1.48 -0.6 C-6.81 -231.85, -11.2 -462.56, -9.21 -683.1 M0.52 0.09 C-3.94 -228.89, -7.32 -458.98, -8.02 -684.49" stroke="#5c940d" stroke-width="2" fill="none"></path></g></g><mask></mask><g stroke-linecap="round"><g transform="translate(1466.2496641054722 141.29570849910078) rotate(178.9435862671302 -1.293619205934533 10.7942074805203)"><path d="M-3 -1.91 C-2.1 3.85, -4.79 6.47, -0.3 23.5 M0.8 -0.66 C1.06 7.75, -3.01 13.94, -3.4 20.29" stroke="#000000" stroke-width="2" fill="none"></path></g></g><mask></mask><g stroke-linecap="round"><g transform="translate(1427.9912469155033 153.0914011751829) rotate(178.9435862671302 18.33405497229569 -5.1648967218354755)"><path d="M-1.91 -1.39 C8.18 -5.79, 15 -3.01, 38.58 -8.91 M-0.66 1.42 C14.57 -6.66, 27.55 -10.53, 35.37 -11.75" stroke="#000000" stroke-width="2" fill="none"></path></g></g><mask></mask><g stroke-linecap="round"><g transform="translate(1424.4910887393198 149.67552618536547) rotate(178.9435862671302 19.893444910247126 6.794307838709756)"><path d="M-1.39 -0.55 C5.97 0.59, 21.2 8.01, 41.18 14.14 M1.42 0.19 C9.3 2, 21.02 5.4, 38.34 10.55" stroke="#000000" stroke-width="2" fill="none"></path></g></g><mask></mask><g stroke-linecap="round"><g transform="translate(1164.8354356624714 156.33044184216806) rotate(0 128.31079881314417 -2.165204470495894)"><path d="M-2.68 -0.78 C89.75 -0.26, 174.88 -0.39, 259.3 -4.43 M0.31 0.21 C104.11 -5.2, 205.17 -5.96, 259.28 -2.24" stroke="#c92a2a" stroke-width="2" fill="none"></path></g></g><mask></mask><g stroke-linecap="round"><g transform="translate(989.8854194712039 200.0679458899849) rotate(0 169.3739714320891 -2.0842684900023016)"><path d="M0.59 -1.07 C131.12 -4.68, 260.23 -1.25, 337.23 -3.91 M0.46 -0.3 C114.69 0.11, 230.04 -2.69, 338.29 -3.89" stroke="#c92a2a" stroke-width="2" fill="none"></path></g></g><mask></mask><g stroke-linecap="round"><g transform="translate(1326.9214800749678 195.7799552970614) rotate(0 0.6782127451151609 -19.71733727351284)"><path d="M-0.23 -3.08 C0.32 -11.49, -0.01 -21.2, -0.37 -38.45 M1.73 -0.98 C1.07 -9.12, -1.31 -21.19, 0.93 -37.65" stroke="#c92a2a" stroke-width="2" fill="none"></path></g></g><mask></mask><g stroke-linecap="round"><g transform="translate(1465.85237528568 154.61524560499902) rotate(0 32.52731778507632 0.18542034575921207)"><path d="M-3.34 -0.04 C27.96 0.45, 51.84 -1.57, 68.39 -1.41 M-0.33 0.2 C24.91 0.79, 48.55 -1.11, 67.49 1.79" stroke="#c92a2a" stroke-width="2" fill="none"></path></g></g><mask></mask><g transform="translate(1543.8938040768826 135.25446065632195) rotate(0 120.5 18)"><text x="0" y="25" font-family="Virgil, Segoe UI Emoji" font-size="28px" fill="#000000" text-anchor="start" style="white-space: pre;" direction="ltr">0x0 (3x377 bits)</text></g><g stroke-linecap="round"><g transform="translate(1462.02489084631 354.04830547357597) rotate(178.9435862671302 0.1350566310411523 8.725404980376652)"><path d="M2.56 -2.03 C1.75 2.76, 1.15 15.09, -2.29 17.1 M-1.83 -0.02 C-1.01 6.56, 0.72 16.69, -1.45 19.49" stroke="#000000" stroke-width="2" fill="none"></path></g></g><mask></mask><g stroke-linecap="round"><g transform="translate(1423.766473656341 365.84399814965764) rotate(178.9435862671302 16.265252472152042 -4.315104407142144)"><path d="M-2.03 2.1 C9.74 -2.38, 29.21 -8.57, 32.18 -8.61 M-0.02 -0.64 C13.18 -1.98, 30 -7.67, 34.57 -10.73" stroke="#000000" stroke-width="2" fill="none"></path></g></g><mask></mask><g stroke-linecap="round"><g transform="translate(1420.2663154801567 362.42812315984065) rotate(178.9435862671302 20.4193037241439 5.684072132738038)"><path d="M2.1 -2.85 C16.24 7.99, 28.07 3.9, 41.48 14.22 M-0.64 -1.17 C14.65 4.66, 26.43 5.33, 39.35 10.24" stroke="#000000" stroke-width="2" fill="none"></path></g></g><mask></mask><g stroke-linecap="round"><g transform="translate(1464.2003963822708 360.50705763079714) rotate(0 35.30047085171145 1.124897914447729)"><path d="M-2.85 2.07 C29.16 -0.55, 46.64 2.6, 73.45 2.22 M-1.17 1.88 C15.72 1.33, 27.44 1.38, 69.48 0" stroke="#862e9c" stroke-width="2" fill="none"></path></g></g><mask></mask><g transform="translate(1539.6690308177194 348.00705763079714) rotate(0 85.5 18)"><text x="0" y="25" font-family="Virgil, Segoe UI Emoji" font-size="28px" fill="#000000" text-anchor="start" style="white-space: pre;" direction="ltr">0x0 (c bits)</text></g><g stroke-linecap="round"><g transform="translate(1445.5900740675015 357.1928409205343) rotate(0 -0.9753098985478346 -98.04892199443793)"><path d="M-1.97 -3.74 C-0.83 -71.3, 1.34 -146.49, 0.49 -192.48 M-1.87 1.06 C-3.62 -55.3, -4.34 -112.86, 1.19 -197.16" stroke="#5c940d" stroke-width="2" fill="none"></path></g></g><mask></mask></svg>