<svg version="1.1" xmlns="http://www.w3.org/2000/svg" viewBox="0 0 3038.0302333325444 1473.09763542965" width="9114.090699997632" height="4419.29290628895">
  <!-- svg-source:excalidraw -->
  
  <defs>
    <style class="style-fonts">
      @font-face {
        font-family: "Virgil";
        src: url("https://excalidraw.com/Virgil.woff2");
      }
      @font-face {
        font-family: "Cascadia";
        src: url("https://excalidraw.com/Cascadia.woff2");
      }
    </style>
  </defs>
  <rect x="0" y="0" width="3038.0302333325444" height="1473.09763542965" fill="#ffffff"></rect><g stroke-linecap="round"><g transform="translate(589.1184284433916 362.41061587297827) rotate(0 -2.5770099346644884 519.3946249144719)"><path d="M-1.15 -1.3 C-6.26 234.66, -6.29 465.97, -3.4 1040.09 M0.18 -0.58 C-3.12 365.56, -3.76 732.17, -4.12 1039.86" stroke="#c92a2a" stroke-width="4" fill="none"></path></g></g><mask></mask><g stroke-linecap="round"><g transform="translate(227.36886435356894 849.9738399872522) rotate(0 2.550121677870834 175.13818386002572)"><path d="M0.4 2.38 C-0.16 114.28, 0.32 230.3, 5.3 350.47 M-0.2 -0.2 C3.02 84.17, 2.74 165.84, 2.98 349.75" stroke="#000000" stroke-width="1" fill="none"></path></g></g><mask></mask><g stroke-linecap="round"><g transform="translate(232.9020529173656 1206.7011925403617) rotate(0 47.47091226823807 -25.841885305281266)"><path d="M3.66 2.81 C21.71 -10.59, 45.32 -21.91, 95.24 -54.49 M-0.3 1.63 C33.69 -16.71, 62.82 -34.73, 94.12 -52.98" stroke="#000000" stroke-width="1" fill="none"></path></g></g><mask></mask><g stroke-linecap="round"><g transform="translate(328.90590078804826 1155.5516014617197) rotate(0 -1.4680395110489712 -118.28917652831706)"><path d="M2.35 -0.86 C-0.01 -51.34, -0.26 -104.54, -5.29 -236.89 M1.36 1.65 C-0.32 -54.08, -2.09 -109.94, -4.02 -238.23" stroke="#5c940d" stroke-width="1" fill="none"></path></g></g><mask></mask><g stroke-linecap="round"><g transform="translate(224.24596827328878 851.0148053473472) rotate(0 51.87649947272865 35.265283866036725)"><path d="M-1.03 1.55 C34.75 22.71, 66.07 40.18, 104.78 67.15 M1.97 -0.25 C29.48 16.72, 57.03 37.13, 103.18 70.78" stroke="#000000" stroke-width="1" fill="none"></path></g></g><mask></mask><g stroke-linecap="round"><g transform="translate(688.0220943650334 1331.5530237812814) rotate(0 -3.0550629165497867 -434.4559578314347)"><path d="M0.62 0.28 C-5.59 -340.61, -8.97 -680.24, -5.06 -869.19 M-0.1 0.05 C-7.38 -248.29, -8.3 -495.38, -3.61 -868.64" stroke="#862e9c" stroke-width="4" fill="none"></path></g></g><mask></mask><g stroke-linecap="round"><g transform="translate(146.80609944315574 1026.751297160647) rotate(0 38.683507150692094 -2.7564407885720357)"><path d="M2.07 -0.76 C19.16 -0.52, 40.58 -3.19, 78.66 -0.93 M-1.52 -1.88 C30.55 -2.46, 63.92 -2.69, 78.88 -4.77" stroke="#5c940d" stroke-width="4" fill="none"></path></g></g><mask></mask><g stroke-linecap="round"><g transform="translate(329.6928175738732 938.3625685739503) rotate(0 84.10115855234886 2.1791518643976815)"><path d="M-0.76 -2.56 C57.43 -3.54, 112.43 -0.2, 170.08 7.08 M-1.88 -1.04 C47.26 4.18, 96.64 3.96, 166.25 4.43" stroke="#5c940d" stroke-width="4" fill="none"></path></g></g><mask></mask><g stroke-linecap="round"><g transform="translate(329.4344599838281 960.5683282968316) rotate(0 84.10254145088817 1.5338123090168665)"><path d="M-2.56 0.91 C50.1 1.02, 105.33 5.89, 170.76 2.64 M-1.04 -0.69 C51.82 4.85, 101.8 4.49, 168.11 1.62" stroke="#5c940d" stroke-width="4" fill="none"></path></g></g><mask></mask><g stroke-linecap="round"><g transform="translate(325.49987605470096 983.3889150857635) rotate(0 83.00821166533262 1.5360971885686467)"><path d="M0.91 -2.88 C31.57 1.61, 67.63 7.2, 91.04 3.23 M-0.69 0.75 C21.21 1.24, 40.39 3.57, 90.02 2.12 M87.71 5.95 C120.21 4, 148.27 0.37, 166.71 2.02 M92.68 2.7 C113.39 1.29, 136.96 2.88, 166.34 5.03" stroke="#5c940d" stroke-width="4" fill="none"></path></g></g><mask></mask><g stroke-linecap="round"><g transform="translate(329.2891876306952 1011.4449674313696) rotate(0 82.91314415681387 1.9321078742807458)"><path d="M-2.88 -0.62 C25.08 3.68, 55.34 0.75, 91.8 -0.06 M0.75 0.75 C18.44 0.66, 38.96 0.33, 90.69 4.48 M94.52 3.39 C114.4 4.69, 133.54 4.4, 165.69 3.18 M91.26 2.17 C117.47 2.29, 146.19 1.76, 168.71 1.37" stroke="#5c940d" stroke-width="4" fill="none"></path></g></g><mask></mask><g stroke-linecap="round"><g transform="translate(331.9282530077635 1095.6019625507797) rotate(0 83.12200907292993 2.405236012294381)"><path d="M-0.62 -0.6 C24.88 5.96, 42.73 2.98, 88.51 -0.79 M0.75 -0.38 C22.09 1.33, 43.84 -0.06, 93.05 3.04 M91.95 3.01 C109.74 -1.76, 127.38 0.8, 166.86 5.6 M90.74 1.71 C116.58 3.51, 140.9 5.18, 165.05 4.97" stroke="#5c940d" stroke-width="4" fill="none"></path></g></g><mask></mask><g stroke-linecap="round"><g transform="translate(332.7151697935883 1120.7832996971879) rotate(0 84.33527017059953 1.8433150822202151)"><path d="M-0.6 3.26 C33.43 0.74, 59.28 -0.83, 87.78 0.89 M-0.38 -0.58 C25.61 -1.42, 47.79 2.4, 91.61 1.75 M91.58 3.2 C103.27 2.73, 121.18 2.92, 169.27 4.39 M90.27 3.09 C118.67 3.16, 147.15 1.93, 168.65 3.63" stroke="#5c940d" stroke-width="4" fill="none"></path></g></g><mask></mask><g stroke-linecap="round"><g transform="translate(333.50208657941334 1138.882385771169) rotate(0 83.74372511404783 2.370415949892049)"><path d="M3.26 3.94 C20.36 1.21, 38.69 -2.13, 89.46 1.6 M-0.58 1.28 C29.38 0.5, 63.29 2.42, 90.32 1.06 M91.77 -0.68 C119.61 1.89, 147.95 5.54, 168.07 5.42 M91.65 3.24 C112.59 5.86, 132.83 5.86, 167.31 3.95" stroke="#5c940d" stroke-width="4" fill="none"></path></g></g><mask></mask><g transform="translate(120.00135576191451 1260.9897538244204) rotate(0 160 54)"><text x="160" y="25" font-family="Virgil, Segoe UI Emoji" font-size="27.83114129525902px" fill="#000000" text-anchor="middle" style="white-space: pre;" direction="ltr">Demul 1-k determines</text><text x="160" y="61" font-family="Virgil, Segoe UI Emoji" font-size="27.83114129525902px" fill="#000000" text-anchor="middle" style="white-space: pre;" direction="ltr">which window is going to</text><text x="160" y="97" font-family="Virgil, Segoe UI Emoji" font-size="27.83114129525902px" fill="#000000" text-anchor="middle" style="white-space: pre;" direction="ltr">be written</text></g><g transform="translate(415.9455760392025 1017.2519331243643) rotate(0 8 54)"><text x="0" y="25" font-family="Virgil, Segoe UI Emoji" font-size="27.83114129525902px" fill="#5c940d" text-anchor="start" style="white-space: pre;" direction="ltr">.</text><text x="0" y="61" font-family="Virgil, Segoe UI Emoji" font-size="27.83114129525902px" fill="#5c940d" text-anchor="start" style="white-space: pre;" direction="ltr">.</text><text x="0" y="97" font-family="Virgil, Segoe UI Emoji" font-size="27.83114129525902px" fill="#5c940d" text-anchor="start" style="white-space: pre;" direction="ltr"></text></g><g stroke-linecap="round" transform="translate(877.0810113713133 1300.828202739749) rotate(359.4587704537732 80.1065561672632 61.827207780102526)"><path d="M0 0 C0 0, 0 0, 0 0 M0 0 C0 0, 0 0, 0 0 M1.21 12.95 C0.79 7.72, 5.82 1.97, 11.17 -2.05 M-0.49 12.5 C4.06 6.99, 6.37 3.81, 9.94 0.81 M-1.39 20.63 C11.05 17.33, 11.47 9.54, 24.25 -3.05 M-1.36 25.29 C4.78 16.42, 9.84 12.93, 21.96 -2.02 M0.49 36.91 C11.97 25.57, 23.95 14.16, 31.12 3.64 M1.01 34.9 C7.24 27.03, 10.93 23.4, 32.77 -0.2 M1.9 49.03 C11.29 31.64, 24.4 17.4, 39.06 -1.12 M0.24 50.84 C17.17 28.63, 33.99 9.13, 43.59 1.2 M-0.9 61.37 C15.59 40.4, 33.81 24.59, 51.64 2.12 M0.18 59.46 C10.68 49.3, 22.45 34.88, 51.35 0.12 M1.4 75.62 C29.47 41.39, 48 17.26, 61.8 -2.07 M0.89 73.59 C14.62 53.72, 28.38 36.38, 64.03 -1.8 M-0.51 82.61 C30.66 45.81, 61.97 13.89, 76.93 -1.05 M1.47 85.73 C25.7 55.79, 48.86 28.09, 76.15 1.28 M-2.15 93.97 C19.28 66.86, 47.72 40.36, 87.8 -3.09 M-1.07 97.35 C18.18 76.03, 38.65 53.8, 84.29 -0.11 M2.32 106.2 C21.03 90.3, 40.08 63.21, 93.57 1.67 M-1.73 108.37 C20.17 81.16, 44.98 56.96, 94.57 -2.2 M1.16 120.12 C32.53 83, 63.57 42.06, 102.86 0.14 M0.08 122.15 C36.2 80.89, 66.86 46.02, 106.16 0.44 M5.96 130.88 C44.78 84.16, 87.07 33.71, 117.98 4.1 M3.9 128.98 C34.13 92.99, 63.45 62.66, 118.11 0.22 M17.47 131.76 C49.23 96.21, 72.04 56.1, 130.65 -1.84 M16.58 127.4 C47.75 93.55, 74.65 58.03, 127.5 1.99 M26.58 129.16 C53.3 105.97, 69.96 79.54, 135.02 -0.72 M27.74 128.67 C59.92 84.95, 94.18 44.1, 136.98 0.07 M33.86 129.53 C69.02 85.92, 103.68 47.17, 147.31 -3.23 M35.83 129.22 C59.11 104.25, 81.39 74.86, 148.91 -0.28 M44.6 129.19 C92.25 80.62, 139.33 28.09, 158.13 0.02 M45.67 129.95 C86.41 82.31, 121.41 38.35, 160.18 -1.6 M56.49 126.27 C89.59 90.48, 120.55 55.91, 161.56 2.06 M58.59 129.69 C81.13 101.92, 102.32 77.69, 165.82 2.8 M64.65 132.27 C104.88 93.93, 135.75 59.41, 169.42 20.49 M68.01 130.23 C104.05 84.74, 139.44 43.14, 163.69 15.33 M81.25 128.03 C108.44 97.6, 137.55 64.07, 164.11 31.43 M77.56 129.83 C106.28 100.54, 132.1 68.42, 165.89 29.5 M87.89 127.47 C116.67 94, 143.49 60.01, 163.86 42.67 M87.9 128.43 C107.01 108.18, 121.84 86.76, 166.51 40.6 M100.56 128.62 C120.58 108.52, 137.81 88.99, 165.67 53.82 M100.24 128.18 C121.5 105, 141.13 84.83, 167.04 55.35 M114.65 128.59 C127.09 102.08, 153.12 82.24, 164.91 68.33 M111.85 129.95 C126.91 110.23, 141.34 94.6, 166.47 65.45 M121.97 130.59 C137.33 112.78, 149.58 97.65, 168.38 81.02 M123.54 129.78 C135.8 111.81, 151.6 94.17, 164.87 76.52 M135.74 126.92 C136.28 116.92, 145.46 108.35, 165.95 90.02 M131.15 127.45 C141.64 116.16, 153.36 103.63, 165.52 89.65 M143.57 129.99 C144.75 124.81, 153.97 114.99, 162.24 105.34 M141.1 126.92 C146.87 122.48, 153.72 117, 165.09 103.4 M156.19 130.98 C159.18 126.68, 165.72 121.48, 164.36 112.98 M153.81 128.78 C156.85 123.74, 162.28 118.27, 163.92 115.19" stroke="#ced4da" stroke-width="1" fill="none"></path><path d="M-2.6 1.47 C47.43 -2.89, 100.37 -4.73, 158.4 0.27 M1.51 0.78 C56.64 1.64, 114.41 2.71, 161.57 -1.48 M156.83 2.06 C163.83 30.63, 159.07 59.13, 158.11 124.76 M160.53 0.43 C160.33 26.09, 159.08 50.91, 159.69 122.75 M162.07 125.18 C123.69 120.7, 80.7 122.29, 2.88 120.36 M158.94 124.46 C107.47 122.16, 50.45 120.04, -0.01 125.08 M-3.42 125.57 C0.98 85.99, 0.37 40.35, -2.75 2.95 M1.49 122.42 C-0.92 96.65, -1.71 72.23, -0.95 -0.29" stroke="#000000" stroke-width="2" fill="none"></path></g><g transform="translate(895.1875675385763 1312.6554105198516) rotate(359.4587704537732 62 50)"><text x="62" y="35" font-family="Virgil, Segoe UI Emoji" font-size="38.90411542476946px" fill="#000000" text-anchor="middle" style="white-space: pre;" direction="ltr">Window</text><text x="62" y="85" font-family="Virgil, Segoe UI Emoji" font-size="38.90411542476946px" fill="#000000" text-anchor="middle" style="white-space: pre;" direction="ltr">01</text></g><g stroke-linecap="round" transform="translate(877.2257493670168 1122.169261906265) rotate(359.6927864776797 79.96181817156003 60.95919824268526)"><path d="M0 0 C0 0, 0 0, 0 0 M0 0 C0 0, 0 0, 0 0 M-2.43 11.73 C2.36 6.1, 7.2 2.37, 10.54 1.12 M1.03 10.61 C3.63 7.14, 6.18 5.17, 11.43 -0.76 M3.49 25.51 C1.75 20.79, 13.43 9.99, 18.86 -1.73 M-0.47 22.47 C7.5 15.85, 16.44 4.52, 22.27 -0.24 M0.64 38.4 C10.16 29.64, 16.75 20, 27.95 -0.95 M0.6 35.02 C9.64 25.33, 24.76 9.12, 32.01 -1.79 M-2.59 46.6 C9.51 32.93, 21 19.06, 46.16 -0.62 M0.38 47.4 C11.06 33.93, 22.2 24.79, 42.87 0.73 M-0.75 60.77 C21.71 40.3, 40.42 15.24, 49.26 -2 M-0.65 61.59 C15.66 42.62, 28.95 26.57, 54.91 -1.63 M3.7 69.9 C16.67 50.82, 36.9 25.22, 61.43 3.75 M0.72 71.5 C18.25 48.8, 39.2 25.75, 65.77 -0.62 M0.69 81.07 C30.9 51.69, 59.52 20.27, 76.26 2.56 M1.23 84.26 C14.65 66.07, 34.9 47.04, 74.11 1.7 M-3.12 95.22 C29.62 66.5, 58.77 33.02, 81.74 -3.54 M-1.98 97.44 C26.65 67.16, 51.61 38.82, 83.14 1.48 M3.35 111.11 C21.35 85.44, 36.29 67.79, 93.28 2.55 M-1.25 108.57 C35.84 73.73, 67.59 32.33, 96.12 1.59 M0.57 120.87 C20.66 92.68, 43.94 68.06, 106.67 -3.96 M1.14 120.12 C37.95 77.84, 77.95 32.55, 107.87 0.09 M8.62 125.86 C37.79 88.55, 70.37 56.9, 114.47 -1.99 M9.61 120.97 C51.36 77.3, 92.04 31.18, 115.58 -0.52 M23.94 124.73 C51.66 75.91, 94.54 36.65, 125.61 -0.68 M22.67 123.81 C61.11 74.75, 105 27.62, 124.96 0.23 M35.91 124.13 C53.79 95.65, 76.77 65.65, 138.47 4.24 M31.82 121.49 C66.91 77.31, 106.04 33.29, 137.81 1.76 M41.3 117.79 C64.7 93.48, 86.71 67.98, 144.47 2.34 M42.65 123.56 C69.94 88.97, 97.58 59.32, 150.13 -0.07 M53.3 125.54 C92.19 83.96, 123.34 41.56, 160.45 0.3 M54.27 120.76 C91.65 74.81, 133.51 29.82, 158.95 0.33 M62.48 120.33 C84.67 97.93, 107.76 66.04, 161.72 1.43 M62.86 121.54 C96.11 81.3, 133.31 38.07, 165.93 3.27 M77.85 123.16 C106.91 91.33, 135.16 60.51, 168.29 14.6 M73.13 120.55 C108.47 78.02, 143.08 38.05, 166.09 18.23 M87.8 122.16 C108.14 97.76, 122.83 77.96, 165.8 28.24 M85.83 123.15 C108.54 95.19, 129.63 71.79, 167.16 27.36 M93.14 119.53 C113.11 94.62, 135.5 76.48, 162.03 44.15 M97.28 121.9 C123.48 89.13, 151.02 60.13, 164.71 40.81 M108.08 122.59 C126.96 101.05, 145.54 76.85, 165.18 49.96 M106.84 121.06 C128.67 98.62, 150.65 74.45, 166.85 54.64 M112.59 119.47 C131.98 106.04, 144.18 90.94, 164.87 62.68 M115.74 121.85 C128.35 107, 145.02 88.8, 165.73 63.91 M127.99 123.17 C141.11 106.51, 158.87 91.43, 167.76 76.64 M125.25 123.93 C137.63 108.7, 151.21 90.7, 163.72 76.11 M134.06 119.02 C145.23 107.72, 155.95 101.08, 165.3 88.02 M136.21 122.43 C148.73 109.62, 158.94 97.87, 163.6 89.21 M144.65 124.71 C154.6 113.83, 156.71 111.48, 161.29 98.84 M147.16 121.42 C154.3 116.25, 157.23 113.09, 166.63 101.09 M159.4 124.08 C162.35 121.75, 161.83 116.91, 167.17 113.54 M158 122.66 C160.62 120.02, 162.34 117.43, 164.77 114.61" stroke="#ced4da" stroke-width="1" fill="none"></path><path d="M-2.12 -2.09 C53.24 -5.1, 102.12 -0.91, 162.04 2.41 M0.11 -1.19 C35.19 -1.37, 69.06 -2.73, 158.52 1.69 M161.46 2.18 C154.63 40.72, 155.76 78.07, 156.31 122.14 M159.91 0.17 C159.04 43.6, 159.78 88.19, 158.85 121.17 M162.89 122.02 C126.68 124.84, 97.4 119.84, 1.66 123.01 M161.9 123.51 C127.01 122.67, 94.75 124.62, 0.42 121.82 M0.86 123.93 C2.34 92.27, -0.66 73.47, -3.73 2.23 M0.46 120.49 C-2.15 89.25, -2.77 56.84, -0.64 1.95" stroke="#000000" stroke-width="2" fill="none"></path></g><g stroke-linecap="round" transform="translate(877.0810113713133 803.0038901836424) rotate(359.27389701322335 80.1065561672632 60.214324098882344)"><path d="M0 0 C0 0, 0 0, 0 0 M0 0 C0 0, 0 0, 0 0 M-0.18 11.04 C1.48 8.72, 5.05 4.07, 11.78 0.5 M-1.29 12.12 C1.78 8.08, 6.38 6.42, 9.9 -1.03 M1.7 20.38 C8.2 20.48, 8.57 8.85, 19.6 2.3 M-1.34 23.38 C5.26 19.65, 7.21 14.68, 21.09 -0.49 M1.27 38.47 C13.06 24.18, 23.96 9.24, 31.04 3.2 M-2.12 34.94 C14.12 24.05, 23.74 9.85, 30.2 -0.22 M-2.44 46.51 C13.26 28.78, 28.77 18.69, 42.03 -2.09 M-1.64 49.56 C10.66 34.17, 27.41 17.84, 43.39 1.7 M-0.18 61.56 C18.03 42.69, 31.65 23.36, 51.32 -0.57 M0.64 61.3 C15.92 40.65, 34 25.36, 51.69 -0.01 M-2.95 70.39 C21.46 45.63, 39.49 21.01, 67.74 0.16 M-1.36 71.97 C19.99 48.19, 41.05 25.24, 63.36 1.4 M-3.69 87.13 C20.29 63.5, 42.08 38.91, 77.22 -3.09 M-0.51 83.49 C27.42 55.37, 54.57 22.64, 76.35 0.25 M-2.86 99.11 C22.03 77.04, 41.91 46.21, 81.77 -0.13 M-0.64 98.02 C21.02 73.15, 44.56 46.6, 86.8 -2.12 M1.12 112.76 C33.19 66.37, 73.01 26.31, 98.53 1.68 M-1.42 110.54 C23.51 85.71, 41.65 63.11, 97.57 -1.79 M-0.38 118.47 C33.92 77.51, 71.64 41.41, 102.69 2.36 M-1.12 120.09 C33.53 83.01, 65.21 47.9, 106.73 -0.82 M15.28 119.43 C44.28 85.98, 79.16 44.55, 113.91 3.09 M10.39 121.16 C34.91 96.86, 57.14 67.14, 115.38 1.04 M24.82 117.16 C51.45 82.88, 87.94 37.28, 125.89 4.21 M23.9 119.7 C57.48 80.7, 92.91 38.62, 126.79 -1.18 M34.88 119.23 C64.81 80.46, 93.32 47.92, 141.47 2.7 M32.24 119.37 C68.83 77.84, 105.7 35.9, 138.98 -1.63 M39.2 119.63 C61.95 94.96, 83.62 66.26, 150.23 -1.78 M44.98 120.39 C64.21 94.24, 88.61 68.05, 147.83 0.82 M57.62 123.78 C80.3 92.07, 102.22 66.21, 158.86 2.82 M52.84 119.03 C74.07 94.65, 96.47 66.85, 158.89 -1.13 M63.07 117.47 C94.67 86.9, 116.62 56.27, 162.18 6.5 M64.28 119.08 C97.93 83.35, 128.75 44.59, 164.03 4.75 M76.57 123.92 C94.45 102.02, 113.6 79.74, 163.45 20.13 M73.96 119.4 C96.31 91.61, 121.45 65.45, 167.08 15.78 M86.23 124.75 C113.3 85.69, 144.94 54.93, 165.18 27.46 M87.23 121.41 C101.42 100.14, 120.34 81.15, 164.31 28.72 M94.27 116.97 C110.61 99.5, 133.68 78.11, 168.43 44.15 M96.64 120.53 C108.76 103.93, 124.64 86.35, 165.09 41.45 M107.99 122.02 C126.58 100.22, 142.51 79.34, 161.68 56.06 M106.46 121.78 C125.5 102.63, 142.81 82.88, 166.35 53.64 M114.79 122.74 C136.99 99.59, 157.54 78.06, 162.49 65.16 M117.17 119.19 C134.74 103.27, 149.06 83.79, 163.72 67.25 M129.15 120.37 C140.77 110.07, 154.02 96.23, 164.54 79.1 M129.91 119.35 C144.2 103.7, 155.78 85.65, 164.02 78.54 M135.67 119.56 C145.56 109.43, 160.08 97.5, 163.26 93.2 M139.07 120.9 C145.04 113.33, 152.04 104.56, 164.45 90.57 M151.36 122.11 C152.31 112.76, 161.81 105.85, 161.51 100.93 M148.07 122.77 C151.42 117.52, 156.76 115.13, 163.76 102.19" stroke="#ced4da" stroke-width="1" fill="none"></path><path d="M-2.09 1.28 C33.73 -0.12, 75.59 3.81, 162.63 -3.53 M-1.19 1.34 C60.08 1.18, 118.91 -1.57, 161.9 0.31 M162.39 -3.23 C163.7 23.85, 162.56 48.29, 160.43 123.04 M160.38 -1.27 C159.79 37.49, 159.83 74.95, 159.47 118.52 M160.31 119.89 C106.41 125.68, 45.92 124.46, 1.1 116.58 M161.8 120.1 C121.81 123.59, 85.89 124.01, -0.1 118.64 M2.01 120.68 C-5.1 91.86, 1.8 65.06, 2.23 -1.37 M-1.43 120.09 C1.21 74.37, 1.19 29.56, 1.95 0.62" stroke="#000000" stroke-width="2" fill="none"></path></g><g transform="translate(895.1875675385763 813.218214282525) rotate(359.27389701322335 62 50)"><text x="62" y="35" font-family="Virgil, Segoe UI Emoji" font-size="38.90411542476946px" fill="#000000" text-anchor="middle" style="white-space: pre;" direction="ltr">Window</text><text x="62" y="85" font-family="Virgil, Segoe UI Emoji" font-size="38.90411542476946px" fill="#000000" text-anchor="middle" style="white-space: pre;" direction="ltr">29</text></g><g stroke-linecap="round" transform="translate(612.7442125642123 954.2833697623992) rotate(269.24944320363574 344.4884909456104 162.23022725191527)"><path d="M-1.57 -0.72 C170.33 -0.92, 341.41 -3.18, 690.19 0.62 M-0.05 0.54 C209.87 -4.26, 421.6 -3.57, 688.3 0.41 M690.53 -1.46 C692.19 107.27, 691.58 221.35, 689.41 325.06 M688.32 -0.36 C688.72 96.31, 688.83 192.77, 689.62 324.99 M689.66 325.61 C429.9 324.38, 173.9 322.18, -1.02 325.1 M688.76 324.46 C414.81 323.72, 139.47 322.84, -0.68 324.84 M-2.73 322.56 C-0.21 217.57, -0.72 114.89, 2.07 -1.7 M-0.19 323.8 C3.02 219.22, 4.57 115.31, 0.92 0.47" stroke="#000000" stroke-width="1" fill="none"></path></g><g transform="translate(951.2736607074371 958.999189491597) rotate(0 6.5 58)"><text x="0" y="20" font-family="Virgil, Segoe UI Emoji" font-size="21.505115749600858px" fill="#000000" text-anchor="start" style="white-space: pre;" direction="ltr">.</text><text x="0" y="49" font-family="Virgil, Segoe UI Emoji" font-size="21.505115749600858px" fill="#000000" text-anchor="start" style="white-space: pre;" direction="ltr">.</text><text x="0" y="78" font-family="Virgil, Segoe UI Emoji" font-size="21.505115749600858px" fill="#000000" text-anchor="start" style="white-space: pre;" direction="ltr">.</text><text x="0" y="107" font-family="Virgil, Segoe UI Emoji" font-size="21.505115749600858px" fill="#000000" text-anchor="start" style="white-space: pre;" direction="ltr"></text></g><g stroke-linecap="round" transform="translate(842.4914453488877 209.47138005005854) rotate(0 93.23432333911774 169.76996190108002)"><path d="M0 0 C0 0, 0 0, 0 0 M0 0 C0 0, 0 0, 0 0 M0.22 7.4 C2.64 3.62, 5.2 1.29, 5.31 -0.94 M0.17 5.68 C1.63 4.75, 1.9 3.35, 5.09 0.78 M2 9.92 C1.45 9.02, 5.05 2.51, 8.3 2.44 M1.17 10.85 C4.23 9.85, 6.04 3.74, 9.19 -1.09 M-0.12 20.63 C4.47 12.61, 6.95 6.16, 12.34 1.07 M0.1 17.79 C4.79 13.6, 6.71 9.06, 14.97 -0.01 M3.02 27.11 C7.87 14.37, 15.86 5.22, 24.17 3.49 M-0.16 24.23 C7.87 14.54, 13.94 9.5, 21.09 1.67 M3.5 34.42 C3.48 26.62, 9.47 18.15, 22.47 2.75 M-1.42 32.01 C6.97 21.79, 18.39 12.79, 27.05 0.66 M-3.68 38.98 C7.68 24.26, 18.63 19.37, 31.55 -3.62 M1.27 38.7 C13.12 21.09, 25.58 9.91, 31.87 1.1 M2.87 45.31 C11.12 33.49, 20.16 17.13, 36.49 -0.02 M1.41 44.06 C5.72 35.22, 17.51 22.98, 36.01 0.85 M-1.99 51.29 C11.06 36.46, 18.7 26.14, 45.41 0.27 M-1.43 48.84 C13.54 32.75, 24.17 21.01, 42.08 -2.04 M3.58 57.87 C17.69 39.28, 30.16 21.04, 45.21 0.06 M-1.5 53.97 C13.57 38.44, 25.22 24.16, 49.13 1.2 M-3.75 58.11 C21.62 35.13, 42.87 13.12, 55.83 3.23 M-0.64 59.08 C14.82 44.11, 32.63 24.64, 53.37 0.54 M1.03 70.9 C17.42 49.36, 32.11 24.76, 61.97 3.79 M-0.16 65.77 C20.03 44.93, 39.78 19.4, 58.43 1.64 M2.37 70.23 C16.96 51.47, 44.9 26.6, 67.37 2.81 M0.67 72.32 C18.35 55.62, 33.95 34.45, 64.14 0.37 M-0.89 82.45 C22.53 57.43, 40.3 31.23, 66.57 -2.53 M-1.85 80.49 C17.72 59.24, 38.12 36.55, 68.71 1.32 M2.18 83.97 C15.99 66.87, 32.53 46.04, 75.12 -1.95 M0.27 86.72 C17.57 63.06, 37.3 40.45, 73.54 0.25 M-1.77 94.33 C31.46 57.82, 54.15 30.59, 77.35 0.92 M0.92 92.68 C19.45 66.15, 43.97 41.74, 77.47 -1.35 M3.34 97.88 C30.97 70.38, 58.46 37.26, 88.63 -2.47 M0.03 96.45 C31.09 60.84, 63.83 22.16, 85.48 -1.8 M-2.03 101.08 C28.69 74.41, 50.65 42.93, 87.11 3.43 M1.06 103.36 C22.8 73.51, 48.76 47.14, 91 -0.71 M-2 109.75 C24.82 78.8, 49.64 52.9, 91.98 3.28 M0.55 108.66 C27.56 80.06, 50.94 53.7, 96.61 -0.49 M-3.62 114.78 C34.01 75.5, 71.91 39.77, 103.19 3.81 M0.21 116.82 C23.02 86.33, 48.3 56.16, 100.33 0.16 M-1.18 121.16 C40.89 73.27, 83.72 23.5, 107.74 2.87 M1.19 120.02 C37.41 77.54, 73.5 38.64, 104.33 0.72 M-2.6 125.72 C38.49 87.69, 75.29 39.75, 107.4 2.37 M0.13 129.36 C31.17 92.87, 61.38 58.08, 113.23 1.4 M1.61 134.39 C29.52 99.54, 52.91 72.14, 116.32 2.1 M-1.27 133.67 C35.86 92.45, 74.29 47.34, 118.14 2.36 M-2.61 139.45 C37.86 88.1, 83.66 44.02, 120.06 0.91 M1.27 142.25 C45.45 85.34, 92.64 35.55, 122.24 -1.56 M0.69 145.26 C50.37 89.82, 96.08 29.97, 130.61 -1.98 M-1.3 144.05 C30.08 111.97, 61.08 76.15, 126.25 1.97 M-2.44 149.61 C28.56 118.74, 62.2 83.42, 135.64 2.44 M-0.99 154.08 C52.9 95.35, 102.93 35.8, 132.61 1.73 M-3.35 159.71 C35.03 121.81, 71.9 85.46, 136.19 -0.46 M-1.15 157.69 C40.67 109.89, 81.99 65.3, 135.88 -1.22 M-2.49 165.17 C50.05 104.72, 109.66 37.84, 140.86 -2.93 M1.45 162.94 C39.1 114.79, 81.95 68.53, 142.51 1.55 M-2.69 167.88 C43.01 119, 81.9 76.93, 148.98 -0.03 M-0.75 169.76 C31.47 132.5, 64.25 93.78, 146.98 1.51 M3 175.21 C55.78 115.69, 105.89 55.02, 156.88 -2.59 M-0.87 176.18 C32.11 137.54, 63.99 98.91, 154.29 -0.72 M-0.19 184.63 C62.76 109.08, 123.08 43.69, 160.6 2.12 M-0.77 181.36 C52.7 120.32, 108.3 57, 160.41 0.19 M-2.63 191.66 C58.02 121.94, 111.6 62.3, 161.74 2.78 M0.13 190.7 C42.11 138.55, 86.42 90.86, 164.13 -1.27 M1.03 197.76 C54.8 133.99, 104.08 76, 169.21 3.05 M-0.75 195.29 C60.84 123.73, 125.89 51.85, 167.85 1.65 M-1.6 198.69 C41.94 154.69, 77.7 106.03, 172.93 1.11 M1.36 201.03 C48.99 144.11, 101.68 82.87, 175.59 -0.53 M3.26 203.94 C70.03 120.81, 140.8 43.02, 178.27 1.37 M0.3 207.17 C57.71 141.01, 116.29 73.77, 181.25 -1.16 M0.31 216.24 C53.55 147.77, 104.93 86.64, 186.27 1.29 M-1.11 213.04 C67.78 139.21, 132.27 63.24, 186.25 0.54 M0.72 220.25 C46.93 165.52, 100.27 106.68, 187.68 5.28 M0.15 219.38 C37.84 173.5, 78.92 127.29, 188.6 2.38 M-2.51 226.78 C45.65 168.12, 94.1 114.48, 189.8 8.76 M-0.76 224.75 C41.01 177.8, 80.66 130.6, 190.29 8.88 M0.85 231.4 C68.88 155.33, 137.57 74, 191.56 17.02 M-0.77 231.28 C45.15 183.79, 84.57 135.83, 189.69 14.9 M1.37 238.84 C52.49 177.01, 109.19 119.61, 187.81 17.32 M0.18 236.74 C48.81 182.44, 93.36 132.51, 190.55 21.06 M1.62 244.11 C69.52 159.01, 140.28 77.16, 186.11 28.67 M-0.44 243.93 C48 186.78, 100.26 127.64, 187.66 27.41 M-2.6 250.56 C70.21 171.42, 133.85 96.3, 188.04 35.47 M-0.52 249.8 C62.14 180.42, 125.67 109.69, 189.1 31.53 M0.64 253.34 C35.91 214.84, 78.7 164.47, 187.95 37.26 M1.34 257.08 C46.98 203.29, 97.12 145.42, 189.79 37.13 M2.02 264.99 C67.44 182.56, 134.68 103.43, 189.81 44.22 M0.45 261.88 C70.71 180.65, 140.33 100.02, 190.28 44.74 M0.42 267.23 C44.97 219.21, 89.59 165.31, 188.47 53 M-0.68 266.88 C47.04 215.98, 96.42 161.38, 188.85 49.73 M-1.57 276.51 C65.77 203.39, 127.95 128.11, 189.29 58.11 M-1.03 275.65 C76.71 188.29, 152.31 102.26, 188 57.8 M1.66 277.71 C47.12 226.41, 95.04 171.16, 189.34 63.88 M0.2 281.75 C44.18 225.63, 94.39 171, 189.57 62.02 M-0.52 285.92 C71.59 200.61, 151.9 110.95, 188.25 67.96 M1.18 286.43 C36.91 240.1, 77.27 192.43, 189.43 69.52 M-0.1 293.69 C53.36 231.2, 110.49 174.4, 187.01 74.84 M1.18 292.21 C48.83 240.06, 97.57 181.93, 190.17 74.04 M-1.18 301.18 C59.03 231.83, 119.96 162.31, 187.29 83.8 M1.74 298 C74.69 215.66, 147.53 132.62, 190.26 81.15 M-0.39 303.34 C71.78 222.54, 149.56 135.39, 186.92 88.17 M1.06 305.52 C42.03 259.94, 85.09 211.86, 190.48 87.51 M0.38 314.04 C53.17 254.36, 103.22 197.11, 191.28 93.42 M1.23 311.35 C42.52 256.73, 87.72 207.07, 189.11 94.12 M-1.22 319.32 C56.86 249.4, 115.83 183.39, 187.98 100.53 M-0.15 315.6 C45.08 271.13, 88.97 222.34, 188.56 99.82 M2.88 321.14 C56.98 257.96, 107.97 198.07, 187.83 107.59 M-0.24 324.6 C49.59 267.72, 98.8 213.01, 190.12 107.05 M0.29 331.31 C63.48 252.03, 127.69 176.32, 187.99 109.7 M1.16 327.84 C68.52 247.72, 135.42 171.26, 189.04 110.81 M1.94 334.59 C40.88 288.12, 83.22 244.97, 191.6 116.38 M-0.95 334.58 C55.8 268.6, 112.01 204.78, 190.04 117.23 M0.5 341.43 C60.23 274.66, 116.56 210.83, 188.99 121.36 M0.76 340.29 C46.97 288.13, 94.74 233.35, 187.41 123.51 M4.64 342.02 C73.81 261.18, 144.96 183.9, 186.57 128.27 M4.91 339.03 C75.55 262.64, 147.58 181.31, 189.83 129.67 M9.14 343.21 C49.05 289.83, 91.32 249.43, 187.76 133.99 M12.61 340.63 C63.67 277.89, 118.74 216.3, 187.71 135.09 M15.77 340.34 C65.81 279.85, 115.8 220.54, 192.13 140.9 M16.57 340.5 C64.56 287.95, 111.47 231.73, 187.9 142.88 M22.15 340.76 C76.73 280.42, 132.67 218.08, 190.35 149.85 M23.06 340.87 C65.84 290.16, 108.87 240.62, 189.76 147.52 M29.95 337.39 C90.72 267.48, 149.44 197.3, 188.81 153.72 M27.47 341.68 C77.42 278.84, 128.89 218.25, 188.97 155.34 M31.46 340.58 C86.09 281.97, 133.58 225.72, 189.65 158.42 M31.79 341.14 C70.01 293.1, 108.81 245.47, 188 161.56 M38.19 337.35 C69.69 304.55, 96.55 271.64, 189.22 165.01 M39.33 338.95 C72.9 300.57, 105.3 265.63, 187.53 165.74 M40.42 337.57 C95.57 278.15, 146.5 222.45, 189.5 170.58 M42.52 340.92 C93.79 276.29, 146.47 217.03, 189.94 174.7 M50.03 339.23 C76.32 301.25, 113.39 264.09, 190.25 176.58 M47.78 341.61 C85.88 304.65, 116.26 266.46, 189.87 177.93 M51.53 341.54 C104.38 284.42, 157.86 219.98, 187.82 183.36 M53.05 338.98 C83.3 306.3, 116.32 269.38, 189 184.6 M60.61 343.58 C104.4 286.27, 157.79 232.81, 187.57 191.01 M59.43 341.5 C107.73 281.48, 159.15 224.37, 190.15 191.11 M65.66 343.86 C90.86 311.1, 112.43 283.01, 185.88 197.25 M64.58 341.39 C98.72 302.21, 132.23 264.27, 187.15 197.84 M69.93 343.89 C104.23 296.46, 139.5 254.25, 189.88 206.01 M71.27 339.38 C106.83 303.4, 140.73 261.04, 188.87 204.41 M76.45 340.38 C106.52 305.76, 138.84 263.17, 185.21 205.57 M73.47 340.31 C102.88 309.54, 127.74 279.22, 188.68 208.7 M77.27 343.07 C106.78 310.62, 135.73 278.1, 190.98 217.55 M80.34 340.21 C112.06 305.14, 143.7 271.93, 190.01 217.58 M89.22 339.84 C115.95 302.24, 143.27 270.38, 185.28 218.65 M86.45 340.8 C115.51 304.1, 149.79 266.53, 190.5 222.11 M88.18 337.66 C126.46 297.98, 162.54 256.93, 189.04 225.68 M92.54 340.01 C115.63 310.49, 140.04 280.74, 188.19 228.06 M92.79 343.57 C127.74 299.34, 161.16 262.65, 191.51 233.29 M95.79 342.5 C124.31 306.43, 152.96 271.7, 189.63 235.13 M98.74 341.71 C127.62 305.99, 160.59 271.5, 189.38 239.21 M102.53 342.09 C131.16 309.07, 157.2 276.26, 187.43 239.73 M106.49 338.35 C123.23 316.1, 142.47 297.55, 185.76 245.54 M106.52 340.33 C135.05 306.79, 164.34 272.74, 189.77 245.76 M111.52 338.79 C143.87 311.98, 171.95 274.71, 187.82 252.45 M113.7 340.96 C133.72 315, 158.61 292.45, 188.5 251.78 M116.13 344.49 C142.19 316.27, 158.76 289.92, 186.47 255.22 M116.42 340.45 C135.3 318.88, 152.78 298.18, 189.41 257.57 M119.6 337.95 C137.13 322.05, 157.91 304.6, 186.02 261.96 M122.21 338.43 C149.2 313.24, 173.06 283.04, 188.29 263.36 M130.03 343.8 C140.26 326.2, 158.56 313.59, 187.19 270.87 M128.01 340.27 C148.68 315.44, 173.21 287.17, 188.47 268.57 M130.54 341.74 C150.07 323.1, 168.57 300.79, 186.12 279.53 M132.95 339.51 C151.7 318.95, 173.42 296.85, 190.38 278.62 M139.02 343.58 C148.02 330.18, 164.96 313.48, 188 278.56 M140.58 340.44 C153.59 325.35, 164.96 310.21, 187.6 284.07 M142.41 338.21 C156.08 326.16, 168.11 313.78, 186.78 288.72 M143.59 340.51 C160.09 321.69, 174.88 303.76, 189.14 287.22 M148.41 336.64 C159.31 331.04, 170.27 315.06, 186.81 298.58 M150.14 340.89 C160.95 328.94, 169.32 316.36, 187.53 293.33 M151.78 340.93 C162.21 328.54, 171.59 320.53, 185.83 297.83 M156.53 340.94 C162.21 332.09, 168.32 321.93, 188.35 301.34 M162.03 341.28 C168.75 327.04, 173.13 324.84, 190.01 310.49 M161.49 340.76 C171.72 330.07, 182.09 316.72, 187.74 306.65 M161.72 340.94 C168.5 334.22, 178.84 320.92, 187.57 316.67 M166.91 339.61 C171.4 335.12, 179.38 324.68, 188.53 312.37 M174.19 337.3 C176.03 338.84, 179.75 328.84, 192.51 321.59 M172.13 338.47 C173.99 333.41, 182.73 328.34, 190.47 319.81 M173.16 339.56 C181.16 340.62, 183.05 329.82, 186.19 325.3 M173.99 339.29 C177.52 336.24, 181.89 332.59, 190.31 323.73 M179.1 338.94 C183.62 339.26, 185.98 334.99, 188.64 331.68 M180.68 339.94 C182.63 339.59, 184.98 337.44, 188.04 331.17" stroke="#4c6ef5" stroke-width="0.5" fill="none"></path><path d="M3.88 -2.88 C60.46 2.77, 112.18 4.51, 189.37 1.34 M0.54 -1.65 C57.91 -2.28, 117.04 -1.28, 185.17 -1.7 M185.08 -2.29 C184.06 124.38, 187.52 249.15, 188.39 338.39 M186.15 0.08 C182.7 91.35, 183.38 183.57, 185.66 340.04 M183.44 337.99 C139.1 338.56, 83.94 338.32, 0.4 340.32 M187.9 341.43 C141.21 338.33, 96.82 335.52, -1.33 341.41 M-0.97 341.75 C-1.09 241.2, -2.49 143.71, -0.92 1.47 M0.49 339.91 C-2.97 230.37, -4.14 120.46, 1.17 -1.08" stroke="#000000" stroke-width="1" fill="none"></path></g><g transform="translate(859.2257686880055 313.24134195113857) rotate(0 76.5 66)"><text x="76.5" y="46" font-family="Virgil, Segoe UI Emoji" font-size="51.23283290658445px" fill="#000000" text-anchor="middle" style="white-space: pre;" direction="ltr">Point </text><text x="76.5" y="112" font-family="Virgil, Segoe UI Emoji" font-size="51.23283290658445px" fill="#000000" text-anchor="middle" style="white-space: pre;" direction="ltr">adder</text></g><g stroke-linecap="round"><g transform="translate(835.0177280138773 355.4487562437648) rotate(0 -125.22550180301943 0.8204642419750598)"><path d="M2.87 2.25 C-53.42 -5.56, -111.47 -1.82, -253.32 3.63 M-0.06 -0.23 C-56.23 4.75, -110.33 5.36, -251.81 0.55" stroke="#c92a2a" stroke-width="4" fill="none"></path></g></g><mask></mask><g stroke-linecap="round"><g transform="translate(833.3520346192918 459.4450787021897) rotate(0 -77.03629945049539 0.5632239837691486)"><path d="M-2.61 1.14 C-45.28 -3.55, -88.6 2.03, -155.23 1.99 M1.15 1.84 C-46.36 -3, -93.41 -2.56, -155.04 2.67" stroke="#862e9c" stroke-width="4" fill="none"></path></g></g><mask></mask><g stroke-linecap="round"><g transform="translate(877.4546932294479 823.2748979342555) rotate(0 -94.06972115387231 1.1212010335257219)"><path d="M-1.12 -3.06 C-52.36 3.33, -107.33 6.21, -187.84 5.04 M0.19 1.23 C-58.83 -1.64, -118.44 1.17, -188.33 0.58" stroke="#862e9c" stroke-width="4" fill="none"></path></g></g><mask></mask><g stroke-linecap="round"><g transform="translate(878.2652507144996 1148.1352054855352) rotate(0 -95.26988165725976 0.44983711138002036)"><path d="M-2.46 -0.93 C-74.58 0.3, -144 2.45, -189.49 1.66 M-0.5 -0.64 C-60.56 0.82, -120.78 -1.95, -190.04 0.56" stroke="#862e9c" stroke-width="4" fill="none"></path></g></g><mask></mask><g stroke-linecap="round"><g transform="translate(878.2652507144996 1332.7513022233538) rotate(0 -95.3471524928978 0.5287905509658231)"><path d="M-3.46 -1.96 C-57.42 2.32, -118.63 0.24, -186.2 3.01 M-1.08 0.18 C-55.61 -0.5, -109.96 -1.06, -189.62 -0.14" stroke="#862e9c" stroke-width="4" fill="none"></path></g></g><mask></mask><g stroke-linecap="round"><g transform="translate(839.2313569164828 268.3344438046033) rotate(0 -273.86067337287614 1.472976218737358)"><path d="M-0.43 -1.56 C-114.24 0.56, -225.67 1.61, -546.02 4.51 M-0.75 -0.4 C-159.99 2.93, -319.9 3.41, -547.29 2.9" stroke="#1864ab" stroke-width="4" fill="none"></path></g></g><mask></mask><g stroke-linecap="round"><g transform="translate(280.2962884496085 883.3639811454877) rotate(0 2.0421069408407675 -304.93353365143025)"><path d="M-1.32 -0.75 C1.78 -183.63, 4.04 -367.23, 5.4 -609.16 M-0.5 -0.7 C-0.93 -219.05, 0.54 -438.97, 3.41 -607.75" stroke="#1864ab" stroke-width="4" fill="none"></path></g></g><mask></mask><g transform="translate(656.0337683126593 284.4922136145069) rotate(0 76 32)"><text x="0" y="45" font-family="Virgil, Segoe UI Emoji" font-size="50.096054331466235px" fill="#c92a2a" text-anchor="start" style="white-space: pre;" direction="ltr">3x377</text></g><g transform="translate(531.0199384589521 202.1486641256297) rotate(0 16.5 32)"><text x="0" y="45" font-family="Virgil, Segoe UI Emoji" font-size="50.096054331466235px" fill="#c92a2a" text-anchor="start" style="white-space: pre;" direction="ltr">K</text></g><g transform="translate(715.1653144172478 391.86718914369385) rotate(0 47.5 32)"><text x="0" y="45" font-family="Virgil, Segoe UI Emoji" font-size="50.096054331466235px" fill="#c92a2a" text-anchor="start" style="white-space: pre;" direction="ltr">x_n</text></g><g stroke-linecap="round"><g transform="translate(877.6592439805195 883.3087388368908) rotate(0 -142.39617554697384 0.7145387812388435)"><path d="M1.47 2.39 C-66.59 -1.95, -137.43 -1.37, -286.26 0.21 M-0.99 1.33 C-104.4 1.77, -209.64 1.73, -286.15 -0.17" stroke="#c92a2a" stroke-width="4" fill="none"></path></g></g><mask></mask><g stroke-linecap="round"><g transform="translate(867.7088894942503 1209.6803659865168) rotate(0 -145.02688794012045 1.810479334078991)"><path d="M0.58 1.85 C-89.04 1.9, -174.59 5.37, -290.63 3.38 M0.55 -0.37 C-71.55 0.8, -143.41 0.84, -288.31 1.15" stroke="#c92a2a" stroke-width="4" fill="none"></path></g></g><mask></mask><g stroke-linecap="round"><g transform="translate(876.1616067950824 1391.608528765964) rotate(0 -143.61493225528602 1.421016814382483)"><path d="M-1.44 -1.67 C-78.01 2.65, -161.55 5.44, -286.77 4.22 M0.99 1.42 C-103.46 -3.15, -209.97 -2.46, -288.22 3.14" stroke="#c92a2a" stroke-width="4" fill="none"></path></g></g><mask></mask><g transform="translate(118.14706650531593 1011.5480944697324) rotate(0 5 18)"><text x="0" y="25" font-family="Virgil, Segoe UI Emoji" font-size="27.83114129525902px" fill="#000000" text-anchor="start" style="white-space: pre;" direction="ltr">1</text></g><g stroke-linecap="round" transform="translate(2045.601170303658 1062.4850292565538) rotate(359.4587704537732 88.60859332138602 68.38918276482809)"><path d="M0 0 C0 0, 0 0, 0 0 M0 0 C0 0, 0 0, 0 0 M2.28 13.5 C5.01 9.17, 7.24 5.76, 7.89 1.73 M1.6 12.31 C4.53 6.47, 8.6 5.18, 10.17 -0.58 M3.84 25.68 C5.91 14.59, 13.2 12.36, 22.29 -2.44 M1.73 23.76 C6.91 16.1, 14.41 11.75, 23.1 1.82 M0.58 36.41 C11.79 27.25, 17.71 14.71, 33.62 2.35 M-0.3 37.06 C8.99 25.55, 17.49 16.33, 30.64 -0.65 M3.19 51.71 C15.9 34.12, 27.2 11.45, 38.67 0.54 M-1.65 48.01 C13.65 34.36, 27.57 19.29, 40.91 1.81 M-1.33 64.65 C16.24 40.16, 34.26 26.06, 55.07 -2.15 M1.95 59.36 C13.09 45.71, 24.85 34.28, 54.25 0.57 M3.8 72.31 C20.85 47.85, 52.71 19.36, 62.97 -2.54 M-1.02 71.07 C20.54 48.07, 41.4 24.87, 64.88 -0.36 M-1.11 84.19 C20.87 62.14, 45.02 35.51, 71.45 3.55 M-0.66 84.22 C28.16 53.41, 59.24 18.7, 72.71 0.86 M1.5 94.61 C24 69.99, 40.28 47.42, 84.82 -3.01 M1.48 98.98 C34.76 58.18, 65.62 18.61, 85.19 -0.93 M3.43 111.23 C36.99 77.29, 64.21 37.32, 97.09 2.92 M0.81 110.78 C36.16 69.27, 71.07 30.51, 97.1 -0.65 M1.18 123.32 C38.23 81.53, 73.04 32.67, 106.27 2.39 M1.62 120 C42.38 75.19, 85.54 26.24, 104.34 0.11 M-3.08 130.25 C45.21 84.37, 85.11 41.06, 116.13 0.73 M1.51 132.16 C24.04 104.06, 46.27 79.34, 115.13 -0.85 M4.82 140.68 C31.9 113.96, 57.76 80.95, 129.16 0.2 M3.09 142.58 C33.23 108.07, 64.24 74.68, 126.42 1.73 M17.54 141.18 C61.73 93.14, 103.48 36.85, 137.07 0.06 M16.01 140.61 C63.28 86.96, 106.66 37.41, 135.77 -1.66 M28.69 144.43 C68.8 91.49, 109.85 47.33, 145.74 1.27 M24.73 139.34 C72.15 84.86, 121.32 29.86, 149.78 0.86 M36.29 141.72 C67.28 108.12, 93.67 66.91, 160.93 2.81 M35.54 139.74 C60.47 112.18, 88.11 85.03, 159.29 0.47 M47.28 137.35 C78.52 107.88, 104.08 71.13, 170.72 1.3 M46.43 142.57 C71.69 111.04, 98.48 80.06, 169.1 -1.11 M59.88 140.33 C84.75 109, 113.98 78.08, 178.48 4.18 M56.9 139.63 C99.21 96.69, 137.14 54.23, 180.59 3.05 M65.29 144.65 C108.9 99.34, 145.62 54.63, 180.09 11.35 M67.13 139.66 C110.9 90.01, 154.47 41.52, 180.17 14.3 M80.71 142 C99.86 111.13, 128.41 83.3, 181.87 23.59 M78.41 140.53 C115.54 97.83, 155.27 52.32, 178.8 26.45 M91.79 137.83 C113.4 115.64, 141.78 82.64, 180.73 40.45 M89.02 142.95 C111.68 111.74, 134.91 84.37, 179.5 39.15 M101.59 140.02 C129.18 107.36, 161.56 73.41, 175.09 53.99 M98.65 142.65 C122.97 115.05, 151.47 84.32, 177.72 49.23 M108.34 139.23 C129.26 125.41, 143.05 105.57, 181.86 61.42 M111.58 140.28 C135.65 111.56, 161.73 80.03, 177.78 62.93 M119.8 140.53 C143.02 121.14, 158.1 90.56, 178.86 73.25 M122.49 140.67 C141.89 121.34, 160.06 98.74, 180.72 73.56 M131.61 143.01 C143.91 125.03, 162.37 115.37, 177.89 85.91 M132.25 141.95 C146.81 123.06, 164.24 106.7, 180.78 85.68 M141.7 139.43 C152.88 130, 164.38 114.44, 178.36 102.09 M141.76 142.76 C151.22 131.72, 159.68 121.4, 180.49 97.07 M152.67 143.86 C159.08 127.79, 167.13 120.03, 181.08 115.18 M151.75 139.45 C161.03 134, 163.8 125.14, 179.9 110.65 M162.11 143.23 C166.66 131.02, 175 128.86, 177.21 125.79 M164.57 141.28 C168.7 133.71, 173.47 129.42, 178.98 124.64" stroke="#ced4da" stroke-width="1" fill="none"></path><path d="M0.96 -2.17 C54.5 0.91, 106.28 -1.22, 174.8 3.79 M1.88 1.61 C38.71 -1.72, 76.14 -4.6, 178.56 0.18 M175.11 -0.88 C177.27 40.81, 180.33 86.6, 181.14 139.66 M176.63 -1.91 C175.86 29.42, 177.92 57.9, 176.28 137.69 M178.67 134.13 C140.67 135.04, 106.92 133.37, 2.27 136.23 M178.36 136.21 C108.43 137.48, 44.36 134.95, -0.19 138.01 M-1.78 133.05 C-0.16 102.41, 1.77 61.28, -3.02 2.94 M0.56 135.66 C-1.64 92.99, -0.57 52.19, 0.61 1.63" stroke="#000000" stroke-width="2" fill="none"></path></g><g transform="translate(2081.209763625044 1074.874212021382) rotate(359.4587704537732 53 56)"><text x="53" y="39" font-family="Virgil, Segoe UI Emoji" font-size="43.308048339135176px" fill="#000000" text-anchor="middle" style="white-space: pre;" direction="ltr">FIFO</text><text x="53" y="95" font-family="Virgil, Segoe UI Emoji" font-size="43.308048339135176px" fill="#000000" text-anchor="middle" style="white-space: pre;" direction="ltr">01</text></g><g stroke-linecap="round" transform="translate(2045.601170303658 511.8245818809737) rotate(359.27389701322335 88.60859332138602 66.60511712748485)"><path d="M0 0 C0 0, 0 0, 0 0 M0 0 C0 0, 0 0, 0 0 M1.75 12.84 C3.65 9.52, 3.31 6.72, 12.12 2.31 M1.07 10.51 C3.71 10.57, 4.33 5.85, 11.03 -0.13 M-0.94 22.37 C5.07 20.96, 12.8 7.81, 20.73 -3.86 M0.44 23.28 C9.13 17.21, 16.91 8.61, 20.97 -1.01 M2.27 38.32 C11.09 22.35, 25.77 11.28, 32.15 2.44 M-0.39 36.58 C6.37 29.31, 14.72 17.63, 33.15 0.66 M0.79 51.49 C6.35 33.89, 16.34 24.7, 43.2 -3.39 M-0.67 49.28 C10.09 39.09, 18.24 29.14, 42.93 0.37 M-0.47 58.81 C12.28 50.27, 25.01 31.92, 49.59 -1.88 M1.36 59.24 C19.85 39.55, 38.17 18.56, 55.04 0.69 M-3.62 76.11 C17.84 58.26, 30.07 33.99, 64.68 2.75 M1.11 71.09 C18.48 54.12, 34.43 36.88, 63.57 0.33 M-0.14 86.49 C23.65 61.28, 38.92 41.96, 77.86 -1.82 M-1.14 86.14 C23.27 60.61, 41.73 38.03, 73.76 1.44 M2.85 96.72 C23.59 69.43, 54.89 31.82, 88.93 -0.4 M0.83 98.35 C27.69 60.45, 61.37 23.56, 85.78 -1.28 M3.63 113.86 C22.73 80.35, 51.53 52.44, 98.46 1.41 M1.69 108.5 C21.33 85.27, 42.63 59.97, 96.58 -1.36 M0.25 125.38 C37.73 71.89, 79.42 31.71, 110.18 -3.26 M-1.59 123.89 C30.18 87.83, 61.59 49.08, 107.69 0.62 M3.61 131.77 C27.91 111.03, 52.44 78.63, 112.67 1.93 M0.7 132.52 C33.68 95.45, 71.05 49.86, 114.38 0.97 M13.61 134.87 C44.1 96.6, 72.32 65.65, 124.41 1.06 M10.64 134.95 C51.36 90.97, 85.34 49.56, 128.08 -0.93 M22.05 137.7 C58.04 86.17, 98.4 42.69, 140.17 -1.84 M23.03 133.73 C66.36 83.55, 109.53 27.85, 138.3 1.07 M34.53 131.87 C66.11 94.43, 94.91 55.59, 152.04 1.77 M30.69 132.32 C61.27 102.38, 91.44 71.65, 146.99 2.08 M46.29 137.27 C88.28 77.83, 134.57 32.85, 155.11 1.34 M41.77 132.4 C70.14 107.32, 93.74 78.77, 157.78 2.08 M56.59 137.69 C94.29 88.93, 139.66 38.99, 165.92 2.88 M53.56 133.05 C85.75 95.02, 114.33 61.08, 167.74 -0.87 M63.1 132.49 C100.89 90.45, 134.13 53.92, 179.43 -1.95 M64.3 131.91 C90.16 106.08, 116.75 79.25, 179.91 2.08 M76.27 136.15 C100 106.5, 127.55 71.89, 182.22 13.83 M75 132.38 C113.03 93.13, 148.8 53.27, 177.81 13.77 M81.71 133.95 C121.21 91.86, 160.65 46.36, 182.44 29.01 M85.26 132.82 C105.3 110.88, 122.8 91.8, 178.96 27.04 M94.52 137.59 C113.98 114.87, 134.31 93.87, 177.96 39.98 M95.06 133.73 C126.52 95.7, 161.01 59.22, 180.38 36.13 M105.75 132.8 C131.59 105.98, 147.5 85.33, 179.28 50.52 M104.59 134.93 C125.22 113.36, 138.62 94.33, 176.93 50.08 M120.7 134.95 C139.78 110.5, 159.42 88.7, 182.51 64.47 M116.06 134.75 C132.26 114.25, 150.84 93.58, 179.81 62.81 M129.33 136.74 C138.52 113.53, 156.25 99.87, 179.82 73.82 M129.5 135.25 C143.48 116.78, 159.29 97.53, 178.35 72.94 M136.62 131.72 C151.76 125.52, 156.36 110.33, 180.45 83.34 M136.59 133.33 C148.33 122.91, 160.65 108.22, 178.53 85.89 M148.96 134.04 C159.27 120.25, 165.92 116.79, 176.4 94.96 M148.48 134.01 C157.96 122.25, 169.13 109.88, 180.08 97.85 M156.52 129.95 C159.68 127.58, 169.97 127.73, 176.19 112.15 M161.56 133.55 C164.45 125.18, 173.05 119.15, 179.64 109.71 M168.53 130.89 C173.08 130.47, 174.29 129, 180.74 121.61 M169.64 132.93 C171.45 131.5, 175.25 128.34, 179.07 123.37" stroke="#ced4da" stroke-width="1" fill="none"></path><path d="M3.27 3.52 C70.01 3.31, 129.98 5.71, 173.87 -1.06 M0.38 1.22 C67.35 -4.51, 137.09 -2.67, 177.48 -0.16 M177.48 -2 C179.14 34.67, 179.73 70.25, 173.59 133.16 M175.89 0.8 C177.17 32.56, 175.5 64.71, 175.25 134.13 M176.41 132.56 C130.65 128.54, 83.98 130.32, 3.14 136.13 M175.5 134.42 C127.88 130.89, 75.8 133.44, -0.7 131.74 M-2.16 135.09 C0.95 81.32, -1.84 38.38, 0.63 1.77 M-0.43 132.61 C-0.11 90.92, -0.13 46.68, -1.11 0.96" stroke="#000000" stroke-width="2" fill="none"></path></g><g transform="translate(2081.209763625044 522.4296990084586) rotate(359.27389701322335 53 56)"><text x="53" y="39" font-family="Virgil, Segoe UI Emoji" font-size="43.308048339135176px" fill="#000000" text-anchor="middle" style="white-space: pre;" direction="ltr">FIFO</text><text x="53" y="95" font-family="Virgil, Segoe UI Emoji" font-size="43.308048339135176px" fill="#000000" text-anchor="middle" style="white-space: pre;" direction="ltr">29</text></g><g transform="translate(2127.6681896214527 684.3763017123001) rotate(0 7 62)"><text x="0" y="22" font-family="Virgil, Segoe UI Emoji" font-size="23.787541831244567px" fill="#000000" text-anchor="start" style="white-space: pre;" direction="ltr">.</text><text x="0" y="53" font-family="Virgil, Segoe UI Emoji" font-size="23.787541831244567px" fill="#000000" text-anchor="start" style="white-space: pre;" direction="ltr">.</text><text x="0" y="84" font-family="Virgil, Segoe UI Emoji" font-size="23.787541831244567px" fill="#000000" text-anchor="start" style="white-space: pre;" direction="ltr">.</text><text x="0" y="115" font-family="Virgil, Segoe UI Emoji" font-size="23.787541831244567px" fill="#000000" text-anchor="start" style="white-space: pre;" direction="ltr"></text></g><g stroke-linecap="round" transform="translate(2043.7406727974508 857.7119137299464) rotate(359.4587704537732 88.60859332138602 68.38918276482809)"><path d="M0 0 C0 0, 0 0, 0 0 M0 0 C0 0, 0 0, 0 0 M1.21 9.3 C5.52 9.26, 9.77 1.37, 13.57 0.5 M1.5 11.58 C3.58 7.93, 7.79 2.96, 12.06 0.6 M4.18 25.11 C3.76 17.11, 8.02 13.55, 24.18 -0.71 M2.04 25.92 C8.82 15.99, 12.47 10.44, 21.68 -0.3 M-0.8 38.61 C13.61 23.82, 25.38 8.21, 31.8 0.27 M1.56 35.63 C8.74 27.78, 19.46 14.63, 33.55 1.29 M-2.41 45.07 C13.68 34.47, 23.51 14.97, 39.47 -1.95 M0.72 47.31 C13.28 36.01, 23.47 20.49, 41.85 1.71 M3.34 62.88 C14 39.65, 29.58 27.99, 57.02 -3.36 M-0.25 62.06 C21.33 39.38, 40.97 14.07, 54.98 -0.52 M3.63 72.19 C9.78 57.86, 28.19 40.04, 61.45 -4.07 M-1.37 74.1 C23.57 46.44, 46.44 20.67, 63.09 -0.63 M-0.21 82.08 C24.92 62.95, 41.02 34.23, 72.55 -1.89 M-0.41 83.34 C17.41 64.1, 34.97 45.82, 75.28 -1.86 M2.31 97.62 C29.77 66.14, 64.58 28.02, 88.49 2.01 M-0.34 97.99 C28.76 65.54, 58.57 29.56, 86.81 0.4 M1.02 111.3 C38.62 69.92, 74.8 20.61, 97.51 1.49 M0.49 111.31 C38.43 66.55, 75.1 24.19, 96.25 0.39 M-3.17 121.89 C33.14 89.27, 60 48.33, 109.51 -4.18 M1.56 119.96 C21.42 97.11, 45.28 67.19, 104.69 -2.2 M4 133.81 C46.85 78.46, 92.92 31.16, 118.98 -3.22 M2.04 132.81 C38.86 90.18, 78.69 47.46, 116.25 0.35 M1.61 142.97 C49.29 83.97, 95.38 34.96, 123.34 4.07 M5.88 140.23 C40.54 98.53, 73.59 57.06, 127.92 0.59 M13.41 140.22 C51.14 99.84, 87.79 56.45, 138.53 0.16 M17.16 138.91 C60.24 87.57, 109.43 33.13, 138.81 2.2 M27.45 138.22 C72.73 92.29, 117.42 35.2, 145.35 -2.34 M25.3 142.27 C57.24 107.58, 86.82 77.84, 147.93 0.82 M32.86 142.75 C84.55 81.79, 130.73 27.1, 156.34 -1.51 M37.4 141.1 C70.1 102.16, 102.81 68.7, 158.74 -1.37 M49.55 141.87 C92.38 84.4, 140.59 32.61, 167.49 4.19 M45.49 140.26 C85.29 93.61, 123.7 51.63, 170.35 0.09 M55.83 140.28 C95.11 101.05, 122.68 58.21, 176.49 -0.15 M57.78 142.39 C100.38 97.51, 137.84 50.96, 177.39 3.37 M71.39 142.48 C102.09 101.59, 142.57 56.31, 177.14 10.51 M67.1 142.56 C105.98 97.5, 141.15 59.37, 179.91 14.1 M79.57 144.09 C97.67 119.94, 124.45 87.95, 178.57 24.36 M76.79 141.02 C110.77 105.07, 141.81 68.66, 180.27 24.08 M91 142.79 C113.91 112.22, 137.48 89.25, 178.66 41.31 M89.93 141.55 C114.06 117.01, 134.58 88.98, 179.99 37.23 M97.89 137.63 C125.89 114.98, 144.66 85.62, 176.13 53.57 M99.13 140.26 C113.62 119.4, 130.74 102.59, 177.53 49.65 M108.98 144.23 C135.4 113.32, 165.1 78.43, 180.87 60.95 M111.08 140.15 C126.86 123.9, 143.7 102.84, 178.08 62.35 M117.19 141.07 C138.31 120.48, 158.53 96.88, 181.56 73.84 M121.73 142.93 C141.38 113.97, 163.23 87.35, 178.8 75.65 M135.18 139.93 C143.59 127.63, 153.15 110.46, 179.96 88.5 M133.49 142.81 C140.89 129.11, 151.13 117.88, 178.66 85.92 M139.07 140.23 C156.64 125.36, 160.51 115.77, 177.85 102.23 M142.4 142.36 C150.62 130.51, 161.51 116.08, 178.96 100.19 M151.99 143.44 C162.88 132.49, 165.56 128.87, 176.03 108.49 M151.33 142.26 C162.29 130.64, 171.53 117.77, 177.85 112.69 M163.72 139.4 C169.74 139.9, 168.04 132.43, 180.55 124.24 M165.17 141.17 C168.68 137.3, 171.12 130.43, 178.13 123.66" stroke="#ced4da" stroke-width="1" fill="none"></path><path d="M1.39 -2.42 C71.43 -6.73, 134.22 -0.06, 180.97 3.22 M-1.65 1.34 C56.72 1.18, 112.92 -0.02, 176.16 -0.44 M178.21 3.92 C178.73 38.32, 175.8 81.48, 176.04 132.95 M177.88 -0.93 C179.23 30.01, 179.24 63.34, 177.94 135.45 M174.89 139.05 C127.1 140.96, 80.99 137.25, 2.28 135.65 M175.9 136.59 C140.5 138.35, 99.85 140.38, -0.89 134.91 M-3.01 133.76 C1.65 103.78, 0.48 70.75, 1.13 -2.23 M1.79 137.39 C2.46 97.58, 1.78 60.46, 0.85 1.31" stroke="#000000" stroke-width="2" fill="none"></path></g><g transform="translate(2079.349266118836 870.1010964947745) rotate(359.4587704537732 53 56)"><text x="53" y="39" font-family="Virgil, Segoe UI Emoji" font-size="43.308048339135176px" fill="#000000" text-anchor="middle" style="white-space: pre;" direction="ltr">FIFO</text><text x="53" y="95" font-family="Virgil, Segoe UI Emoji" font-size="43.308048339135176px" fill="#000000" text-anchor="middle" style="white-space: pre;" direction="ltr">02</text></g><g stroke-linecap="round" transform="translate(1746.8756707972193 655.5881634346924) rotate(269.24944320363574 394.5529936893588 179.44838623427881)"><path d="M1.52 -1.34 C311.52 5.15, 625.39 5.1, 789.41 0.98 M0.07 0.1 C216.09 -4.62, 431.89 -4.42, 789.16 -0.4 M790.93 -2.31 C790.2 135.98, 789.49 272.6, 787.42 359.92 M789.68 -1.25 C791.19 120.57, 791.07 241.07, 788.85 358.69 M788.89 360.15 C530.19 362.25, 269.85 362.03, -1.37 359.86 M789.6 358.62 C501.32 358.84, 214.35 357.56, -0.43 359.27 M1.87 359.3 C4.55 254.09, 4.14 146.29, -0.55 -0.77 M1.04 358.19 C-3.48 239.69, -3.54 121.49, 0.01 0.58" stroke="#000000" stroke-width="1" fill="none"></path></g><g stroke-linecap="round"><g transform="translate(2076.924697181571 1060.4570420835198) rotate(0 -0.4820295646518389 -19.76064105289447)"><path d="M-3.35 -1.06 C3.43 -9.05, 2.98 -24.87, 1.4 -39.37 M0.26 -0.16 C-1.68 -9.38, -1.41 -16.52, -2.04 -36.66" stroke="#5c940d" stroke-width="2" fill="none"></path></g></g><mask></mask><g stroke-linecap="round"><g transform="translate(2082.859166355662 1023.8793710092659) rotate(0 -122.74142364868408 1.9675724131852803)"><path d="M-0.88 2.74 C-55.39 0.31, -116.43 0.7, -245.35 1.57 M-0.13 -0.78 C-90.63 1.74, -179.42 2.86, -243.12 4.71" stroke="#5c940d" stroke-width="2" fill="none"></path></g></g><mask></mask><g stroke-linecap="round"><g transform="translate(2081.1142098397972 856.1930324579084) rotate(0 0.8999997936437012 -16.170608883478053)"><path d="M3.32 3.75 C4.37 -14.26, 4.12 -31.09, -2 -35.37 M-0.94 -1.05 C-0.14 -11.62, -0.29 -21.85, 1.81 -36.1" stroke="#5c940d" stroke-width="2" fill="none"></path></g></g><mask></mask><g stroke-linecap="round"><g transform="translate(2080.6815194732476 815.810705439912) rotate(0 -118.57650495068833 1.0111092031950193)"><path d="M3.12 2.67 C-51.69 5.43, -105.51 0.71, -239.67 0.59 M-0.87 -0.37 C-75.59 -2.63, -150.02 -1.3, -240.27 1.49" stroke="#5c940d" stroke-width="2" fill="none"></path></g></g><mask></mask><g stroke-linecap="round"><g transform="translate(2081.100014790128 509.7547690383808) rotate(0 1.8105189155230619 -17.58666656224591)"><path d="M3.22 0.76 C2.6 -10.42, -2.44 -16.02, 2.98 -33.6 M-0.44 0.13 C0.09 -8.28, 2.35 -17.95, 4.06 -35.93" stroke="#5c940d" stroke-width="2" fill="none"></path></g></g><mask></mask><g stroke-linecap="round"><g transform="translate(1830.329424823674 477.54396252709284) rotate(0 3.5103302222848924 274.0586841556749)"><path d="M0.3 0.98 C5.71 208.72, 9.21 420.27, 5.46 548.4 M0.05 -0.4 C-0.32 138.91, 1.13 277.99, 4.52 548.52" stroke="#5c940d" stroke-width="2" fill="none"></path></g></g><mask></mask><g stroke-linecap="round"><g transform="translate(1763.4038512085367 526.0978100518) rotate(0 -42.24514516576687 -45.70829282041245)"><path d="M2.45 -1.04 C-38.22 -16.62, -68.67 -38.43, -86.92 -51.75 M-1 1.66 C-20.7 -10.26, -41.18 -26.37, -86.64 -51.08 M-85 -48.39 C-62.12 -62, -39.26 -75.42, -2.1 -93.08 M-86.94 -49.27 C-59.42 -62.51, -30.73 -76.2, -2.48 -92.15" stroke="#000000" stroke-width="2" fill="none"></path></g></g><mask></mask><g stroke-linecap="round"><g transform="translate(1776.5265127017024 522.1610116038519) rotate(0 -11.921534662753402 -45.76846300464695)"><path d="M-1.04 -3.31 C-6.44 -13.83, -17.6 -28.98, -25.51 -40.16 M1.66 0.49 C-4.65 -9.37, -14.99 -21.41, -24.83 -38.65 M-22.14 -36.74 C-20.2 -47.68, -17.71 -58.92, -2.53 -91.72 M-23.03 -39.22 C-17.05 -51.14, -11.4 -62.3, -1.6 -92.03" stroke="#000000" stroke-width="2" fill="none"></path></g></g><mask></mask><g stroke-linecap="round"><g transform="translate(1671.5452207563883 476.2316963777748) rotate(0 -68.3877695902562 2.064342501384999)"><path d="M-3.31 2.69 C-42.71 1.07, -86.5 -0.08, -137.27 3.05 M0.49 1.96 C-40.05 1.64, -82.97 3.45, -135.75 2.02" stroke="#5c940d" stroke-width="2" fill="none"></path></g></g><mask></mask><g stroke-linecap="round"><g transform="translate(2084.306199260716 474.62150661764827) rotate(0 -161.86109114149372 -0.3595259412966243)"><path d="M1.86 0.25 C-116.75 -3.35, -235.51 -4.01, -324.87 1.8 M1.36 1 C-82.34 1.5, -163.02 1.51, -325.58 0.69" stroke="#5c940d" stroke-width="2" fill="none"></path></g><g transform="translate(2084.306199260716 474.62150661764827) rotate(0 -161.86109114149372 -0.3595259412966243)"><path d="M-294.66 -9.09 C-307.08 -6.57, -319.68 -4.7, -326.47 0.96 M-295.39 -8.01 C-306.06 -6.8, -312.52 -4.83, -327.5 -0.63" stroke="#5c940d" stroke-width="2" fill="none"></path></g><g transform="translate(2084.306199260716 474.62150661764827) rotate(0 -161.86109114149372 -0.3595259412966243)"><path d="M-294.75 11.43 C-307.03 6.54, -319.6 1, -326.47 0.96 M-295.47 12.51 C-306.46 8.59, -312.9 5.43, -327.5 -0.63" stroke="#5c940d" stroke-width="2" fill="none"></path></g></g><mask></mask><g transform="translate(1739.5707304733933 769.8551948566942) rotate(269.79944238551366 67.5 20)"><text x="0" y="28" font-family="Virgil, Segoe UI Emoji" font-size="30.784974397756475px" fill="#5c940d" text-anchor="start" style="white-space: pre;" direction="ltr">full_flag</text></g><g stroke-linecap="round" transform="translate(2742.3304804046497 1039.0947320252917) rotate(359.4587704537732 92.70241070893735 71.54884048005238)"><path d="M0 0 C0 0, 0 0, 0 0 M0 0 C0 0, 0 0, 0 0 M0.93 11.86 C3.74 10.31, 9.57 1.84, 9.26 -0.62 M-0.08 10.53 C5.22 8.53, 8.17 2.69, 9.99 1.28 M-0.32 22.2 C11.2 15.12, 15.69 7.43, 22.7 -0.79 M0.4 25.35 C5.11 16.86, 12.27 9.85, 20.96 -1.56 M2.27 38.39 C10.68 25.91, 28.14 9.04, 34.46 -3.38 M0.08 35.25 C6.77 26.26, 15.17 18.26, 32.25 -0.25 M0.69 49.94 C11.79 29.97, 33.53 14.04, 40.37 0.38 M-1.91 48.07 C16.95 32.47, 30.5 13.08, 40.8 1.76 M3.78 62.68 C12.67 46.68, 29.15 21.71, 56.26 2.83 M0.46 62.44 C19.91 36.75, 39.47 15.22, 51.24 1.14 M-0.27 74.08 C12.68 55.29, 27.04 39.84, 65.23 2.07 M1.87 72.21 C19.27 49.78, 37.05 28.21, 64.88 0.82 M-1.03 88.41 C22.61 63.31, 37.89 42, 73.3 -3.66 M2.22 84.98 C28.75 56.75, 55.46 25.06, 74.92 -2.19 M1.22 95.84 C23.71 72.94, 51.38 44.13, 89.03 -1.56 M1.15 98.69 C25.47 65.18, 55.95 33.85, 83.66 1.02 M1.7 107.78 C33.01 74.99, 62.95 37.69, 99.13 -1.96 M1.82 108.42 C21.17 85.89, 40.2 58.39, 97.64 -0.94 M2.79 123.85 C39.13 72.12, 78.82 32.73, 104.11 0.12 M-1.78 122.69 C42.57 74.66, 82.5 25.42, 104.86 -1.94 M-3.64 135.15 C45.65 82.67, 93.18 32.9, 117.22 4.04 M-1.09 134.32 C24.24 103.11, 51.18 75.6, 117.3 2.24 M3.96 141.95 C47.75 94.31, 90.55 42.44, 130.71 -1.08 M2.92 143.42 C34.73 109.48, 63.86 74.93, 126.74 0.68 M13.75 145.99 C62.26 94.31, 114.46 39.09, 135.55 2.58 M14.16 145.2 C54.49 94.45, 96.08 46.53, 136 -0.3 M20.51 148.03 C56.28 105.99, 86.33 72.87, 151.61 0.84 M21.02 144.97 C44.89 112.42, 71.15 83.57, 146.75 1.63 M31.46 148.07 C76.95 96.2, 112.63 51.82, 162.7 -1.34 M31.74 145.73 C76.06 91.74, 123.21 41.97, 158.06 1.36 M40.75 142.21 C70.73 118.32, 95.68 86.12, 168.16 2.54 M44.46 142.54 C73.31 106.35, 104.78 72.53, 167.58 0.2 M57.07 145.13 C85.71 98.46, 127.49 61.46, 182.49 -1.1 M56.42 144.37 C102.98 89.48, 148.69 35.32, 178.72 1.64 M63.25 144.38 C98.67 109.51, 127.13 67.81, 188.99 2.68 M67.09 145.91 C101.24 99.51, 142.43 53.91, 187.85 3.48 M75.92 146.8 C96.76 119.15, 119.58 88.48, 192.14 15.51 M75.42 145.34 C115.26 98.2, 153.79 53.36, 188.27 13.36 M89.11 140.88 C120.69 105.52, 152.92 64.1, 187.51 30.43 M86.97 144.18 C112.56 112.01, 141.02 82.15, 189.64 28.95 M93.9 143.14 C122.58 115.75, 144.11 94.06, 189.84 41.97 M99.15 145.1 C119.25 118.36, 142.5 88.83, 189.64 37.46 M110.01 144.49 C134.27 112.1, 161.17 84.63, 191.78 47.65 M108.37 143.72 C124.08 127.41, 139.9 109.22, 190.3 52.61 M117.46 140.63 C137.54 118.15, 165.19 90.03, 186.94 67.17 M119.24 142.42 C145.12 113.77, 173.93 80.47, 188.55 63.17 M127.53 143.18 C149.98 118.26, 171.73 92.49, 188.77 77.52 M127.13 142.93 C141.86 128.32, 156.35 113.61, 188.74 75.61 M140.98 142.98 C149.39 128.3, 170.72 108.64, 184.85 84.3 M137.91 145.1 C152.15 127.12, 163.83 114.89, 188.45 86.81 M151.79 141.08 C157.19 134, 168.08 123.39, 184.6 100.66 M151.29 143.24 C161.59 131.82, 173.75 116.59, 187.73 98.42 M161.35 144.03 C166.94 131.01, 181.61 122.33, 189.49 114.66 M160.54 144.94 C170.11 136.37, 175.39 124.09, 186.95 113.69 M169.49 143.04 C174.48 136.08, 184.62 128.1, 188.02 120.37 M171.12 143.61 C177.68 138.79, 184.38 133.4, 187.29 124 M179.85 144.5 C183.13 140.44, 187.24 139.74, 187.47 137.08 M181.71 144.48 C183.46 141.54, 187.07 140.2, 188.75 137.28" stroke="#ced4da" stroke-width="1" fill="none"></path><path d="M0.52 -0.31 C38.4 -2.44, 79.68 -0.06, 183.41 3.33 M-1.82 -0.03 C59 -3.26, 118.51 -3.99, 186.21 0.74 M181.47 1.84 C182.85 49.1, 181.42 94.49, 184.75 144.28 M186.97 1.46 C186.74 35.74, 186.46 67.49, 186.61 144.38 M184 140.17 C144.66 143.61, 94.83 143.22, 1.88 142.87 M185.72 143.98 C144.34 146.38, 100.92 145.39, -0.6 143.74 M-2.21 145.01 C-1.16 89.05, 1.74 31.62, 1.84 -1.38 M1.96 141.55 C-1.51 97.41, -1.97 46.99, -1.29 1.94" stroke="#000000" stroke-width="2" fill="none"></path></g><g transform="translate(2762.532891113587 1052.6435725053439) rotate(359.4587704537732 72.5 58)"><text x="72.5" y="41" font-family="Virgil, Segoe UI Emoji" font-size="45.428586842039444px" fill="#000000" text-anchor="middle" style="white-space: pre;" direction="ltr">Window</text><text x="72.5" y="99" font-family="Virgil, Segoe UI Emoji" font-size="45.428586842039444px" fill="#000000" text-anchor="middle" style="white-space: pre;" direction="ltr">01</text></g><g stroke-linecap="round" transform="translate(2742.497976821484 832.3436831425083) rotate(359.6927864776797 92.5349142921043 70.54434621033352)"><path d="M0 0 C0 0, 0 0, 0 0 M0 0 C0 0, 0 0, 0 0 M-0.37 14.9 C4.14 7.88, 4.29 5.04, 13.76 0.79 M1.11 13.21 C2.43 9.47, 4.58 7.74, 12.05 1.44 M3.48 24.91 C8.15 17.28, 18.34 4.5, 20.72 1.66 M-0.69 24.04 C8.01 14.95, 15.11 4.86, 23.08 -1.32 M-2.35 40.2 C10.85 27.45, 19.4 13.17, 29.61 -3.95 M-1.75 35.35 C8.9 25.14, 20.35 13.82, 32.73 -1.71 M-3.59 47.58 C20.32 28.72, 31.44 10.21, 45.85 1.78 M1.07 50.85 C9.84 38.34, 20.4 26.6, 42.26 0.97 M-1.91 64.62 C16.08 36.13, 37.8 22.28, 56.64 -0.98 M-0.91 59.8 C10.64 46.37, 23.5 31.95, 51.64 0.93 M-0.79 71.61 C18.05 50.84, 38.94 32.13, 63.3 -3.17 M-0.14 72.07 C23.18 43.18, 50.23 16.72, 63.1 -1.91 M1.46 86.78 C23.91 56.63, 52.33 19.85, 76.96 -0.46 M1.68 86.77 C16.94 66.39, 33.49 43.61, 74.32 -0.09 M-1.35 101.38 C23.2 76.19, 48.64 44.92, 86.17 1.14 M-1.83 98.76 C31.76 61.54, 61.97 23.67, 85.64 1.15 M2.97 111.04 C27.37 79.96, 56.52 46.92, 92.49 -0.34 M0.05 111.48 C31.11 69.08, 70.29 29.47, 97.21 -2.27 M-3.32 118.69 C28.94 84.87, 64.78 42.38, 110.14 -0.49 M0.38 123.27 C33.26 83.86, 66.46 43.95, 108.18 -1.49 M-1.64 133.9 C30.39 104.18, 59.11 73.11, 113 2.63 M0.41 132.18 C38.1 93.8, 71.68 56.22, 117.28 -0.11 M4.48 145.02 C47.56 92.47, 96.71 37.68, 124.8 -0.12 M4.71 143.48 C37.4 104.01, 73.75 60.81, 128.56 -1.43 M12.42 146.25 C40.75 116.28, 60.15 87.11, 138.85 -2.12 M11.7 142.29 C49.32 94.81, 89.6 48.95, 136.7 1.93 M26.92 143.19 C67.35 97.81, 110.74 47.55, 144.26 2.41 M21.73 142.44 C70.68 89.85, 115.53 39.88, 148.79 0.76 M36.78 143.52 C71.22 99.94, 117.19 50.39, 160.95 1.53 M33.32 142.67 C79.46 95.27, 117.54 49.2, 156.89 -0.08 M45.26 145.45 C76.2 110.47, 104.39 80.02, 167.22 -0.06 M43.08 142.47 C88.56 94.23, 132.84 41.87, 169.17 2.05 M53.02 140.85 C103.07 91.91, 148.07 36.08, 183.44 1.38 M56.3 142.69 C81.41 109.42, 111.68 75.94, 179.15 1.46 M69.75 145.61 C108.44 93.8, 148.09 51.38, 189 6.01 M64.04 143.31 C92.93 107.1, 122.77 73.6, 186.22 2.94 M73.81 146.02 C110.67 97.85, 155.29 56.54, 189.93 16.78 M78.42 143.25 C120.03 94.52, 159.21 46.45, 188.87 15.55 M87.84 145.16 C121.83 101.75, 159.26 62.96, 186.33 23.71 M85.73 142.22 C127.28 96.91, 165.98 55.76, 187.57 26.34 M98.4 141.25 C118.78 123.36, 143.05 98.28, 186.92 42.38 M97.68 144.48 C119.53 113.5, 145.94 84.64, 189.02 38.3 M107.56 142.04 C132.22 115.87, 161.18 81.6, 184.63 51.29 M108.52 144.73 C128.86 121.18, 152.14 96.35, 189.17 53.15 M116.58 143.18 C138.38 123.48, 151.46 109.67, 191.47 62.98 M118.29 143.82 C138.78 120.6, 156.98 100, 189.78 65.87 M129.49 142.61 C143.05 127.11, 159.7 111.82, 184.86 75.36 M129.98 142.67 C154.86 118.19, 176.04 92.39, 188.19 77.49 M136.72 142.91 C153.14 128.75, 157.12 116.05, 187.28 90.64 M140.7 141.99 C158.29 123.59, 178.63 98.73, 186.63 89.46 M150.76 141.69 C162.45 130.36, 165.82 122.45, 188.52 98.68 M150.9 144.15 C164.01 127.64, 176.23 111.47, 189.97 100.45 M157.75 141.96 C171.16 134.64, 181.38 123.91, 188.66 116.11 M163.54 144.97 C169.94 131.3, 179.34 122.34, 190.29 112.86 M169.1 142.52 C177.8 136.48, 182.24 127.32, 189.03 125.48 M173.3 143.55 C177.5 141.18, 177.36 135.57, 189.43 125.45 M182.24 142.01 C185.38 141.76, 185.83 139.27, 189.11 136.1 M182.46 142.71 C184.57 142.55, 185.57 140.79, 187.62 136.7" stroke="#ced4da" stroke-width="1" fill="none"></path><path d="M-1.89 -2.11 C56.29 0.56, 112.35 3.61, 186.06 3.92 M-1.21 -0.59 C66.92 -1.28, 138.48 0.79, 185.73 -0.93 M183.85 1.45 C179.65 47.93, 181.64 98.67, 182.74 143.36 M184.78 1.14 C186.72 38.69, 188.49 82.09, 183.75 140.9 M187.75 139.31 C114.39 136.21, 53.06 138.14, -3.01 138.07 M185.69 141.65 C114.84 142.29, 46.24 143.36, 1.79 141.7 M-0.28 142.8 C4.18 87.28, 3.4 32.02, 1.3 0.65 M-1.04 142.98 C-4.27 89.33, -4.05 41.43, 1.31 -0.47" stroke="#000000" stroke-width="2" fill="none"></path></g><g stroke-linecap="round" transform="translate(2742.3304804046497 462.9931481910089) rotate(359.27389701322335 92.70241070893735 69.68234898926835)"><path d="M0 0 C0 0, 0 0, 0 0 M0 0 C0 0, 0 0, 0 0 M2.99 13.32 C2.59 6.78, 6.38 7.35, 11.45 -1.93 M1.3 11.78 C3.51 7.81, 7.7 6.41, 12.1 1.48 M1.1 23.62 C9.01 18.29, 11.75 9.42, 22.99 2.39 M0.22 24.27 C6.26 16.58, 11.34 11.3, 20.01 -0.61 M3.06 39.67 C12.05 26.36, 19.53 8.07, 28.04 0.57 M-1.78 35.97 C9.99 25.99, 20.58 14.75, 30.28 1.85 M-1.46 52.61 C12.8 31.8, 27.46 21.57, 44.44 -2.12 M1.81 47.32 C10.64 36.34, 20.19 27.45, 43.62 0.61 M3.67 60.27 C16.68 40.47, 44.4 16.74, 52.34 -2.51 M-1.15 59.03 C17.21 39.83, 34.68 20.52, 54.25 -0.33 M-1.25 72.15 C17.76 53.54, 38.88 30.42, 60.82 3.59 M-0.79 72.17 C23.88 46.01, 50.9 15.95, 62.08 0.89 M2.02 81.81 C21.76 60.69, 35.06 41.56, 74.19 -2.97 M2 86.18 C30.85 50.64, 57.27 16.16, 74.56 -0.89 M3.3 99.19 C33.2 69.25, 56.89 33.36, 86.46 2.96 M0.68 98.74 C32.25 61.53, 63.28 27.23, 86.47 -0.62 M1.05 111.28 C34.35 73.82, 65.54 29.13, 95.64 2.42 M1.49 107.96 C37.9 67.96, 76.9 23.8, 93.71 0.15 M-3.21 118.21 C41.55 76.35, 77.81 37.22, 106.15 0.01 M1.37 120.12 C21.93 94.43, 42.1 72.09, 105.16 -1.57 M0.1 133.92 C26 108.54, 50.66 76.93, 118.53 0.23 M-1.63 135.82 C27.12 102.94, 56.73 71.17, 115.79 1.77 M5.6 142.73 C50.28 94.14, 92.5 37.3, 126.44 0.1 M4.07 142.15 C51.84 87.93, 95.7 37.82, 125.14 -1.62 M16.75 145.98 C57.29 92.52, 98.78 47.86, 135.11 1.31 M12.79 140.89 C60.72 85.82, 110.41 30.22, 139.15 0.89 M24.35 143.26 C55.63 109.28, 82.33 67.7, 150.3 2.84 M23.6 141.28 C48.79 113.43, 76.71 85.97, 148.66 0.5 M35.34 138.9 C66.88 109.03, 92.76 71.9, 160.09 1.33 M34.49 144.12 C60.01 112.28, 87.07 80.97, 158.47 -1.07 M47.94 141.87 C73.4 109.89, 103.21 78.32, 169.16 2.71 M44.96 141.17 C88.16 97.32, 126.91 53.9, 171.27 1.58 M54 145.44 C102.02 95.15, 143.21 45.3, 181.27 -2.2 M55.85 140.45 C104.39 85.19, 152.74 31.2, 181.35 0.75 M69.42 142.79 C93.75 105.57, 127.47 71.78, 191.58 0.23 M67.13 141.32 C111.96 89.72, 159.79 34.89, 188.51 3.09 M80.5 138.62 C107.87 109.75, 142.31 69.79, 189.79 17.85 M77.73 143.74 C105.64 105.85, 134.37 72.15, 188.55 16.54 M89.65 141.57 C125.49 99.84, 165.7 56.88, 184.8 30.63 M86.71 144.19 C117.89 109.05, 153.24 70.44, 187.43 25.87 M96.4 140.78 C122.12 121.53, 140.58 96.32, 191.56 38.06 M99.64 141.83 C132 103.35, 166.61 62.01, 187.49 39.57 M107.86 142.07 C138.67 114.01, 161.39 74.64, 188.57 49.89 M110.55 142.22 C137.05 114.84, 162.23 84.19, 190.43 50.2 M119.66 144.55 C138.32 120.05, 162.69 103.58, 187.6 62.55 M120.31 143.49 C142.56 116.43, 167.26 91.71, 190.48 62.32 M129.76 140.98 C146.92 124.92, 164.22 102.71, 187.41 79.49 M129.82 144.3 C144.6 127.65, 157.9 111.74, 189.54 74.47 M140.72 145.4 C154.86 121.11, 170.4 104.73, 190.79 91.81 M139.8 141 C154.19 129.54, 162.13 114.73, 189.61 87.29 M150.17 144.78 C162.77 123.87, 178.69 112.97, 186.92 102.43 M152.63 142.82 C165.28 125.93, 178.2 112.26, 188.68 101.28 M161.11 142.6 C173.19 134.09, 181.85 123.48, 192.44 114.65 M164.11 141.08 C169.62 131.05, 179.85 125.11, 189.19 112.93 M172.33 142.52 C176.45 137.23, 177.44 134.15, 189.14 120.56 M173.35 144.36 C179.55 135.31, 182.47 132.59, 189.11 124.7" stroke="#ced4da" stroke-width="1" fill="none"></path><path d="M-2.11 -0.88 C58.29 -0.25, 119.37 2.74, 189.33 2.88 M-0.59 -1.91 C37.47 3.05, 78.33 2.9, 184.47 0.91 M186.85 -2.65 C185.88 27.46, 187.87 53.89, 187.68 138.82 M186.54 -0.57 C185.73 53.95, 188.72 104.17, 185.22 140.6 M183.63 135.63 C134.11 143.73, 86.91 138.84, -3.02 142.3 M185.97 138.25 C126.43 139.91, 68.96 142.3, 0.61 141 M1.71 141.99 C-1.3 107.1, -2.72 72.46, 0.65 2.4 M1.89 137.86 C1.2 82.6, 4.1 29.73, -0.47 -1.9" stroke="#000000" stroke-width="2" fill="none"></path></g><g transform="translate(2762.532891113587 474.67549718027703) rotate(359.27389701322335 72.5 58)"><text x="72.5" y="41" font-family="Virgil, Segoe UI Emoji" font-size="45.428586842039444px" fill="#000000" text-anchor="middle" style="white-space: pre;" direction="ltr">Window</text><text x="72.5" y="99" font-family="Virgil, Segoe UI Emoji" font-size="45.428586842039444px" fill="#000000" text-anchor="middle" style="white-space: pre;" direction="ltr">29</text></g><g stroke-linecap="round" transform="translate(2436.4296944897546 638.0596236298225) rotate(269.24944320363574 398.6554297186565 187.7391049580192)"><path d="M0.11 -0.8 C202.94 1.81, 404.79 2.56, 795.86 -0.02 M-0.53 0.32 C191.23 6.37, 381.49 6.47, 796.52 0.37 M796.82 -0.4 C799.68 99.77, 800.35 202.03, 799.22 377.25 M796.27 0.73 C800.69 106.44, 799.79 215.23, 796.89 374.59 M796.45 376.23 C504.64 368.33, 210.95 370.7, 0.25 376.18 M797.14 375.24 C533.73 372.64, 269.89 372.57, -0.44 375.86 M0.02 376.6 C-2.79 266.3, -1.55 157, 2.38 -1.88 M-0.58 374.7 C-3.13 283.14, -4.59 188.04, 0.07 -0.28" stroke="#000000" stroke-width="1" fill="none"></path></g><g transform="translate(2828.1890889807105 643.5169529456984) rotate(0 7 66)"><text x="0" y="23" font-family="Virgil, Segoe UI Emoji" font-size="24.886553210452973px" fill="#000000" text-anchor="start" style="white-space: pre;" direction="ltr">.</text><text x="0" y="56" font-family="Virgil, Segoe UI Emoji" font-size="24.886553210452973px" fill="#000000" text-anchor="start" style="white-space: pre;" direction="ltr">.</text><text x="0" y="89" font-family="Virgil, Segoe UI Emoji" font-size="24.886553210452973px" fill="#000000" text-anchor="start" style="white-space: pre;" direction="ltr">.</text><text x="0" y="122" font-family="Virgil, Segoe UI Emoji" font-size="24.886553210452973px" fill="#000000" text-anchor="start" style="white-space: pre;" direction="ltr"></text></g><g stroke-linecap="round"><g transform="translate(2172.826579600998 1063.5545143162822) rotate(0 1.2350512762441213 -21.18340719982507)"><path d="M3.33 0.99 C4.38 -8.82, -2.66 -23.48, -0.58 -43.36 M0.74 0.66 C0 -7.72, -0.65 -16.33, 1.24 -41.45" stroke="#5c940d" stroke-width="2" fill="none"></path></g></g><mask></mask><g stroke-linecap="round"><g transform="translate(2366.6618396385043 1016.9236465355871) rotate(0 -96.5075855991945 1.4931924706324935)"><path d="M0.99 3.92 C-56.3 0.73, -118.37 3.1, -194.01 -0.05 M0.66 -0.93 C-44.14 0.34, -89.2 2.58, -192.1 2.45" stroke="#5c940d" stroke-width="2" fill="none"></path></g></g><mask></mask><g stroke-linecap="round"><g transform="translate(2176.3582809770346 855.7906192505225) rotate(0 0.48737671766707535 -17.601342441510496)"><path d="M3.92 2.88 C-4 -8.92, -2.57 -18.91, -2.95 -38.08 M-0.93 0.91 C-1.93 -11.14, -0.27 -23.39, -0.44 -35.84" stroke="#5c940d" stroke-width="2" fill="none"></path></g></g><mask></mask><g stroke-linecap="round"><g transform="translate(2362.1335074782296 817.2334958599481) rotate(0 -92.7507594841602 0.21276723670257525)"><path d="M2.88 -3.63 C-71.21 2.16, -143.49 1.69, -188.38 4.06 M0.91 -1.97 C-61.66 -1.52, -124.45 -1.41, -186.14 2.12" stroke="#5c940d" stroke-width="2" fill="none"></path></g></g><mask></mask><g stroke-linecap="round"><g transform="translate(2185.8305676169743 506.47213673068654) rotate(0 -3.499124561798453 -16.960043869908986)"><path d="M-3.63 -0.05 C-4.39 -12.63, -7.08 -25.61, -2.33 -33.95 M-1.97 0.92 C-1.59 -11.04, -3.61 -23.97, -4.26 -34.84" stroke="#5c940d" stroke-width="2" fill="none"></path></g></g><mask></mask><g stroke-linecap="round"><g transform="translate(2370.967296527688 465.87287617699667) rotate(0 -93.89376791091559 1.3267165497961741)"><path d="M-0.05 -2.42 C-76.46 -5.48, -153.28 1.75, -187.82 5.81 M0.92 -0.61 C-47.18 -3.91, -96.25 -1.77, -188.71 3.32" stroke="#5c940d" stroke-width="2" fill="none"></path></g></g><mask></mask><g stroke-linecap="round" transform="translate(2351.120757871723 265.47386035384943) rotate(359.1557561466207 141.3455856843725 43.58621766442843)"><path d="M-1.85 -0.9 C102.23 -1.96, 211.52 1.19, 283.7 -1.42 M-0.47 0.55 C96.65 -2.29, 195.08 -1.53, 281.8 0.87 M282.12 2.28 C282.93 21.53, 286.48 52.49, 280.06 86.8 M284.03 -0.89 C280.22 30.45, 283.02 62.95, 281.19 85.66 M283.63 88.03 C175.42 88.42, 70.63 90.05, 2.73 88.11 M282.58 87.82 C175.81 89.25, 67.62 88.71, 0.49 87.42 M-2.08 90.95 C-4.72 53.87, -4.28 28.28, 2.63 -0.95 M-0.21 88.51 C0.82 70.32, 0.41 51.86, 0.67 -1.71" stroke="#000000" stroke-width="2" fill="none"></path></g><g stroke-linecap="round"><g transform="translate(1544.5927879103303 472.24927263081236) rotate(0 -1.8990627568265381 -73.12214986290701)"><path d="M-1.18 -3.83 C-3.17 -28.69, 0.41 -59.24, -4.52 -142.83 M0.73 -1.32 C-2.27 -29.51, -1.81 -59.53, -1.52 -144.92" stroke="#5c940d" stroke-width="2" fill="none"></path></g></g><mask></mask><g stroke-linecap="round"><g transform="translate(1541.9386930701078 327.60110383860956) rotate(0 401.33923986041725 -8.25255934902998)"><path d="M-1.53 -1.06 C240.68 -1.92, 480.54 -7.68, 804.21 -16.34 M-0.53 -0.16 C277.88 -7.2, 555.52 -12.1, 803.37 -14.14" stroke="#5c940d" stroke-width="2" fill="none"></path></g></g><mask></mask><g stroke-linecap="round"><g transform="translate(2366.509834396328 1015.7381345911008) rotate(0 0.5928586993215959 46.365842198410974)"><path d="M1.32 -1.87 C2.62 18.31, 2.67 43.27, 1.59 92.52 M-1.16 1.14 C-0.54 28.19, 1.23 52.96, 1.28 94.6" stroke="#5c940d" stroke-width="2" fill="none"></path></g></g><mask></mask><g stroke-linecap="round"><g transform="translate(2367.204865827361 813.6933989145414) rotate(0 1.1405813251612926 41.37198627158841)"><path d="M1.82 -3.93 C2.9 27.6, 3 54.97, 0.66 84.82 M-0.27 1.57 C0.95 27.86, 1.11 55.76, -0.25 86.68" stroke="#5c940d" stroke-width="2" fill="none"></path></g></g><mask></mask><g stroke-linecap="round"><g transform="translate(2377.283224609822 895.9205043967322) rotate(0 179.67303138650232 1.4667580490440741)"><path d="M-2.48 1.16 C119.45 -0.42, 238.78 -1.11, 360.65 2.96 M0.99 0.92 C87.14 1.87, 174.28 0.61, 361.83 3.02" stroke="#5c940d" stroke-width="2" fill="none"></path></g></g><mask></mask><g stroke-linecap="round"><g transform="translate(2367.4554312042833 470.2614791868491) rotate(0 3.106612593099044 30.449745366472825)"><path d="M1.84 -1.22 C2.91 13.49, 1.53 31.55, 4.66 61.11 M1.46 -0.29 C2.21 22.01, 0.59 46.43, 4.75 62.12" stroke="#5c940d" stroke-width="2" fill="none"></path></g></g><mask></mask><g stroke-linecap="round"><g transform="translate(2369.027812137951 532.4926531953247) rotate(0 185.08824975113203 -2.130383010806554)"><path d="M-0.75 0.89 C126.86 -4.27, 256.51 -4.73, 370.31 -3.46 M-0.18 0.7 C106.06 -5.78, 213.61 -5.33, 370.93 -4.97" stroke="#5c940d" stroke-width="2" fill="none"></path></g></g><mask></mask><g transform="translate(2459.845618482371 841.5221681409803) rotate(0.17839709496844833 63 20)"><text x="0" y="28" font-family="Virgil, Segoe UI Emoji" font-size="30.78497439775648px" fill="#5c940d" text-anchor="start" style="white-space: pre;" direction="ltr">empty_f</text></g><g transform="translate(2364.8683308496275 284.4727678158756) rotate(0 126.5 23)"><text x="0" y="32" font-family="Virgil, Segoe UI Emoji" font-size="36px" fill="#000000" text-anchor="start" style="white-space: pre;" direction="ltr">Scheduler FSM</text></g><g stroke-linecap="round"><g transform="translate(2367.004267197712 1105.988302949018) rotate(0 185.76459577640685 1.8949848750678484)"><path d="M-0.05 0.96 C85.13 3.59, 170.39 8.6, 371.58 1.58 M0.41 0.74 C84 -2.79, 165.91 -2.13, 370.15 4.49" stroke="#5c940d" stroke-width="2" fill="none"></path></g></g><mask></mask><g transform="translate(2453.2862492674926 467.20923610586715) rotate(0.17839709496844833 63 20)"><text x="0" y="28" font-family="Virgil, Segoe UI Emoji" font-size="30.78497439775648px" fill="#5c940d" text-anchor="start" style="white-space: pre;" direction="ltr">empty_f</text></g><g transform="translate(2457.1415046789293 1054.8251999293138) rotate(0.17839709496844833 63 20)"><text x="0" y="28" font-family="Virgil, Segoe UI Emoji" font-size="30.78497439775648px" fill="#5c940d" text-anchor="start" style="white-space: pre;" direction="ltr">empty_f</text></g><g transform="translate(1872.9240374248125 273.22123888425585) rotate(0 92 23)"><text x="0" y="32" font-family="Virgil, Segoe UI Emoji" font-size="36px" fill="#5c940d" text-anchor="start" style="white-space: pre;" direction="ltr">full_signal</text></g><g transform="translate(10 10) rotate(0 638.5 23)"><text x="0" y="32" font-family="Virgil, Segoe UI Emoji" font-size="36px" fill="#000000" text-anchor="start" style="white-space: pre;" direction="ltr">Details for the PADD output and relation between FIFOs and Windows</text></g></svg>